<?xml version="1.0" encoding="UTF-8" standalone="no"?>
<svg
   xmlns:dc="http://purl.org/dc/elements/1.1/"
   xmlns:cc="http://creativecommons.org/ns#"
   xmlns:rdf="http://www.w3.org/1999/02/22-rdf-syntax-ns#"
   xmlns:svg="http://www.w3.org/2000/svg"
   xmlns="http://www.w3.org/2000/svg"
   xmlns:sodipodi="http://sodipodi.sourceforge.net/DTD/sodipodi-0.dtd"
   xmlns:inkscape="http://www.inkscape.org/namespaces/inkscape"
   style="fill-opacity:1; color-rendering:auto; color-interpolation:auto; stroke:black; text-rendering:auto; stroke-linecap:square; stroke-miterlimit:10; stroke-opacity:1; shape-rendering:auto; fill:black; stroke-dasharray:none; font-weight:normal; stroke-width:1; font-family:'Dialog'; font-style:normal; stroke-linejoin:miter; font-size:12px; stroke-dashoffset:0; image-rendering:auto;"
   width="779"
   height="528"
   id="svg2"
   version="1.1"
   inkscape:version="0.91 r13725"
   sodipodi:docname="PL_plot1.svg">
  <metadata
     id="metadata155">
    <rdf:RDF>
      <cc:Work
         rdf:about="">
        <dc:format>image/svg+xml</dc:format>
        <dc:type
           rdf:resource="http://purl.org/dc/dcmitype/StillImage" />
      </cc:Work>
    </rdf:RDF>
  </metadata>
  <sodipodi:namedview
     pagecolor="#ffffff"
     bordercolor="#666666"
     borderopacity="1"
     objecttolerance="10"
     gridtolerance="10"
     guidetolerance="10"
     inkscape:pageopacity="0"
     inkscape:pageshadow="2"
     inkscape:window-width="1447"
     inkscape:window-height="765"
     id="namedview153"
     showgrid="false"
     inkscape:zoom="0.79589217"
     inkscape:cx="519.45662"
     inkscape:cy="328.48699"
     inkscape:window-x="0"
     inkscape:window-y="0"
     inkscape:window-maximized="0"
     inkscape:current-layer="svg2" />
  <!--Generated by the Batik Graphics2D SVG Generator-->
  <defs
     id="genericDefs" />
  <g
     id="g5">
    <defs
       id="defs1">
      <clipPath
         clipPathUnits="userSpaceOnUse"
         id="clipPath1">
        <path
           d="M0 0 L779 0 L779 528 L0 528 L0 0 Z"
           id="path9" />
      </clipPath>
    </defs>
    <g
       style="fill:white; stroke:white;"
       id="g11">
      <rect
         x="0"
         y="0"
         width="779"
         style="clip-path:url(#clipPath1); stroke:none;"
         height="528"
         id="rect13"
         clip-path="url(#clipPath1)" />
    </g>
    <g
       style="fill:white; text-rendering:optimizeSpeed; color-rendering:optimizeSpeed; image-rendering:optimizeSpeed; shape-rendering:crispEdges; color-interpolation:sRGB; stroke:white;"
       id="g15">
      <rect
         x="0"
         y="0"
         width="779"
         style="clip-path:url(#clipPath1); stroke:none;"
         height="528"
         id="rect17"
         clip-path="url(#clipPath1)" />
      <path
         style="stroke:none;"
         d="M101 470 L705 470 L705 40 L101 40 Z"
         id="path19" />
    </g>
    <g
       transform="translate(383,510)"
       style="font-size:17px; fill:rgb(38,38,38); text-rendering:geometricPrecision; color-rendering:optimizeQuality; image-rendering:optimizeQuality; font-family:'mwb_cmmi10'; color-interpolation:linearRGB; stroke:rgb(38,38,38);"
       id="g21">
      <path
         style="stroke:none;"
         d="M0.8594 -0.2969 Q0.8594 -0.5469 1.0938 -0.7656 L5.875 -5.4531 L4.1875 -10.1875 Q3.9844 -10.7188 3.7656 -11.0391 Q3.5469 -11.3594 3.125 -11.3594 Q2.9375 -11.3594 2.9375 -11.5781 Q2.9531 -11.6719 3.0234 -11.7344 Q3.0938 -11.7969 3.2031 -11.7969 Q4.9844 -11.7969 5.3594 -10.7344 L8.8125 -1.1094 Q9.0312 -0.375 9.2656 -0.1406 Q9.3438 -0.0156 9.3438 0.0312 Q9.3438 0.1875 9.2188 0.1875 L8.2969 0.1875 Q7.875 0.0625 7.625 -0.5469 L6.0625 -4.8906 L1.9531 -0.0625 Q1.6562 0.2188 1.4062 0.2188 Q1.2031 0.2188 1.0312 0.0703 Q0.8594 -0.0781 0.8594 -0.2969 Z"
         id="path23" />
    </g>
    <g
       transform="translate(393,510)"
       style="font-size:17px; fill:rgb(38,38,38); text-rendering:geometricPrecision; color-rendering:optimizeQuality; image-rendering:optimizeQuality; font-family:'Charter'; color-interpolation:linearRGB; stroke:rgb(38,38,38);"
       id="g25">
      <path
         style="stroke:none;"
         d="M7.0889 -12.0361 L11.1147 -12.0361 L11.1147 -11.3057 L8.4253 -11.3057 L8.4253 1.5273 L11.1147 1.5273 L11.1147 2.2412 L7.0889 2.2412 ZM16.9751 -9.7617 L15.2983 -5.0469 L18.7266 -5.0469 ZM16.7095 -11.5464 L17.8301 -11.5464 L21.9058 -0.9048 L22.9268 -0.6973 L22.9268 0 L19.0669 0 L19.0669 -0.6973 L20.1211 -0.7803 L20.2456 -1.021 L19.0171 -4.2666 L15.0078 -4.2666 L13.7959 -1.021 L13.9702 -0.7803 L15.0742 -0.6973 L15.0742 0 L11.7456 0 L11.7456 -0.6973 L12.7251 -0.9048 ZM17.0996 -15.6055 Q16.585 -15.6055 16.2197 -15.2444 Q15.8545 -14.8833 15.8545 -14.3687 Q15.8545 -13.854 16.2197 -13.4971 Q16.585 -13.1401 17.0996 -13.1401 Q17.6143 -13.1401 17.967 -13.4971 Q18.3198 -13.854 18.3198 -14.3687 Q18.3198 -14.8916 17.967 -15.2485 Q17.6143 -15.6055 17.0996 -15.6055 ZM17.083 -16.3691 Q17.9214 -16.3691 18.5024 -15.7964 Q19.0835 -15.2236 19.0835 -14.3853 Q19.0835 -13.5386 18.5024 -12.9575 Q17.9214 -12.3765 17.083 -12.3765 Q16.2446 -12.3765 15.6677 -12.9575 Q15.0908 -13.5386 15.0908 -14.3853 Q15.0908 -15.2236 15.6636 -15.7964 Q16.2363 -16.3691 17.083 -16.3691 ZM23.5244 -12.0361 L27.542 -12.0361 L27.542 2.2578 L23.5244 2.2578 L23.5244 1.5273 L26.2139 1.5273 L26.2139 -11.3057 L23.5244 -11.3057 Z"
         id="path27" />
    </g>
    <g
       style="fill:rgb(38,38,38); text-rendering:geometricPrecision; color-interpolation:linearRGB; color-rendering:optimizeQuality; image-rendering:optimizeQuality; stroke:rgb(38,38,38);"
       id="g29">
      <line
         y2="470"
         style="fill:none;"
         x1="101"
         x2="705"
         y1="470"
         id="line31" />
      <line
         y2="463.96"
         style="fill:none;"
         x1="101"
         x2="101"
         y1="470"
         id="line33" />
      <line
         y2="463.96"
         style="fill:none;"
         x1="187.2857"
         x2="187.2857"
         y1="470"
         id="line35" />
      <line
         y2="463.96"
         style="fill:none;"
         x1="273.5714"
         x2="273.5714"
         y1="470"
         id="line37" />
      <line
         y2="463.96"
         style="fill:none;"
         x1="359.8571"
         x2="359.8571"
         y1="470"
         id="line39" />
      <line
         y2="463.96"
         style="fill:none;"
         x1="446.1429"
         x2="446.1429"
         y1="470"
         id="line41" />
      <line
         y2="463.96"
         style="fill:none;"
         x1="532.4286"
         x2="532.4286"
         y1="470"
         id="line43" />
      <line
         y2="463.96"
         style="fill:none;"
         x1="618.7143"
         x2="618.7143"
         y1="470"
         id="line45" />
      <line
         y2="463.96"
         style="fill:none;"
         x1="705"
         x2="705"
         y1="470"
         id="line47" />
    </g>
    <g
       transform="translate(101,475.2)"
       style="font-size:16px; fill:rgb(38,38,38); text-rendering:geometricPrecision; color-rendering:optimizeQuality; image-rendering:optimizeQuality; font-family:'Charter'; color-interpolation:linearRGB; stroke:rgb(38,38,38);"
       id="g49">
      <path
         style="stroke:none;"
         d="M-16.1797 4.9453 L-10.4531 4.9453 L-10.4531 6.1953 L-15.1875 6.1953 L-15.1875 9.3906 Q-14.7344 9.2656 -14.3047 9.1992 Q-13.875 9.1328 -13.4766 9.1328 Q-11.8906 9.1328 -10.9336 9.9766 Q-9.9766 10.8203 -9.9766 12.2109 Q-9.9766 13.8047 -11.1562 14.8125 Q-12.3359 15.8203 -14.2422 15.8203 Q-15.4141 15.8203 -16.207 15.3789 Q-17 14.9375 -17 14.3203 Q-17 13.9453 -16.7383 13.707 Q-16.4766 13.4688 -16.0703 13.4688 Q-16 13.4688 -15.9062 13.4805 Q-15.8125 13.4922 -15.6797 13.5234 L-15.0469 14.8984 Q-14.7812 14.9922 -14.5117 15.0391 Q-14.2422 15.0859 -13.9766 15.0859 Q-12.8594 15.0859 -12.1523 14.3711 Q-11.4453 13.6562 -11.4453 12.5312 Q-11.4453 11.3125 -12.2617 10.7188 Q-13.0781 10.125 -14.7734 10.125 Q-15.2188 10.125 -15.5664 10.1484 Q-15.9141 10.1719 -16.1797 10.2266 ZM-3.9219 4.75 L-3.4766 4.75 L-3.4766 14.6875 L-3.2812 14.9297 L-1.5547 15.0078 L-1.5547 15.6797 L-6.9141 15.6797 L-6.9141 14.9922 L-5.0781 14.8984 L-4.8828 14.625 L-4.8828 6.0156 L-7.3906 6.4609 L-7.3906 5.7891 ZM4.4453 5.5 Q3.3281 5.5 2.7422 6.7305 Q2.1562 7.9609 2.1562 10.3203 Q2.1562 12.6641 2.7422 13.8828 Q3.3281 15.1016 4.4453 15.1016 Q5.5625 15.1016 6.1406 13.8789 Q6.7188 12.6562 6.7188 10.3047 Q6.7188 7.9453 6.1406 6.7227 Q5.5625 5.5 4.4453 5.5 ZM4.4453 4.75 Q6.2109 4.75 7.2266 6.2344 Q8.2422 7.7188 8.2422 10.3047 Q8.2422 12.8984 7.2227 14.3867 Q6.2031 15.875 4.4453 15.875 Q2.6953 15.875 1.6758 14.3867 Q0.6562 12.8984 0.6562 10.3047 Q0.6562 7.7188 1.6719 6.2344 Q2.6875 4.75 4.4453 4.75 ZM13.3438 5.5 Q12.2266 5.5 11.6406 6.7305 Q11.0547 7.9609 11.0547 10.3203 Q11.0547 12.6641 11.6406 13.8828 Q12.2266 15.1016 13.3438 15.1016 Q14.4609 15.1016 15.0391 13.8789 Q15.6172 12.6562 15.6172 10.3047 Q15.6172 7.9453 15.0391 6.7227 Q14.4609 5.5 13.3438 5.5 ZM13.3438 4.75 Q15.1094 4.75 16.125 6.2344 Q17.1406 7.7188 17.1406 10.3047 Q17.1406 12.8984 16.1211 14.3867 Q15.1016 15.875 13.3438 15.875 Q11.5938 15.875 10.5742 14.3867 Q9.5547 12.8984 9.5547 10.3047 Q9.5547 7.7188 10.5703 6.2344 Q11.5859 4.75 13.3438 4.75 Z"
         id="path51" />
    </g>
    <g
       transform="translate(187.2857,475.2)"
       style="font-size:16px; fill:rgb(38,38,38); text-rendering:geometricPrecision; color-rendering:optimizeQuality; image-rendering:optimizeQuality; font-family:'Charter'; color-interpolation:linearRGB; stroke:rgb(38,38,38);"
       id="g53">
      <path
         style="stroke:none;"
         d="M-16.1797 4.9453 L-10.4531 4.9453 L-10.4531 6.1953 L-15.1875 6.1953 L-15.1875 9.3906 Q-14.7344 9.2656 -14.3047 9.1992 Q-13.875 9.1328 -13.4766 9.1328 Q-11.8906 9.1328 -10.9336 9.9766 Q-9.9766 10.8203 -9.9766 12.2109 Q-9.9766 13.8047 -11.1562 14.8125 Q-12.3359 15.8203 -14.2422 15.8203 Q-15.4141 15.8203 -16.207 15.3789 Q-17 14.9375 -17 14.3203 Q-17 13.9453 -16.7383 13.707 Q-16.4766 13.4688 -16.0703 13.4688 Q-16 13.4688 -15.9062 13.4805 Q-15.8125 13.4922 -15.6797 13.5234 L-15.0469 14.8984 Q-14.7812 14.9922 -14.5117 15.0391 Q-14.2422 15.0859 -13.9766 15.0859 Q-12.8594 15.0859 -12.1523 14.3711 Q-11.4453 13.6562 -11.4453 12.5312 Q-11.4453 11.3125 -12.2617 10.7188 Q-13.0781 10.125 -14.7734 10.125 Q-15.2188 10.125 -15.5664 10.1484 Q-15.9141 10.1719 -16.1797 10.2266 ZM-6.6406 14.4141 L-1.8281 14.4141 L-1.5391 13.0547 L-0.8203 13.0547 L-0.8203 15.6797 L-8.2266 15.6797 L-8.2266 14.6719 Q-4.7266 11.8281 -3.7227 10.5234 Q-2.7188 9.2188 -2.7188 7.9844 Q-2.7188 6.8516 -3.2852 6.2109 Q-3.8516 5.5703 -4.8516 5.5703 Q-5.2266 5.5703 -5.5781 5.6641 Q-5.9297 5.7578 -6.2734 5.9531 L-6.2734 7.6641 Q-6.4453 7.7812 -6.625 7.8438 Q-6.8047 7.9062 -6.9922 7.9062 Q-7.4062 7.9062 -7.6484 7.6641 Q-7.8906 7.4219 -7.8906 7.0078 Q-7.8906 6.1094 -6.8945 5.4297 Q-5.8984 4.75 -4.5 4.75 Q-2.9766 4.75 -2.0742 5.5742 Q-1.1719 6.3984 -1.1719 7.7734 Q-1.1719 9.0391 -2.2695 10.4219 Q-3.3672 11.8047 -6.6406 14.4141 ZM4.4453 5.5 Q3.3281 5.5 2.7422 6.7305 Q2.1562 7.9609 2.1562 10.3203 Q2.1562 12.6641 2.7422 13.8828 Q3.3281 15.1016 4.4453 15.1016 Q5.5625 15.1016 6.1406 13.8789 Q6.7188 12.6562 6.7188 10.3047 Q6.7188 7.9453 6.1406 6.7227 Q5.5625 5.5 4.4453 5.5 ZM4.4453 4.75 Q6.2109 4.75 7.2266 6.2344 Q8.2422 7.7188 8.2422 10.3047 Q8.2422 12.8984 7.2227 14.3867 Q6.2031 15.875 4.4453 15.875 Q2.6953 15.875 1.6758 14.3867 Q0.6562 12.8984 0.6562 10.3047 Q0.6562 7.7188 1.6719 6.2344 Q2.6875 4.75 4.4453 4.75 ZM13.3438 5.5 Q12.2266 5.5 11.6406 6.7305 Q11.0547 7.9609 11.0547 10.3203 Q11.0547 12.6641 11.6406 13.8828 Q12.2266 15.1016 13.3438 15.1016 Q14.4609 15.1016 15.0391 13.8789 Q15.6172 12.6562 15.6172 10.3047 Q15.6172 7.9453 15.0391 6.7227 Q14.4609 5.5 13.3438 5.5 ZM13.3438 4.75 Q15.1094 4.75 16.125 6.2344 Q17.1406 7.7188 17.1406 10.3047 Q17.1406 12.8984 16.1211 14.3867 Q15.1016 15.875 13.3438 15.875 Q11.5938 15.875 10.5742 14.3867 Q9.5547 12.8984 9.5547 10.3047 Q9.5547 7.7188 10.5703 6.2344 Q11.5859 4.75 13.3438 4.75 Z"
         id="path55" />
    </g>
    <g
       transform="translate(273.5714,475.2)"
       style="font-size:16px; fill:rgb(38,38,38); text-rendering:geometricPrecision; color-rendering:optimizeQuality; image-rendering:optimizeQuality; font-family:'Charter'; color-interpolation:linearRGB; stroke:rgb(38,38,38);"
       id="g57">
      <path
         style="stroke:none;"
         d="M-16.1797 4.9453 L-10.4531 4.9453 L-10.4531 6.1953 L-15.1875 6.1953 L-15.1875 9.3906 Q-14.7344 9.2656 -14.3047 9.1992 Q-13.875 9.1328 -13.4766 9.1328 Q-11.8906 9.1328 -10.9336 9.9766 Q-9.9766 10.8203 -9.9766 12.2109 Q-9.9766 13.8047 -11.1562 14.8125 Q-12.3359 15.8203 -14.2422 15.8203 Q-15.4141 15.8203 -16.207 15.3789 Q-17 14.9375 -17 14.3203 Q-17 13.9453 -16.7383 13.707 Q-16.4766 13.4688 -16.0703 13.4688 Q-16 13.4688 -15.9062 13.4805 Q-15.8125 13.4922 -15.6797 13.5234 L-15.0469 14.8984 Q-14.7812 14.9922 -14.5117 15.0391 Q-14.2422 15.0859 -13.9766 15.0859 Q-12.8594 15.0859 -12.1523 14.3711 Q-11.4453 13.6562 -11.4453 12.5312 Q-11.4453 11.3125 -12.2617 10.7188 Q-13.0781 10.125 -14.7734 10.125 Q-15.2188 10.125 -15.5664 10.1484 Q-15.9141 10.1719 -16.1797 10.2266 ZM-3.8281 10.0312 Q-2.5156 10.125 -1.7695 10.8125 Q-1.0234 11.5 -1.0234 12.6094 Q-1.0234 14.0078 -2.1602 14.9336 Q-3.2969 15.8594 -5.0781 15.8594 Q-6.3828 15.8594 -7.3125 15.3203 Q-8.2422 14.7812 -8.2422 14.0938 Q-8.2422 13.75 -7.9844 13.5156 Q-7.7266 13.2812 -7.3438 13.2812 Q-7.2109 13.2812 -7.0938 13.3008 Q-6.9766 13.3203 -6.8672 13.3594 L-6.3672 14.7188 Q-6.0469 14.9141 -5.707 15.0078 Q-5.3672 15.1016 -5.0078 15.1016 Q-3.9297 15.1016 -3.2148 14.3789 Q-2.5 13.6562 -2.5 12.5781 Q-2.5 11.6172 -3.1133 11.0977 Q-3.7266 10.5781 -4.8672 10.5781 Q-5.0859 10.5781 -5.3008 10.5938 Q-5.5156 10.6094 -5.7109 10.6406 L-5.7109 9.6953 Q-5.6562 9.6953 -5.5469 9.7031 Q-5.4375 9.7109 -5.375 9.7109 Q-4.1875 9.7109 -3.543 9.1719 Q-2.8984 8.6328 -2.8984 7.6484 Q-2.8984 6.7031 -3.4531 6.1367 Q-4.0078 5.5703 -4.9297 5.5703 Q-5.3594 5.5703 -5.7344 5.6836 Q-6.1094 5.7969 -6.4531 6.0312 L-6.4531 7.5391 Q-6.5938 7.6406 -6.7539 7.6914 Q-6.9141 7.7422 -7.1094 7.7422 Q-7.4922 7.7422 -7.7305 7.5039 Q-7.9688 7.2656 -7.9688 6.8828 Q-7.9688 6.0234 -6.9844 5.3867 Q-6 4.75 -4.5938 4.75 Q-3.1641 4.75 -2.3047 5.4844 Q-1.4453 6.2188 -1.4453 7.4375 Q-1.4453 8.375 -2.0547 9.0352 Q-2.6641 9.6953 -3.8281 10.0312 ZM4.4453 5.5 Q3.3281 5.5 2.7422 6.7305 Q2.1562 7.9609 2.1562 10.3203 Q2.1562 12.6641 2.7422 13.8828 Q3.3281 15.1016 4.4453 15.1016 Q5.5625 15.1016 6.1406 13.8789 Q6.7188 12.6562 6.7188 10.3047 Q6.7188 7.9453 6.1406 6.7227 Q5.5625 5.5 4.4453 5.5 ZM4.4453 4.75 Q6.2109 4.75 7.2266 6.2344 Q8.2422 7.7188 8.2422 10.3047 Q8.2422 12.8984 7.2227 14.3867 Q6.2031 15.875 4.4453 15.875 Q2.6953 15.875 1.6758 14.3867 Q0.6562 12.8984 0.6562 10.3047 Q0.6562 7.7188 1.6719 6.2344 Q2.6875 4.75 4.4453 4.75 ZM13.3438 5.5 Q12.2266 5.5 11.6406 6.7305 Q11.0547 7.9609 11.0547 10.3203 Q11.0547 12.6641 11.6406 13.8828 Q12.2266 15.1016 13.3438 15.1016 Q14.4609 15.1016 15.0391 13.8789 Q15.6172 12.6562 15.6172 10.3047 Q15.6172 7.9453 15.0391 6.7227 Q14.4609 5.5 13.3438 5.5 ZM13.3438 4.75 Q15.1094 4.75 16.125 6.2344 Q17.1406 7.7188 17.1406 10.3047 Q17.1406 12.8984 16.1211 14.3867 Q15.1016 15.875 13.3438 15.875 Q11.5938 15.875 10.5742 14.3867 Q9.5547 12.8984 9.5547 10.3047 Q9.5547 7.7188 10.5703 6.2344 Q11.5859 4.75 13.3438 4.75 Z"
         id="path59" />
    </g>
    <g
       transform="translate(359.8571,475.2)"
       style="font-size:16px; fill:rgb(38,38,38); text-rendering:geometricPrecision; color-rendering:optimizeQuality; image-rendering:optimizeQuality; font-family:'Charter'; color-interpolation:linearRGB; stroke:rgb(38,38,38);"
       id="g61">
      <path
         style="stroke:none;"
         d="M-16.1797 4.9453 L-10.4531 4.9453 L-10.4531 6.1953 L-15.1875 6.1953 L-15.1875 9.3906 Q-14.7344 9.2656 -14.3047 9.1992 Q-13.875 9.1328 -13.4766 9.1328 Q-11.8906 9.1328 -10.9336 9.9766 Q-9.9766 10.8203 -9.9766 12.2109 Q-9.9766 13.8047 -11.1562 14.8125 Q-12.3359 15.8203 -14.2422 15.8203 Q-15.4141 15.8203 -16.207 15.3789 Q-17 14.9375 -17 14.3203 Q-17 13.9453 -16.7383 13.707 Q-16.4766 13.4688 -16.0703 13.4688 Q-16 13.4688 -15.9062 13.4805 Q-15.8125 13.4922 -15.6797 13.5234 L-15.0469 14.8984 Q-14.7812 14.9922 -14.5117 15.0391 Q-14.2422 15.0859 -13.9766 15.0859 Q-12.8594 15.0859 -12.1523 14.3711 Q-11.4453 13.6562 -11.4453 12.5312 Q-11.4453 11.3125 -12.2617 10.7188 Q-13.0781 10.125 -14.7734 10.125 Q-15.2188 10.125 -15.5664 10.1484 Q-15.9141 10.1719 -16.1797 10.2266 ZM-3.3125 6.5938 L-7.2656 11.5391 L-3.3125 11.5391 ZM-3.0078 4.8516 L-2.0859 4.8516 L-2.0859 11.5391 L-0.2734 11.5391 L-0.2734 12.5781 L-2.0859 12.5781 L-2.0859 16.2734 L-3.3125 16.2734 L-3.3125 12.5781 L-8.4688 12.5781 L-8.4688 11.5391 ZM4.4453 5.5 Q3.3281 5.5 2.7422 6.7305 Q2.1562 7.9609 2.1562 10.3203 Q2.1562 12.6641 2.7422 13.8828 Q3.3281 15.1016 4.4453 15.1016 Q5.5625 15.1016 6.1406 13.8789 Q6.7188 12.6562 6.7188 10.3047 Q6.7188 7.9453 6.1406 6.7227 Q5.5625 5.5 4.4453 5.5 ZM4.4453 4.75 Q6.2109 4.75 7.2266 6.2344 Q8.2422 7.7188 8.2422 10.3047 Q8.2422 12.8984 7.2227 14.3867 Q6.2031 15.875 4.4453 15.875 Q2.6953 15.875 1.6758 14.3867 Q0.6562 12.8984 0.6562 10.3047 Q0.6562 7.7188 1.6719 6.2344 Q2.6875 4.75 4.4453 4.75 ZM13.3438 5.5 Q12.2266 5.5 11.6406 6.7305 Q11.0547 7.9609 11.0547 10.3203 Q11.0547 12.6641 11.6406 13.8828 Q12.2266 15.1016 13.3438 15.1016 Q14.4609 15.1016 15.0391 13.8789 Q15.6172 12.6562 15.6172 10.3047 Q15.6172 7.9453 15.0391 6.7227 Q14.4609 5.5 13.3438 5.5 ZM13.3438 4.75 Q15.1094 4.75 16.125 6.2344 Q17.1406 7.7188 17.1406 10.3047 Q17.1406 12.8984 16.1211 14.3867 Q15.1016 15.875 13.3438 15.875 Q11.5938 15.875 10.5742 14.3867 Q9.5547 12.8984 9.5547 10.3047 Q9.5547 7.7188 10.5703 6.2344 Q11.5859 4.75 13.3438 4.75 Z"
         id="path63" />
    </g>
    <g
       transform="translate(446.1429,475.2)"
       style="font-size:16px; fill:rgb(38,38,38); text-rendering:geometricPrecision; color-rendering:optimizeQuality; image-rendering:optimizeQuality; font-family:'Charter'; color-interpolation:linearRGB; stroke:rgb(38,38,38);"
       id="g65">
      <path
         style="stroke:none;"
         d="M-16.1797 4.9453 L-10.4531 4.9453 L-10.4531 6.1953 L-15.1875 6.1953 L-15.1875 9.3906 Q-14.7344 9.2656 -14.3047 9.1992 Q-13.875 9.1328 -13.4766 9.1328 Q-11.8906 9.1328 -10.9336 9.9766 Q-9.9766 10.8203 -9.9766 12.2109 Q-9.9766 13.8047 -11.1562 14.8125 Q-12.3359 15.8203 -14.2422 15.8203 Q-15.4141 15.8203 -16.207 15.3789 Q-17 14.9375 -17 14.3203 Q-17 13.9453 -16.7383 13.707 Q-16.4766 13.4688 -16.0703 13.4688 Q-16 13.4688 -15.9062 13.4805 Q-15.8125 13.4922 -15.6797 13.5234 L-15.0469 14.8984 Q-14.7812 14.9922 -14.5117 15.0391 Q-14.2422 15.0859 -13.9766 15.0859 Q-12.8594 15.0859 -12.1523 14.3711 Q-11.4453 13.6562 -11.4453 12.5312 Q-11.4453 11.3125 -12.2617 10.7188 Q-13.0781 10.125 -14.7734 10.125 Q-15.2188 10.125 -15.5664 10.1484 Q-15.9141 10.1719 -16.1797 10.2266 ZM-7.2812 4.9453 L-1.5547 4.9453 L-1.5547 6.1953 L-6.2891 6.1953 L-6.2891 9.3906 Q-5.8359 9.2656 -5.4062 9.1992 Q-4.9766 9.1328 -4.5781 9.1328 Q-2.9922 9.1328 -2.0352 9.9766 Q-1.0781 10.8203 -1.0781 12.2109 Q-1.0781 13.8047 -2.2578 14.8125 Q-3.4375 15.8203 -5.3438 15.8203 Q-6.5156 15.8203 -7.3086 15.3789 Q-8.1016 14.9375 -8.1016 14.3203 Q-8.1016 13.9453 -7.8398 13.707 Q-7.5781 13.4688 -7.1719 13.4688 Q-7.1016 13.4688 -7.0078 13.4805 Q-6.9141 13.4922 -6.7812 13.5234 L-6.1484 14.8984 Q-5.8828 14.9922 -5.6133 15.0391 Q-5.3438 15.0859 -5.0781 15.0859 Q-3.9609 15.0859 -3.2539 14.3711 Q-2.5469 13.6562 -2.5469 12.5312 Q-2.5469 11.3125 -3.3633 10.7188 Q-4.1797 10.125 -5.875 10.125 Q-6.3203 10.125 -6.668 10.1484 Q-7.0156 10.1719 -7.2812 10.2266 ZM4.4453 5.5 Q3.3281 5.5 2.7422 6.7305 Q2.1562 7.9609 2.1562 10.3203 Q2.1562 12.6641 2.7422 13.8828 Q3.3281 15.1016 4.4453 15.1016 Q5.5625 15.1016 6.1406 13.8789 Q6.7188 12.6562 6.7188 10.3047 Q6.7188 7.9453 6.1406 6.7227 Q5.5625 5.5 4.4453 5.5 ZM4.4453 4.75 Q6.2109 4.75 7.2266 6.2344 Q8.2422 7.7188 8.2422 10.3047 Q8.2422 12.8984 7.2227 14.3867 Q6.2031 15.875 4.4453 15.875 Q2.6953 15.875 1.6758 14.3867 Q0.6562 12.8984 0.6562 10.3047 Q0.6562 7.7188 1.6719 6.2344 Q2.6875 4.75 4.4453 4.75 ZM13.3438 5.5 Q12.2266 5.5 11.6406 6.7305 Q11.0547 7.9609 11.0547 10.3203 Q11.0547 12.6641 11.6406 13.8828 Q12.2266 15.1016 13.3438 15.1016 Q14.4609 15.1016 15.0391 13.8789 Q15.6172 12.6562 15.6172 10.3047 Q15.6172 7.9453 15.0391 6.7227 Q14.4609 5.5 13.3438 5.5 ZM13.3438 4.75 Q15.1094 4.75 16.125 6.2344 Q17.1406 7.7188 17.1406 10.3047 Q17.1406 12.8984 16.1211 14.3867 Q15.1016 15.875 13.3438 15.875 Q11.5938 15.875 10.5742 14.3867 Q9.5547 12.8984 9.5547 10.3047 Q9.5547 7.7188 10.5703 6.2344 Q11.5859 4.75 13.3438 4.75 Z"
         id="path67" />
    </g>
    <g
       transform="translate(532.4286,475.2)"
       style="font-size:16px; fill:rgb(38,38,38); text-rendering:geometricPrecision; color-rendering:optimizeQuality; image-rendering:optimizeQuality; font-family:'Charter'; color-interpolation:linearRGB; stroke:rgb(38,38,38);"
       id="g69">
      <path
         style="stroke:none;"
         d="M-16.1797 4.9453 L-10.4531 4.9453 L-10.4531 6.1953 L-15.1875 6.1953 L-15.1875 9.3906 Q-14.7344 9.2656 -14.3047 9.1992 Q-13.875 9.1328 -13.4766 9.1328 Q-11.8906 9.1328 -10.9336 9.9766 Q-9.9766 10.8203 -9.9766 12.2109 Q-9.9766 13.8047 -11.1562 14.8125 Q-12.3359 15.8203 -14.2422 15.8203 Q-15.4141 15.8203 -16.207 15.3789 Q-17 14.9375 -17 14.3203 Q-17 13.9453 -16.7383 13.707 Q-16.4766 13.4688 -16.0703 13.4688 Q-16 13.4688 -15.9062 13.4805 Q-15.8125 13.4922 -15.6797 13.5234 L-15.0469 14.8984 Q-14.7812 14.9922 -14.5117 15.0391 Q-14.2422 15.0859 -13.9766 15.0859 Q-12.8594 15.0859 -12.1523 14.3711 Q-11.4453 13.6562 -11.4453 12.5312 Q-11.4453 11.3125 -12.2617 10.7188 Q-13.0781 10.125 -14.7734 10.125 Q-15.2188 10.125 -15.5664 10.1484 Q-15.9141 10.1719 -16.1797 10.2266 ZM-6.5781 10.2422 Q-6.5938 10.4141 -6.6016 10.6211 Q-6.6094 10.8281 -6.6094 11.2188 Q-6.6094 13.0938 -6 14.0977 Q-5.3906 15.1016 -4.2422 15.1016 Q-3.2422 15.1016 -2.5977 14.2812 Q-1.9531 13.4609 -1.9531 12.1953 Q-1.9531 10.9766 -2.5859 10.25 Q-3.2188 9.5234 -4.2578 9.5234 Q-4.9219 9.5234 -5.5039 9.7031 Q-6.0859 9.8828 -6.5781 10.2422 ZM-1.8125 4.2578 L-1.8125 5.1875 L-1.8594 5.1875 Q-3.7812 5.1875 -4.9766 6.293 Q-6.1719 7.3984 -6.5469 9.5391 Q-5.9219 9.0547 -5.2305 8.8086 Q-4.5391 8.5625 -3.8281 8.5625 Q-2.3828 8.5625 -1.4414 9.5508 Q-0.5 10.5391 -0.5 12.0469 Q-0.5 13.6719 -1.6133 14.7734 Q-2.7266 15.875 -4.3672 15.875 Q-6.0469 15.875 -7.0742 14.6094 Q-8.1016 13.3438 -8.1016 11.25 Q-8.1016 8.1719 -6.4258 6.3086 Q-4.75 4.4453 -1.8125 4.2578 ZM4.4453 5.5 Q3.3281 5.5 2.7422 6.7305 Q2.1562 7.9609 2.1562 10.3203 Q2.1562 12.6641 2.7422 13.8828 Q3.3281 15.1016 4.4453 15.1016 Q5.5625 15.1016 6.1406 13.8789 Q6.7188 12.6562 6.7188 10.3047 Q6.7188 7.9453 6.1406 6.7227 Q5.5625 5.5 4.4453 5.5 ZM4.4453 4.75 Q6.2109 4.75 7.2266 6.2344 Q8.2422 7.7188 8.2422 10.3047 Q8.2422 12.8984 7.2227 14.3867 Q6.2031 15.875 4.4453 15.875 Q2.6953 15.875 1.6758 14.3867 Q0.6562 12.8984 0.6562 10.3047 Q0.6562 7.7188 1.6719 6.2344 Q2.6875 4.75 4.4453 4.75 ZM13.3438 5.5 Q12.2266 5.5 11.6406 6.7305 Q11.0547 7.9609 11.0547 10.3203 Q11.0547 12.6641 11.6406 13.8828 Q12.2266 15.1016 13.3438 15.1016 Q14.4609 15.1016 15.0391 13.8789 Q15.6172 12.6562 15.6172 10.3047 Q15.6172 7.9453 15.0391 6.7227 Q14.4609 5.5 13.3438 5.5 ZM13.3438 4.75 Q15.1094 4.75 16.125 6.2344 Q17.1406 7.7188 17.1406 10.3047 Q17.1406 12.8984 16.1211 14.3867 Q15.1016 15.875 13.3438 15.875 Q11.5938 15.875 10.5742 14.3867 Q9.5547 12.8984 9.5547 10.3047 Q9.5547 7.7188 10.5703 6.2344 Q11.5859 4.75 13.3438 4.75 Z"
         id="path71" />
    </g>
    <g
       transform="translate(618.7143,475.2)"
       style="font-size:16px; fill:rgb(38,38,38); text-rendering:geometricPrecision; color-rendering:optimizeQuality; image-rendering:optimizeQuality; font-family:'Charter'; color-interpolation:linearRGB; stroke:rgb(38,38,38);"
       id="g73">
      <path
         style="stroke:none;"
         d="M-16.1797 4.9453 L-10.4531 4.9453 L-10.4531 6.1953 L-15.1875 6.1953 L-15.1875 9.3906 Q-14.7344 9.2656 -14.3047 9.1992 Q-13.875 9.1328 -13.4766 9.1328 Q-11.8906 9.1328 -10.9336 9.9766 Q-9.9766 10.8203 -9.9766 12.2109 Q-9.9766 13.8047 -11.1562 14.8125 Q-12.3359 15.8203 -14.2422 15.8203 Q-15.4141 15.8203 -16.207 15.3789 Q-17 14.9375 -17 14.3203 Q-17 13.9453 -16.7383 13.707 Q-16.4766 13.4688 -16.0703 13.4688 Q-16 13.4688 -15.9062 13.4805 Q-15.8125 13.4922 -15.6797 13.5234 L-15.0469 14.8984 Q-14.7812 14.9922 -14.5117 15.0391 Q-14.2422 15.0859 -13.9766 15.0859 Q-12.8594 15.0859 -12.1523 14.3711 Q-11.4453 13.6562 -11.4453 12.5312 Q-11.4453 11.3125 -12.2617 10.7188 Q-13.0781 10.125 -14.7734 10.125 Q-15.2188 10.125 -15.5664 10.1484 Q-15.9141 10.1719 -16.1797 10.2266 ZM-7.7656 4.9453 L-0.4062 4.9453 L-0.4062 5.5859 L-5.7109 15.9219 L-5.7109 16.2734 L-7.0391 16.2734 L-1.8281 6.1562 L-6.7578 6.1562 L-7.0078 7.6172 L-7.7656 7.6172 ZM4.4453 5.5 Q3.3281 5.5 2.7422 6.7305 Q2.1562 7.9609 2.1562 10.3203 Q2.1562 12.6641 2.7422 13.8828 Q3.3281 15.1016 4.4453 15.1016 Q5.5625 15.1016 6.1406 13.8789 Q6.7188 12.6562 6.7188 10.3047 Q6.7188 7.9453 6.1406 6.7227 Q5.5625 5.5 4.4453 5.5 ZM4.4453 4.75 Q6.2109 4.75 7.2266 6.2344 Q8.2422 7.7188 8.2422 10.3047 Q8.2422 12.8984 7.2227 14.3867 Q6.2031 15.875 4.4453 15.875 Q2.6953 15.875 1.6758 14.3867 Q0.6562 12.8984 0.6562 10.3047 Q0.6562 7.7188 1.6719 6.2344 Q2.6875 4.75 4.4453 4.75 ZM13.3438 5.5 Q12.2266 5.5 11.6406 6.7305 Q11.0547 7.9609 11.0547 10.3203 Q11.0547 12.6641 11.6406 13.8828 Q12.2266 15.1016 13.3438 15.1016 Q14.4609 15.1016 15.0391 13.8789 Q15.6172 12.6562 15.6172 10.3047 Q15.6172 7.9453 15.0391 6.7227 Q14.4609 5.5 13.3438 5.5 ZM13.3438 4.75 Q15.1094 4.75 16.125 6.2344 Q17.1406 7.7188 17.1406 10.3047 Q17.1406 12.8984 16.1211 14.3867 Q15.1016 15.875 13.3438 15.875 Q11.5938 15.875 10.5742 14.3867 Q9.5547 12.8984 9.5547 10.3047 Q9.5547 7.7188 10.5703 6.2344 Q11.5859 4.75 13.3438 4.75 Z"
         id="path75" />
    </g>
    <g
       transform="translate(705,475.2)"
       style="font-size:16px; fill:rgb(38,38,38); text-rendering:geometricPrecision; color-rendering:optimizeQuality; image-rendering:optimizeQuality; font-family:'Charter'; color-interpolation:linearRGB; stroke:rgb(38,38,38);"
       id="g77">
      <path
         style="stroke:none;"
         d="M-16.1797 4.9453 L-10.4531 4.9453 L-10.4531 6.1953 L-15.1875 6.1953 L-15.1875 9.3906 Q-14.7344 9.2656 -14.3047 9.1992 Q-13.875 9.1328 -13.4766 9.1328 Q-11.8906 9.1328 -10.9336 9.9766 Q-9.9766 10.8203 -9.9766 12.2109 Q-9.9766 13.8047 -11.1562 14.8125 Q-12.3359 15.8203 -14.2422 15.8203 Q-15.4141 15.8203 -16.207 15.3789 Q-17 14.9375 -17 14.3203 Q-17 13.9453 -16.7383 13.707 Q-16.4766 13.4688 -16.0703 13.4688 Q-16 13.4688 -15.9062 13.4805 Q-15.8125 13.4922 -15.6797 13.5234 L-15.0469 14.8984 Q-14.7812 14.9922 -14.5117 15.0391 Q-14.2422 15.0859 -13.9766 15.0859 Q-12.8594 15.0859 -12.1523 14.3711 Q-11.4453 13.6562 -11.4453 12.5312 Q-11.4453 11.3125 -12.2617 10.7188 Q-13.0781 10.125 -14.7734 10.125 Q-15.2188 10.125 -15.5664 10.1484 Q-15.9141 10.1719 -16.1797 10.2266 ZM-5.3906 10.4141 Q-6.2188 10.8516 -6.5898 11.4062 Q-6.9609 11.9609 -6.9609 12.75 Q-6.9609 13.8203 -6.2773 14.4609 Q-5.5938 15.1016 -4.4531 15.1016 Q-3.4297 15.1016 -2.8047 14.5156 Q-2.1797 13.9297 -2.1797 12.9766 Q-2.1797 12.2031 -2.7656 11.6914 Q-3.3516 11.1797 -5.3906 10.4141 ZM-3.0938 10.0625 Q-1.9766 10.4531 -1.3906 11.1602 Q-0.8047 11.8672 -0.8047 12.8125 Q-0.8047 14.1406 -1.8477 15.0391 Q-2.8906 15.9375 -4.5 15.9375 Q-6.1797 15.9375 -7.1875 15.0898 Q-8.1953 14.2422 -8.1953 12.8516 Q-8.1953 11.8906 -7.6406 11.1953 Q-7.0859 10.5 -6 10.0781 Q-6.8281 9.7344 -7.2539 9.1055 Q-7.6797 8.4766 -7.6797 7.6172 Q-7.6797 6.3281 -6.7617 5.5234 Q-5.8438 4.7188 -4.3672 4.7188 Q-2.9688 4.7188 -2.1094 5.4648 Q-1.25 6.2109 -1.25 7.4062 Q-1.25 8.2109 -1.7305 8.9062 Q-2.2109 9.6016 -3.0938 10.0625 ZM-3.7656 9.7734 Q-3.1562 9.375 -2.8203 8.7969 Q-2.4844 8.2188 -2.4844 7.5703 Q-2.4844 6.6172 -3.0078 6.0508 Q-3.5312 5.4844 -4.4219 5.4844 Q-5.2422 5.4844 -5.7969 6.0312 Q-6.3516 6.5781 -6.3516 7.375 Q-6.3516 8.1406 -5.7344 8.7148 Q-5.1172 9.2891 -3.7656 9.7734 ZM4.4453 5.5 Q3.3281 5.5 2.7422 6.7305 Q2.1562 7.9609 2.1562 10.3203 Q2.1562 12.6641 2.7422 13.8828 Q3.3281 15.1016 4.4453 15.1016 Q5.5625 15.1016 6.1406 13.8789 Q6.7188 12.6562 6.7188 10.3047 Q6.7188 7.9453 6.1406 6.7227 Q5.5625 5.5 4.4453 5.5 ZM4.4453 4.75 Q6.2109 4.75 7.2266 6.2344 Q8.2422 7.7188 8.2422 10.3047 Q8.2422 12.8984 7.2227 14.3867 Q6.2031 15.875 4.4453 15.875 Q2.6953 15.875 1.6758 14.3867 Q0.6562 12.8984 0.6562 10.3047 Q0.6562 7.7188 1.6719 6.2344 Q2.6875 4.75 4.4453 4.75 ZM13.3438 5.5 Q12.2266 5.5 11.6406 6.7305 Q11.0547 7.9609 11.0547 10.3203 Q11.0547 12.6641 11.6406 13.8828 Q12.2266 15.1016 13.3438 15.1016 Q14.4609 15.1016 15.0391 13.8789 Q15.6172 12.6562 15.6172 10.3047 Q15.6172 7.9453 15.0391 6.7227 Q14.4609 5.5 13.3438 5.5 ZM13.3438 4.75 Q15.1094 4.75 16.125 6.2344 Q17.1406 7.7188 17.1406 10.3047 Q17.1406 12.8984 16.1211 14.3867 Q15.1016 15.875 13.3438 15.875 Q11.5938 15.875 10.5742 14.3867 Q9.5547 12.8984 9.5547 10.3047 Q9.5547 7.7188 10.5703 6.2344 Q11.5859 4.75 13.3438 4.75 Z"
         id="path79" />
    </g>
    <g
       transform="translate(57.2062,255) rotate(-90)"
       style="font-size:18px; fill:rgb(38,38,38); text-rendering:geometricPrecision; color-rendering:optimizeQuality; image-rendering:optimizeQuality; font-family:'Charter'; color-interpolation:linearRGB; stroke:rgb(38,38,38);"
       id="g81">
      <path
         style="stroke:none;"
         d="M-91.248 -9.8174 Q-90.7559 -9.7646 -90.4878 -9.7427 Q-90.2197 -9.7207 -90.0527 -9.7207 Q-88.5146 -9.7207 -87.7104 -10.5029 Q-86.9062 -11.2852 -86.9062 -12.7705 Q-86.9062 -14.2031 -87.7368 -14.8887 Q-88.5674 -15.5742 -90.3076 -15.5742 Q-90.6768 -15.5742 -90.8745 -15.5654 Q-91.0723 -15.5566 -91.248 -15.5391 ZM-94.1924 -4.3242 L-94.1924 -5.0625 L-93.1729 -5.1504 L-92.8652 -5.4053 L-92.8652 -15.3193 L-93.1729 -15.5742 L-94.3418 -15.6797 L-94.3418 -16.4004 L-90.2373 -16.4004 Q-87.5303 -16.4004 -86.3833 -15.5479 Q-85.2363 -14.6953 -85.2363 -12.7266 Q-85.2363 -10.9688 -86.4976 -9.9141 Q-87.7588 -8.8594 -89.8945 -8.8594 Q-90.1143 -8.8594 -90.4307 -8.8813 Q-90.7471 -8.9033 -91.2393 -8.9473 L-91.248 -5.4053 L-90.9404 -5.1504 L-89.6572 -5.0625 L-89.6572 -4.3242 ZM-84.2607 -4.3242 L-84.2607 -5.0625 L-83.127 -5.1504 L-82.8193 -5.4053 L-82.8193 -15.3193 L-83.127 -15.5742 L-84.2607 -15.6797 L-84.2607 -16.4004 L-79.8662 -16.4004 L-79.8662 -15.6797 L-80.8945 -15.5742 L-81.2021 -15.3193 L-81.2021 -5.1504 L-77.1328 -5.1504 L-76.8779 -5.4404 L-76.5703 -7.6025 L-75.6387 -7.6025 L-75.6387 -4.3242 ZM-74.54 -9.2549 L-70.4883 -9.2549 L-70.4883 -8.0508 L-74.54 -8.0508 ZM-66.9463 -13.0693 L-66.2432 -13.0693 L-66.2432 -5.3525 L-65.9355 -5.0625 L-64.9688 -4.9746 L-64.9688 -4.3242 L-69.0117 -4.3242 L-69.0117 -4.9746 L-68.0625 -5.0625 L-67.7549 -5.3525 L-67.7549 -11.8652 L-69.0117 -11.8652 L-69.0117 -12.4277 ZM-66.876 -17.0684 Q-66.4365 -17.0684 -66.1333 -16.7607 Q-65.8301 -16.4531 -65.8301 -16.0225 Q-65.8301 -15.5918 -66.1333 -15.293 Q-66.4365 -14.9941 -66.876 -14.9941 Q-67.3066 -14.9941 -67.6099 -15.293 Q-67.9131 -15.5918 -67.9131 -16.0225 Q-67.9131 -16.4619 -67.6099 -16.7651 Q-67.3066 -17.0684 -66.876 -17.0684 ZM-64.0723 -4.3242 L-64.0723 -4.9746 L-63.0967 -5.0625 L-62.7891 -5.3525 L-62.7891 -11.8652 L-64.0723 -11.8652 L-64.0723 -12.4277 L-61.9805 -13.0693 L-61.2949 -13.0693 L-61.2949 -12.085 Q-60.2139 -12.6826 -59.5547 -12.9243 Q-58.8955 -13.166 -58.3945 -13.166 Q-57.2168 -13.166 -56.5928 -12.4629 Q-55.9688 -11.7598 -55.9688 -10.4238 L-55.9688 -5.3525 L-55.6611 -5.0625 L-54.6943 -4.9746 L-54.6943 -4.3242 L-58.6318 -4.3242 L-58.6318 -4.9746 L-57.7705 -5.0625 L-57.4629 -5.3525 L-57.4629 -10.1162 Q-57.4629 -11.127 -57.8804 -11.5488 Q-58.2979 -11.9707 -59.2822 -11.9707 Q-59.7129 -11.9707 -60.2139 -11.8257 Q-60.7148 -11.6807 -61.2949 -11.3818 L-61.2949 -5.3525 L-60.9873 -5.0625 L-60.126 -4.9746 L-60.126 -4.3242 ZM-52.8047 -11.9004 L-53.9385 -11.9004 L-53.9385 -12.4629 L-52.752 -12.9814 L-51.9785 -14.6602 L-51.3105 -14.6602 L-51.3105 -12.7441 L-48.5684 -12.7441 L-48.5684 -11.9004 L-51.3105 -11.9004 L-51.3105 -7.1543 Q-51.3105 -5.9854 -50.9854 -5.5854 Q-50.6602 -5.1855 -49.8164 -5.1855 Q-49.5264 -5.1855 -49.2144 -5.2207 Q-48.9023 -5.2559 -48.5684 -5.335 L-48.5684 -4.667 Q-49.1836 -4.4736 -49.7812 -4.3726 Q-50.3789 -4.2715 -50.9326 -4.2715 Q-51.9697 -4.2715 -52.3872 -4.6626 Q-52.8047 -5.0537 -52.8047 -6.0908 ZM-41.915 -9.8174 L-41.915 -10.0986 Q-41.915 -11.1885 -42.394 -11.7686 Q-42.873 -12.3486 -43.7871 -12.3486 Q-44.6836 -12.3486 -45.3384 -11.6323 Q-45.9932 -10.916 -46.0723 -9.8174 ZM-40.3066 -6.2314 L-40.3066 -5.2383 Q-41.1064 -4.7109 -41.9678 -4.4385 Q-42.8291 -4.166 -43.6992 -4.166 Q-45.4834 -4.166 -46.5952 -5.3921 Q-47.707 -6.6182 -47.707 -8.5869 Q-47.707 -10.6084 -46.5425 -11.8872 Q-45.3779 -13.166 -43.5498 -13.166 Q-42.0557 -13.166 -41.1812 -12.2124 Q-40.3066 -11.2588 -40.3066 -9.6152 Q-40.3066 -9.3955 -40.311 -9.2812 Q-40.3154 -9.167 -40.333 -9.0615 L-46.1602 -9.0615 L-46.1602 -8.8594 Q-46.1602 -7.1631 -45.3428 -6.1743 Q-44.5254 -5.1855 -43.1367 -5.1855 Q-42.4951 -5.1855 -41.8052 -5.4404 Q-41.1152 -5.6953 -40.3066 -6.2314 ZM-38.9971 -4.3242 L-38.9971 -4.9746 L-38.0215 -5.0625 L-37.7139 -5.3525 L-37.7139 -11.8652 L-38.9971 -11.8652 L-38.9971 -12.4277 L-36.9053 -13.0693 L-36.2197 -13.0693 L-36.2197 -12.085 Q-35.1387 -12.6826 -34.4795 -12.9243 Q-33.8203 -13.166 -33.3193 -13.166 Q-32.1416 -13.166 -31.5176 -12.4629 Q-30.8936 -11.7598 -30.8936 -10.4238 L-30.8936 -5.3525 L-30.5859 -5.0625 L-29.6191 -4.9746 L-29.6191 -4.3242 L-33.5566 -4.3242 L-33.5566 -4.9746 L-32.6953 -5.0625 L-32.3877 -5.3525 L-32.3877 -10.1162 Q-32.3877 -11.127 -32.8052 -11.5488 Q-33.2227 -11.9707 -34.207 -11.9707 Q-34.6377 -11.9707 -35.1387 -11.8257 Q-35.6396 -11.6807 -36.2197 -11.3818 L-36.2197 -5.3525 L-35.9121 -5.0625 L-35.0508 -4.9746 L-35.0508 -4.3242 ZM-23.1152 -12.7705 L-23.1152 -10.7314 L-24.0029 -10.7314 L-24.1436 -12.0059 Q-24.5039 -12.1992 -24.8291 -12.2959 Q-25.1543 -12.3926 -25.4795 -12.3926 Q-26.1826 -12.3926 -26.5781 -12.0498 Q-26.9736 -11.707 -26.9736 -11.0918 Q-26.9736 -10.5908 -26.6572 -10.2393 Q-26.3408 -9.8877 -25.4443 -9.457 Q-25.3037 -9.3867 -25.0137 -9.2549 Q-23.9941 -8.7891 -23.5371 -8.4111 Q-23.2031 -8.1475 -23.0273 -7.7476 Q-22.8516 -7.3477 -22.8516 -6.8643 Q-22.8516 -5.5986 -23.7437 -4.8823 Q-24.6357 -4.166 -26.2178 -4.166 Q-26.8682 -4.166 -27.4614 -4.2583 Q-28.0547 -4.3506 -28.5557 -4.5439 L-28.5557 -6.8818 L-27.6943 -6.8818 L-27.4746 -5.3525 Q-27.0967 -5.1328 -26.7144 -5.0273 Q-26.332 -4.9219 -25.9453 -4.9219 Q-25.1807 -4.9219 -24.7192 -5.3218 Q-24.2578 -5.7217 -24.2578 -6.3721 Q-24.2578 -6.917 -24.5742 -7.2729 Q-24.8906 -7.6289 -26.0859 -8.1738 Q-27.4395 -8.7803 -27.9272 -9.3164 Q-28.415 -9.8525 -28.415 -10.6436 Q-28.415 -11.8477 -27.5801 -12.5068 Q-26.7451 -13.166 -25.2246 -13.166 Q-24.6182 -13.166 -24.0952 -13.0649 Q-23.5723 -12.9639 -23.1152 -12.7705 ZM-19.415 -13.0693 L-18.7119 -13.0693 L-18.7119 -5.3525 L-18.4043 -5.0625 L-17.4375 -4.9746 L-17.4375 -4.3242 L-21.4805 -4.3242 L-21.4805 -4.9746 L-20.5312 -5.0625 L-20.2236 -5.3525 L-20.2236 -11.8652 L-21.4805 -11.8652 L-21.4805 -12.4277 ZM-19.3447 -17.0684 Q-18.9053 -17.0684 -18.6021 -16.7607 Q-18.2988 -16.4531 -18.2988 -16.0225 Q-18.2988 -15.5918 -18.6021 -15.293 Q-18.9053 -14.9941 -19.3447 -14.9941 Q-19.7754 -14.9941 -20.0786 -15.293 Q-20.3818 -15.5918 -20.3818 -16.0225 Q-20.3818 -16.4619 -20.0786 -16.7651 Q-19.7754 -17.0684 -19.3447 -17.0684 ZM-15.4951 -11.9004 L-16.6289 -11.9004 L-16.6289 -12.4629 L-15.4424 -12.9814 L-14.6689 -14.6602 L-14.001 -14.6602 L-14.001 -12.7441 L-11.2588 -12.7441 L-11.2588 -11.9004 L-14.001 -11.9004 L-14.001 -7.1543 Q-14.001 -5.9854 -13.6758 -5.5854 Q-13.3506 -5.1855 -12.5068 -5.1855 Q-12.2168 -5.1855 -11.9048 -5.2207 Q-11.5928 -5.2559 -11.2588 -5.335 L-11.2588 -4.667 Q-11.874 -4.4736 -12.4717 -4.3726 Q-13.0693 -4.2715 -13.623 -4.2715 Q-14.6602 -4.2715 -15.0776 -4.6626 Q-15.4951 -5.0537 -15.4951 -6.0908 ZM-11.083 -12.9814 L-7.1807 -12.9814 L-7.1807 -12.3135 L-8.1299 -12.2432 L-8.3496 -11.9531 L-6.1875 -6.3545 L-3.9375 -11.9531 L-4.0781 -12.2432 L-5.0537 -12.3135 L-5.0537 -12.9814 L-1.8457 -12.9814 L-1.8457 -12.3135 L-2.8916 -12.1729 L-6.4951 -3.4277 Q-7.1543 -1.8369 -7.8398 -1.1206 Q-8.5254 -0.4043 -9.3691 -0.4043 Q-9.9316 -0.4043 -10.2744 -0.6812 Q-10.6172 -0.958 -10.6172 -1.4062 Q-10.6172 -1.6699 -10.4985 -1.916 Q-10.3799 -2.1621 -10.1514 -2.3818 L-8.4199 -1.6963 Q-8.0244 -2.1182 -7.6509 -2.8125 Q-7.2773 -3.5068 -6.9609 -4.3945 L-9.9844 -12.208 L-11.083 -12.3135 ZM5.3525 -17.0684 L9.6152 -17.0684 L9.6152 -16.2949 L6.7676 -16.2949 L6.7676 -2.707 L9.6152 -2.707 L9.6152 -1.9512 L5.3525 -1.9512 ZM15.8203 -14.6602 L14.0449 -9.668 L17.6748 -9.668 ZM15.5391 -16.5498 L16.7256 -16.5498 L21.041 -5.2822 L22.1221 -5.0625 L22.1221 -4.3242 L18.0352 -4.3242 L18.0352 -5.0625 L19.1514 -5.1504 L19.2832 -5.4053 L17.9824 -8.8418 L13.7373 -8.8418 L12.4541 -5.4053 L12.6387 -5.1504 L13.8076 -5.0625 L13.8076 -4.3242 L10.2832 -4.3242 L10.2832 -5.0625 L11.3203 -5.2822 ZM22.4648 -4.3242 L22.4648 -4.9746 L23.4229 -5.0625 L23.7305 -5.3525 L23.7305 -11.8652 L22.4648 -11.8652 L22.4648 -12.4277 L24.5566 -13.0693 L25.2422 -13.0693 L25.2422 -11.3818 Q25.6816 -11.8301 26.1606 -12.2651 Q26.6396 -12.7002 27.167 -13.1221 Q27.2461 -13.1484 27.3384 -13.1572 Q27.4307 -13.166 27.6152 -13.166 Q27.8877 -13.166 28.1514 -13.1089 Q28.415 -13.0518 28.6963 -12.9287 L28.6963 -11.3818 L28.125 -11.3818 Q27.9492 -11.5928 27.7163 -11.7026 Q27.4834 -11.8125 27.2021 -11.8125 Q26.7715 -11.8125 26.2925 -11.4917 Q25.8135 -11.1709 25.2422 -10.4941 L25.2422 -5.3525 L25.5498 -5.0625 L26.8066 -4.9746 L26.8066 -4.3242 ZM31.8428 -5.1504 Q32.124 -5.1416 32.3745 -5.1372 Q32.625 -5.1328 32.8359 -5.1328 Q34.6025 -5.1328 35.4287 -5.9985 Q36.2549 -6.8643 36.2549 -8.7188 Q36.2549 -10.3975 35.521 -11.3027 Q34.7871 -12.208 33.4248 -12.208 Q33.1084 -12.208 32.7129 -12.1377 Q32.3174 -12.0674 31.8428 -11.918 ZM31.1572 -17.5693 L31.8428 -17.5693 L31.8428 -12.5332 Q32.5107 -12.8496 33.1216 -13.0078 Q33.7324 -13.166 34.3125 -13.166 Q35.9033 -13.166 36.8877 -12.0278 Q37.8721 -10.8896 37.8721 -9.0615 Q37.8721 -6.7236 36.5493 -5.5239 Q35.2266 -4.3242 32.6514 -4.3242 L30.3311 -4.3242 L30.3311 -16.3652 L28.9424 -16.3652 L28.9424 -16.9277 ZM41.0098 -6.4512 Q41.4844 -6.4512 41.814 -6.1172 Q42.1436 -5.7832 42.1436 -5.2998 Q42.1436 -4.8252 41.8096 -4.4956 Q41.4756 -4.166 41.0098 -4.166 Q40.5264 -4.166 40.1924 -4.4912 Q39.8584 -4.8164 39.8584 -5.2998 Q39.8584 -5.7744 40.1924 -6.1128 Q40.5264 -6.4512 41.0098 -6.4512 ZM51.0645 -13.166 L51.75 -13.166 L51.75 -7.207 Q51.75 -6.2227 52.1719 -5.7612 Q52.5938 -5.2998 53.4902 -5.2998 Q53.9912 -5.2998 54.5054 -5.4316 Q55.0195 -5.5635 55.582 -5.8359 L55.582 -11.9355 L54.2988 -11.9355 L54.2988 -12.498 L56.3906 -13.166 L57.0762 -13.166 L57.0762 -5.3525 L57.4014 -5.0625 L58.2451 -4.9746 L58.2451 -4.3242 L55.582 -4.3242 L55.582 -5.335 Q54.7383 -4.7285 54.022 -4.4385 Q53.3057 -4.1484 52.6641 -4.1484 Q51.4951 -4.1484 50.8755 -4.856 Q50.2559 -5.5635 50.2559 -6.8994 L50.2559 -11.9355 L48.9727 -11.9355 L48.9727 -12.498 ZM59.2822 -4.3242 L59.2822 -4.9746 L60.2578 -5.0625 L60.5654 -5.3525 L60.5654 -11.8652 L59.2822 -11.8652 L59.2822 -12.4277 L61.374 -13.0693 L62.0596 -13.0693 L62.0596 -12.085 Q63.1406 -12.6826 63.7998 -12.9243 Q64.459 -13.166 64.96 -13.166 Q66.1377 -13.166 66.7617 -12.4629 Q67.3857 -11.7598 67.3857 -10.4238 L67.3857 -5.3525 L67.6934 -5.0625 L68.6602 -4.9746 L68.6602 -4.3242 L64.7227 -4.3242 L64.7227 -4.9746 L65.584 -5.0625 L65.8916 -5.3525 L65.8916 -10.1162 Q65.8916 -11.127 65.4741 -11.5488 Q65.0566 -11.9707 64.0723 -11.9707 Q63.6416 -11.9707 63.1406 -11.8257 Q62.6396 -11.6807 62.0596 -11.3818 L62.0596 -5.3525 L62.3672 -5.0625 L63.2285 -4.9746 L63.2285 -4.3242 ZM71.666 -13.0693 L72.3691 -13.0693 L72.3691 -5.3525 L72.6768 -5.0625 L73.6436 -4.9746 L73.6436 -4.3242 L69.6006 -4.3242 L69.6006 -4.9746 L70.5498 -5.0625 L70.8574 -5.3525 L70.8574 -11.8652 L69.6006 -11.8652 L69.6006 -12.4277 ZM71.7363 -17.0684 Q72.1758 -17.0684 72.479 -16.7607 Q72.7822 -16.4531 72.7822 -16.0225 Q72.7822 -15.5918 72.479 -15.293 Q72.1758 -14.9941 71.7363 -14.9941 Q71.3057 -14.9941 71.0024 -15.293 Q70.6992 -15.5918 70.6992 -16.0225 Q70.6992 -16.4619 71.0024 -16.7651 Q71.3057 -17.0684 71.7363 -17.0684 ZM75.5859 -11.9004 L74.4521 -11.9004 L74.4521 -12.4629 L75.6387 -12.9814 L76.4121 -14.6602 L77.0801 -14.6602 L77.0801 -12.7441 L79.8223 -12.7441 L79.8223 -11.9004 L77.0801 -11.9004 L77.0801 -7.1543 Q77.0801 -5.9854 77.4053 -5.5854 Q77.7305 -5.1855 78.5742 -5.1855 Q78.8643 -5.1855 79.1763 -5.2207 Q79.4883 -5.2559 79.8223 -5.335 L79.8223 -4.667 Q79.207 -4.4736 78.6094 -4.3726 Q78.0117 -4.2715 77.458 -4.2715 Q76.4209 -4.2715 76.0034 -4.6626 Q75.5859 -5.0537 75.5859 -6.0908 ZM86.2119 -12.7705 L86.2119 -10.7314 L85.3242 -10.7314 L85.1836 -12.0059 Q84.8232 -12.1992 84.498 -12.2959 Q84.1729 -12.3926 83.8477 -12.3926 Q83.1445 -12.3926 82.749 -12.0498 Q82.3535 -11.707 82.3535 -11.0918 Q82.3535 -10.5908 82.6699 -10.2393 Q82.9863 -9.8877 83.8828 -9.457 Q84.0234 -9.3867 84.3135 -9.2549 Q85.333 -8.7891 85.79 -8.4111 Q86.124 -8.1475 86.2998 -7.7476 Q86.4756 -7.3477 86.4756 -6.8643 Q86.4756 -5.5986 85.5835 -4.8823 Q84.6914 -4.166 83.1094 -4.166 Q82.459 -4.166 81.8657 -4.2583 Q81.2725 -4.3506 80.7715 -4.5439 L80.7715 -6.8818 L81.6328 -6.8818 L81.8525 -5.3525 Q82.2305 -5.1328 82.6128 -5.0273 Q82.9951 -4.9219 83.3818 -4.9219 Q84.1465 -4.9219 84.6079 -5.3218 Q85.0693 -5.7217 85.0693 -6.3721 Q85.0693 -6.917 84.7529 -7.2729 Q84.4365 -7.6289 83.2412 -8.1738 Q81.8877 -8.7803 81.3999 -9.3164 Q80.9121 -9.8525 80.9121 -10.6436 Q80.9121 -11.8477 81.7471 -12.5068 Q82.582 -13.166 84.1025 -13.166 Q84.709 -13.166 85.2319 -13.0649 Q85.7549 -12.9639 86.2119 -12.7705 ZM88.04 -17.0684 L92.2939 -17.0684 L92.2939 -1.9336 L88.04 -1.9336 L88.04 -2.707 L90.8877 -2.707 L90.8877 -16.2949 L88.04 -16.2949 Z"
         id="path83" />
    </g>
    <g
       style="fill:rgb(38,38,38); text-rendering:geometricPrecision; color-interpolation:linearRGB; color-rendering:optimizeQuality; image-rendering:optimizeQuality; stroke:rgb(38,38,38);"
       id="g85">
      <line
         y2="40"
         style="fill:none;"
         x1="101"
         x2="101"
         y1="470"
         id="line87" />
      <line
         y2="470"
         style="fill:none;"
         x1="101"
         x2="107.04"
         y1="470"
         id="line89" />
      <line
         y2="422.2222"
         style="fill:none;"
         x1="101"
         x2="107.04"
         y1="422.2222"
         id="line91" />
      <line
         y2="374.4445"
         style="fill:none;"
         x1="101"
         x2="107.04"
         y1="374.4445"
         id="line93" />
      <line
         y2="326.6667"
         style="fill:none;"
         x1="101"
         x2="107.04"
         y1="326.6667"
         id="line95" />
      <line
         y2="278.8889"
         style="fill:none;"
         x1="101"
         x2="107.04"
         y1="278.8889"
         id="line97" />
      <line
         y2="231.1111"
         style="fill:none;"
         x1="101"
         x2="107.04"
         y1="231.1111"
         id="line99" />
      <line
         y2="183.3333"
         style="fill:none;"
         x1="101"
         x2="107.04"
         y1="183.3333"
         id="line101" />
      <line
         y2="135.5556"
         style="fill:none;"
         x1="101"
         x2="107.04"
         y1="135.5556"
         id="line103" />
      <line
         y2="87.7778"
         style="fill:none;"
         x1="101"
         x2="107.04"
         y1="87.7778"
         id="line105" />
      <line
         y2="40"
         style="fill:none;"
         x1="101"
         x2="107.04"
         y1="40"
         id="line107" />
    </g>
    <g
       transform="translate(95.8001,470)"
       style="font-size:16px; fill:rgb(38,38,38); text-rendering:geometricPrecision; color-rendering:optimizeQuality; image-rendering:optimizeQuality; font-family:'Charter'; color-interpolation:linearRGB; stroke:rgb(38,38,38);"
       id="g109">
      <path
         style="stroke:none;"
         d="M-4.4531 -3.7617 Q-5.5703 -3.7617 -6.1562 -2.5312 Q-6.7422 -1.3008 -6.7422 1.0586 Q-6.7422 3.4023 -6.1562 4.6211 Q-5.5703 5.8398 -4.4531 5.8398 Q-3.3359 5.8398 -2.7578 4.6172 Q-2.1797 3.3945 -2.1797 1.043 Q-2.1797 -1.3164 -2.7578 -2.5391 Q-3.3359 -3.7617 -4.4531 -3.7617 ZM-4.4531 -4.5117 Q-2.6875 -4.5117 -1.6719 -3.0273 Q-0.6562 -1.543 -0.6562 1.043 Q-0.6562 3.6367 -1.6758 5.125 Q-2.6953 6.6133 -4.4531 6.6133 Q-6.2031 6.6133 -7.2227 5.125 Q-8.2422 3.6367 -8.2422 1.043 Q-8.2422 -1.543 -7.2266 -3.0273 Q-6.2109 -4.5117 -4.4531 -4.5117 Z"
         id="path111" />
    </g>
    <g
       transform="translate(95.8001,422.2222)"
       style="font-size:16px; fill:rgb(38,38,38); text-rendering:geometricPrecision; color-rendering:optimizeQuality; image-rendering:optimizeQuality; font-family:'Charter'; color-interpolation:linearRGB; stroke:rgb(38,38,38);"
       id="g113">
      <path
         style="stroke:none;"
         d="M-25.0781 -4.3164 L-19.3516 -4.3164 L-19.3516 -3.0664 L-24.0859 -3.0664 L-24.0859 0.1289 Q-23.6328 0.0039 -23.2031 -0.0625 Q-22.7734 -0.1289 -22.375 -0.1289 Q-20.7891 -0.1289 -19.832 0.7148 Q-18.875 1.5586 -18.875 2.9492 Q-18.875 4.543 -20.0547 5.5508 Q-21.2344 6.5586 -23.1406 6.5586 Q-24.3125 6.5586 -25.1055 6.1172 Q-25.8984 5.6758 -25.8984 5.0586 Q-25.8984 4.6836 -25.6367 4.4453 Q-25.375 4.207 -24.9688 4.207 Q-24.8984 4.207 -24.8047 4.2188 Q-24.7109 4.2305 -24.5781 4.2617 L-23.9453 5.6367 Q-23.6797 5.7305 -23.4102 5.7773 Q-23.1406 5.8242 -22.875 5.8242 Q-21.7578 5.8242 -21.0508 5.1094 Q-20.3438 4.3945 -20.3438 3.2695 Q-20.3438 2.0508 -21.1602 1.457 Q-21.9766 0.8633 -23.6719 0.8633 Q-24.1172 0.8633 -24.4648 0.8867 Q-24.8125 0.9102 -25.0781 0.9648 ZM-13.3516 -3.7617 Q-14.4688 -3.7617 -15.0547 -2.5312 Q-15.6406 -1.3008 -15.6406 1.0586 Q-15.6406 3.4023 -15.0547 4.6211 Q-14.4688 5.8398 -13.3516 5.8398 Q-12.2344 5.8398 -11.6562 4.6172 Q-11.0781 3.3945 -11.0781 1.043 Q-11.0781 -1.3164 -11.6562 -2.5391 Q-12.2344 -3.7617 -13.3516 -3.7617 ZM-13.3516 -4.5117 Q-11.5859 -4.5117 -10.5703 -3.0273 Q-9.5547 -1.543 -9.5547 1.043 Q-9.5547 3.6367 -10.5742 5.125 Q-11.5938 6.6133 -13.3516 6.6133 Q-15.1016 6.6133 -16.1211 5.125 Q-17.1406 3.6367 -17.1406 1.043 Q-17.1406 -1.543 -16.125 -3.0273 Q-15.1094 -4.5117 -13.3516 -4.5117 ZM-4.4531 -3.7617 Q-5.5703 -3.7617 -6.1562 -2.5312 Q-6.7422 -1.3008 -6.7422 1.0586 Q-6.7422 3.4023 -6.1562 4.6211 Q-5.5703 5.8398 -4.4531 5.8398 Q-3.3359 5.8398 -2.7578 4.6172 Q-2.1797 3.3945 -2.1797 1.043 Q-2.1797 -1.3164 -2.7578 -2.5391 Q-3.3359 -3.7617 -4.4531 -3.7617 ZM-4.4531 -4.5117 Q-2.6875 -4.5117 -1.6719 -3.0273 Q-0.6562 -1.543 -0.6562 1.043 Q-0.6562 3.6367 -1.6758 5.125 Q-2.6953 6.6133 -4.4531 6.6133 Q-6.2031 6.6133 -7.2227 5.125 Q-8.2422 3.6367 -8.2422 1.043 Q-8.2422 -1.543 -7.2266 -3.0273 Q-6.2109 -4.5117 -4.4531 -4.5117 Z"
         id="path115" />
    </g>
    <g
       transform="translate(95.8001,374.4445)"
       style="font-size:16px; fill:rgb(38,38,38); text-rendering:geometricPrecision; color-rendering:optimizeQuality; image-rendering:optimizeQuality; font-family:'Charter'; color-interpolation:linearRGB; stroke:rgb(38,38,38);"
       id="g117">
      <path
         style="stroke:none;"
         d="M-30.6172 -4.5117 L-30.1719 -4.5117 L-30.1719 5.4258 L-29.9766 5.668 L-28.25 5.7461 L-28.25 6.418 L-33.6094 6.418 L-33.6094 5.7305 L-31.7734 5.6367 L-31.5781 5.3633 L-31.5781 -3.2461 L-34.0859 -2.8008 L-34.0859 -3.4727 ZM-22.25 -3.7617 Q-23.3672 -3.7617 -23.9531 -2.5312 Q-24.5391 -1.3008 -24.5391 1.0586 Q-24.5391 3.4023 -23.9531 4.6211 Q-23.3672 5.8398 -22.25 5.8398 Q-21.1328 5.8398 -20.5547 4.6172 Q-19.9766 3.3945 -19.9766 1.043 Q-19.9766 -1.3164 -20.5547 -2.5391 Q-21.1328 -3.7617 -22.25 -3.7617 ZM-22.25 -4.5117 Q-20.4844 -4.5117 -19.4688 -3.0273 Q-18.4531 -1.543 -18.4531 1.043 Q-18.4531 3.6367 -19.4727 5.125 Q-20.4922 6.6133 -22.25 6.6133 Q-24 6.6133 -25.0195 5.125 Q-26.0391 3.6367 -26.0391 1.043 Q-26.0391 -1.543 -25.0234 -3.0273 Q-24.0078 -4.5117 -22.25 -4.5117 ZM-13.3516 -3.7617 Q-14.4688 -3.7617 -15.0547 -2.5312 Q-15.6406 -1.3008 -15.6406 1.0586 Q-15.6406 3.4023 -15.0547 4.6211 Q-14.4688 5.8398 -13.3516 5.8398 Q-12.2344 5.8398 -11.6562 4.6172 Q-11.0781 3.3945 -11.0781 1.043 Q-11.0781 -1.3164 -11.6562 -2.5391 Q-12.2344 -3.7617 -13.3516 -3.7617 ZM-13.3516 -4.5117 Q-11.5859 -4.5117 -10.5703 -3.0273 Q-9.5547 -1.543 -9.5547 1.043 Q-9.5547 3.6367 -10.5742 5.125 Q-11.5938 6.6133 -13.3516 6.6133 Q-15.1016 6.6133 -16.1211 5.125 Q-17.1406 3.6367 -17.1406 1.043 Q-17.1406 -1.543 -16.125 -3.0273 Q-15.1094 -4.5117 -13.3516 -4.5117 ZM-4.4531 -3.7617 Q-5.5703 -3.7617 -6.1562 -2.5312 Q-6.7422 -1.3008 -6.7422 1.0586 Q-6.7422 3.4023 -6.1562 4.6211 Q-5.5703 5.8398 -4.4531 5.8398 Q-3.3359 5.8398 -2.7578 4.6172 Q-2.1797 3.3945 -2.1797 1.043 Q-2.1797 -1.3164 -2.7578 -2.5391 Q-3.3359 -3.7617 -4.4531 -3.7617 ZM-4.4531 -4.5117 Q-2.6875 -4.5117 -1.6719 -3.0273 Q-0.6562 -1.543 -0.6562 1.043 Q-0.6562 3.6367 -1.6758 5.125 Q-2.6953 6.6133 -4.4531 6.6133 Q-6.2031 6.6133 -7.2227 5.125 Q-8.2422 3.6367 -8.2422 1.043 Q-8.2422 -1.543 -7.2266 -3.0273 Q-6.2109 -4.5117 -4.4531 -4.5117 Z"
         id="path119" />
    </g>
    <g
       transform="translate(95.8001,326.6667)"
       style="font-size:16px; fill:rgb(38,38,38); text-rendering:geometricPrecision; color-rendering:optimizeQuality; image-rendering:optimizeQuality; font-family:'Charter'; color-interpolation:linearRGB; stroke:rgb(38,38,38);"
       id="g121">
      <path
         style="stroke:none;"
         d="M-30.6172 -4.5117 L-30.1719 -4.5117 L-30.1719 5.4258 L-29.9766 5.668 L-28.25 5.7461 L-28.25 6.418 L-33.6094 6.418 L-33.6094 5.7305 L-31.7734 5.6367 L-31.5781 5.3633 L-31.5781 -3.2461 L-34.0859 -2.8008 L-34.0859 -3.4727 ZM-25.0781 -4.3164 L-19.3516 -4.3164 L-19.3516 -3.0664 L-24.0859 -3.0664 L-24.0859 0.1289 Q-23.6328 0.0039 -23.2031 -0.0625 Q-22.7734 -0.1289 -22.375 -0.1289 Q-20.7891 -0.1289 -19.832 0.7148 Q-18.875 1.5586 -18.875 2.9492 Q-18.875 4.543 -20.0547 5.5508 Q-21.2344 6.5586 -23.1406 6.5586 Q-24.3125 6.5586 -25.1055 6.1172 Q-25.8984 5.6758 -25.8984 5.0586 Q-25.8984 4.6836 -25.6367 4.4453 Q-25.375 4.207 -24.9688 4.207 Q-24.8984 4.207 -24.8047 4.2188 Q-24.7109 4.2305 -24.5781 4.2617 L-23.9453 5.6367 Q-23.6797 5.7305 -23.4102 5.7773 Q-23.1406 5.8242 -22.875 5.8242 Q-21.7578 5.8242 -21.0508 5.1094 Q-20.3438 4.3945 -20.3438 3.2695 Q-20.3438 2.0508 -21.1602 1.457 Q-21.9766 0.8633 -23.6719 0.8633 Q-24.1172 0.8633 -24.4648 0.8867 Q-24.8125 0.9102 -25.0781 0.9648 ZM-13.3516 -3.7617 Q-14.4688 -3.7617 -15.0547 -2.5312 Q-15.6406 -1.3008 -15.6406 1.0586 Q-15.6406 3.4023 -15.0547 4.6211 Q-14.4688 5.8398 -13.3516 5.8398 Q-12.2344 5.8398 -11.6562 4.6172 Q-11.0781 3.3945 -11.0781 1.043 Q-11.0781 -1.3164 -11.6562 -2.5391 Q-12.2344 -3.7617 -13.3516 -3.7617 ZM-13.3516 -4.5117 Q-11.5859 -4.5117 -10.5703 -3.0273 Q-9.5547 -1.543 -9.5547 1.043 Q-9.5547 3.6367 -10.5742 5.125 Q-11.5938 6.6133 -13.3516 6.6133 Q-15.1016 6.6133 -16.1211 5.125 Q-17.1406 3.6367 -17.1406 1.043 Q-17.1406 -1.543 -16.125 -3.0273 Q-15.1094 -4.5117 -13.3516 -4.5117 ZM-4.4531 -3.7617 Q-5.5703 -3.7617 -6.1562 -2.5312 Q-6.7422 -1.3008 -6.7422 1.0586 Q-6.7422 3.4023 -6.1562 4.6211 Q-5.5703 5.8398 -4.4531 5.8398 Q-3.3359 5.8398 -2.7578 4.6172 Q-2.1797 3.3945 -2.1797 1.043 Q-2.1797 -1.3164 -2.7578 -2.5391 Q-3.3359 -3.7617 -4.4531 -3.7617 ZM-4.4531 -4.5117 Q-2.6875 -4.5117 -1.6719 -3.0273 Q-0.6562 -1.543 -0.6562 1.043 Q-0.6562 3.6367 -1.6758 5.125 Q-2.6953 6.6133 -4.4531 6.6133 Q-6.2031 6.6133 -7.2227 5.125 Q-8.2422 3.6367 -8.2422 1.043 Q-8.2422 -1.543 -7.2266 -3.0273 Q-6.2109 -4.5117 -4.4531 -4.5117 Z"
         id="path123" />
    </g>
    <g
       transform="translate(95.8001,278.8889)"
       style="font-size:16px; fill:rgb(38,38,38); text-rendering:geometricPrecision; color-rendering:optimizeQuality; image-rendering:optimizeQuality; font-family:'Charter'; color-interpolation:linearRGB; stroke:rgb(38,38,38);"
       id="g125">
      <path
         style="stroke:none;"
         d="M-33.3359 5.1523 L-28.5234 5.1523 L-28.2344 3.793 L-27.5156 3.793 L-27.5156 6.418 L-34.9219 6.418 L-34.9219 5.4102 Q-31.4219 2.5664 -30.418 1.2617 Q-29.4141 -0.043 -29.4141 -1.2773 Q-29.4141 -2.4102 -29.9805 -3.0508 Q-30.5469 -3.6914 -31.5469 -3.6914 Q-31.9219 -3.6914 -32.2734 -3.5977 Q-32.625 -3.5039 -32.9688 -3.3086 L-32.9688 -1.5977 Q-33.1406 -1.4805 -33.3203 -1.418 Q-33.5 -1.3555 -33.6875 -1.3555 Q-34.1016 -1.3555 -34.3438 -1.5977 Q-34.5859 -1.8398 -34.5859 -2.2539 Q-34.5859 -3.1523 -33.5898 -3.832 Q-32.5938 -4.5117 -31.1953 -4.5117 Q-29.6719 -4.5117 -28.7695 -3.6875 Q-27.8672 -2.8633 -27.8672 -1.4883 Q-27.8672 -0.2227 -28.9648 1.1602 Q-30.0625 2.543 -33.3359 5.1523 ZM-22.25 -3.7617 Q-23.3672 -3.7617 -23.9531 -2.5312 Q-24.5391 -1.3008 -24.5391 1.0586 Q-24.5391 3.4023 -23.9531 4.6211 Q-23.3672 5.8398 -22.25 5.8398 Q-21.1328 5.8398 -20.5547 4.6172 Q-19.9766 3.3945 -19.9766 1.043 Q-19.9766 -1.3164 -20.5547 -2.5391 Q-21.1328 -3.7617 -22.25 -3.7617 ZM-22.25 -4.5117 Q-20.4844 -4.5117 -19.4688 -3.0273 Q-18.4531 -1.543 -18.4531 1.043 Q-18.4531 3.6367 -19.4727 5.125 Q-20.4922 6.6133 -22.25 6.6133 Q-24 6.6133 -25.0195 5.125 Q-26.0391 3.6367 -26.0391 1.043 Q-26.0391 -1.543 -25.0234 -3.0273 Q-24.0078 -4.5117 -22.25 -4.5117 ZM-13.3516 -3.7617 Q-14.4688 -3.7617 -15.0547 -2.5312 Q-15.6406 -1.3008 -15.6406 1.0586 Q-15.6406 3.4023 -15.0547 4.6211 Q-14.4688 5.8398 -13.3516 5.8398 Q-12.2344 5.8398 -11.6562 4.6172 Q-11.0781 3.3945 -11.0781 1.043 Q-11.0781 -1.3164 -11.6562 -2.5391 Q-12.2344 -3.7617 -13.3516 -3.7617 ZM-13.3516 -4.5117 Q-11.5859 -4.5117 -10.5703 -3.0273 Q-9.5547 -1.543 -9.5547 1.043 Q-9.5547 3.6367 -10.5742 5.125 Q-11.5938 6.6133 -13.3516 6.6133 Q-15.1016 6.6133 -16.1211 5.125 Q-17.1406 3.6367 -17.1406 1.043 Q-17.1406 -1.543 -16.125 -3.0273 Q-15.1094 -4.5117 -13.3516 -4.5117 ZM-4.4531 -3.7617 Q-5.5703 -3.7617 -6.1562 -2.5312 Q-6.7422 -1.3008 -6.7422 1.0586 Q-6.7422 3.4023 -6.1562 4.6211 Q-5.5703 5.8398 -4.4531 5.8398 Q-3.3359 5.8398 -2.7578 4.6172 Q-2.1797 3.3945 -2.1797 1.043 Q-2.1797 -1.3164 -2.7578 -2.5391 Q-3.3359 -3.7617 -4.4531 -3.7617 ZM-4.4531 -4.5117 Q-2.6875 -4.5117 -1.6719 -3.0273 Q-0.6562 -1.543 -0.6562 1.043 Q-0.6562 3.6367 -1.6758 5.125 Q-2.6953 6.6133 -4.4531 6.6133 Q-6.2031 6.6133 -7.2227 5.125 Q-8.2422 3.6367 -8.2422 1.043 Q-8.2422 -1.543 -7.2266 -3.0273 Q-6.2109 -4.5117 -4.4531 -4.5117 Z"
         id="path127" />
    </g>
    <g
       transform="translate(95.8001,231.1111)"
       style="font-size:16px; fill:rgb(38,38,38); text-rendering:geometricPrecision; color-rendering:optimizeQuality; image-rendering:optimizeQuality; font-family:'Charter'; color-interpolation:linearRGB; stroke:rgb(38,38,38);"
       id="g129">
      <path
         style="stroke:none;"
         d="M-33.3359 5.1523 L-28.5234 5.1523 L-28.2344 3.793 L-27.5156 3.793 L-27.5156 6.418 L-34.9219 6.418 L-34.9219 5.4102 Q-31.4219 2.5664 -30.418 1.2617 Q-29.4141 -0.043 -29.4141 -1.2773 Q-29.4141 -2.4102 -29.9805 -3.0508 Q-30.5469 -3.6914 -31.5469 -3.6914 Q-31.9219 -3.6914 -32.2734 -3.5977 Q-32.625 -3.5039 -32.9688 -3.3086 L-32.9688 -1.5977 Q-33.1406 -1.4805 -33.3203 -1.418 Q-33.5 -1.3555 -33.6875 -1.3555 Q-34.1016 -1.3555 -34.3438 -1.5977 Q-34.5859 -1.8398 -34.5859 -2.2539 Q-34.5859 -3.1523 -33.5898 -3.832 Q-32.5938 -4.5117 -31.1953 -4.5117 Q-29.6719 -4.5117 -28.7695 -3.6875 Q-27.8672 -2.8633 -27.8672 -1.4883 Q-27.8672 -0.2227 -28.9648 1.1602 Q-30.0625 2.543 -33.3359 5.1523 ZM-25.0781 -4.3164 L-19.3516 -4.3164 L-19.3516 -3.0664 L-24.0859 -3.0664 L-24.0859 0.1289 Q-23.6328 0.0039 -23.2031 -0.0625 Q-22.7734 -0.1289 -22.375 -0.1289 Q-20.7891 -0.1289 -19.832 0.7148 Q-18.875 1.5586 -18.875 2.9492 Q-18.875 4.543 -20.0547 5.5508 Q-21.2344 6.5586 -23.1406 6.5586 Q-24.3125 6.5586 -25.1055 6.1172 Q-25.8984 5.6758 -25.8984 5.0586 Q-25.8984 4.6836 -25.6367 4.4453 Q-25.375 4.207 -24.9688 4.207 Q-24.8984 4.207 -24.8047 4.2188 Q-24.7109 4.2305 -24.5781 4.2617 L-23.9453 5.6367 Q-23.6797 5.7305 -23.4102 5.7773 Q-23.1406 5.8242 -22.875 5.8242 Q-21.7578 5.8242 -21.0508 5.1094 Q-20.3438 4.3945 -20.3438 3.2695 Q-20.3438 2.0508 -21.1602 1.457 Q-21.9766 0.8633 -23.6719 0.8633 Q-24.1172 0.8633 -24.4648 0.8867 Q-24.8125 0.9102 -25.0781 0.9648 ZM-13.3516 -3.7617 Q-14.4688 -3.7617 -15.0547 -2.5312 Q-15.6406 -1.3008 -15.6406 1.0586 Q-15.6406 3.4023 -15.0547 4.6211 Q-14.4688 5.8398 -13.3516 5.8398 Q-12.2344 5.8398 -11.6562 4.6172 Q-11.0781 3.3945 -11.0781 1.043 Q-11.0781 -1.3164 -11.6562 -2.5391 Q-12.2344 -3.7617 -13.3516 -3.7617 ZM-13.3516 -4.5117 Q-11.5859 -4.5117 -10.5703 -3.0273 Q-9.5547 -1.543 -9.5547 1.043 Q-9.5547 3.6367 -10.5742 5.125 Q-11.5938 6.6133 -13.3516 6.6133 Q-15.1016 6.6133 -16.1211 5.125 Q-17.1406 3.6367 -17.1406 1.043 Q-17.1406 -1.543 -16.125 -3.0273 Q-15.1094 -4.5117 -13.3516 -4.5117 ZM-4.4531 -3.7617 Q-5.5703 -3.7617 -6.1562 -2.5312 Q-6.7422 -1.3008 -6.7422 1.0586 Q-6.7422 3.4023 -6.1562 4.6211 Q-5.5703 5.8398 -4.4531 5.8398 Q-3.3359 5.8398 -2.7578 4.6172 Q-2.1797 3.3945 -2.1797 1.043 Q-2.1797 -1.3164 -2.7578 -2.5391 Q-3.3359 -3.7617 -4.4531 -3.7617 ZM-4.4531 -4.5117 Q-2.6875 -4.5117 -1.6719 -3.0273 Q-0.6562 -1.543 -0.6562 1.043 Q-0.6562 3.6367 -1.6758 5.125 Q-2.6953 6.6133 -4.4531 6.6133 Q-6.2031 6.6133 -7.2227 5.125 Q-8.2422 3.6367 -8.2422 1.043 Q-8.2422 -1.543 -7.2266 -3.0273 Q-6.2109 -4.5117 -4.4531 -4.5117 Z"
         id="path131" />
    </g>
    <g
       transform="translate(95.8001,183.3333)"
       style="font-size:16px; fill:rgb(38,38,38); text-rendering:geometricPrecision; color-rendering:optimizeQuality; image-rendering:optimizeQuality; font-family:'Charter'; color-interpolation:linearRGB; stroke:rgb(38,38,38);"
       id="g133">
      <path
         style="stroke:none;"
         d="M-30.5234 0.7695 Q-29.2109 0.8633 -28.4648 1.5508 Q-27.7188 2.2383 -27.7188 3.3477 Q-27.7188 4.7461 -28.8555 5.6719 Q-29.9922 6.5977 -31.7734 6.5977 Q-33.0781 6.5977 -34.0078 6.0586 Q-34.9375 5.5195 -34.9375 4.832 Q-34.9375 4.4883 -34.6797 4.2539 Q-34.4219 4.0195 -34.0391 4.0195 Q-33.9062 4.0195 -33.7891 4.0391 Q-33.6719 4.0586 -33.5625 4.0977 L-33.0625 5.457 Q-32.7422 5.6523 -32.4023 5.7461 Q-32.0625 5.8398 -31.7031 5.8398 Q-30.625 5.8398 -29.9102 5.1172 Q-29.1953 4.3945 -29.1953 3.3164 Q-29.1953 2.3555 -29.8086 1.8359 Q-30.4219 1.3164 -31.5625 1.3164 Q-31.7812 1.3164 -31.9961 1.332 Q-32.2109 1.3477 -32.4062 1.3789 L-32.4062 0.4336 Q-32.3516 0.4336 -32.2422 0.4414 Q-32.1328 0.4492 -32.0703 0.4492 Q-30.8828 0.4492 -30.2383 -0.0898 Q-29.5938 -0.6289 -29.5938 -1.6133 Q-29.5938 -2.5586 -30.1484 -3.125 Q-30.7031 -3.6914 -31.625 -3.6914 Q-32.0547 -3.6914 -32.4297 -3.5781 Q-32.8047 -3.4648 -33.1484 -3.2305 L-33.1484 -1.7227 Q-33.2891 -1.6211 -33.4492 -1.5703 Q-33.6094 -1.5195 -33.8047 -1.5195 Q-34.1875 -1.5195 -34.4258 -1.7578 Q-34.6641 -1.9961 -34.6641 -2.3789 Q-34.6641 -3.2383 -33.6797 -3.875 Q-32.6953 -4.5117 -31.2891 -4.5117 Q-29.8594 -4.5117 -29 -3.7773 Q-28.1406 -3.043 -28.1406 -1.8242 Q-28.1406 -0.8867 -28.75 -0.2266 Q-29.3594 0.4336 -30.5234 0.7695 ZM-22.25 -3.7617 Q-23.3672 -3.7617 -23.9531 -2.5312 Q-24.5391 -1.3008 -24.5391 1.0586 Q-24.5391 3.4023 -23.9531 4.6211 Q-23.3672 5.8398 -22.25 5.8398 Q-21.1328 5.8398 -20.5547 4.6172 Q-19.9766 3.3945 -19.9766 1.043 Q-19.9766 -1.3164 -20.5547 -2.5391 Q-21.1328 -3.7617 -22.25 -3.7617 ZM-22.25 -4.5117 Q-20.4844 -4.5117 -19.4688 -3.0273 Q-18.4531 -1.543 -18.4531 1.043 Q-18.4531 3.6367 -19.4727 5.125 Q-20.4922 6.6133 -22.25 6.6133 Q-24 6.6133 -25.0195 5.125 Q-26.0391 3.6367 -26.0391 1.043 Q-26.0391 -1.543 -25.0234 -3.0273 Q-24.0078 -4.5117 -22.25 -4.5117 ZM-13.3516 -3.7617 Q-14.4688 -3.7617 -15.0547 -2.5312 Q-15.6406 -1.3008 -15.6406 1.0586 Q-15.6406 3.4023 -15.0547 4.6211 Q-14.4688 5.8398 -13.3516 5.8398 Q-12.2344 5.8398 -11.6562 4.6172 Q-11.0781 3.3945 -11.0781 1.043 Q-11.0781 -1.3164 -11.6562 -2.5391 Q-12.2344 -3.7617 -13.3516 -3.7617 ZM-13.3516 -4.5117 Q-11.5859 -4.5117 -10.5703 -3.0273 Q-9.5547 -1.543 -9.5547 1.043 Q-9.5547 3.6367 -10.5742 5.125 Q-11.5938 6.6133 -13.3516 6.6133 Q-15.1016 6.6133 -16.1211 5.125 Q-17.1406 3.6367 -17.1406 1.043 Q-17.1406 -1.543 -16.125 -3.0273 Q-15.1094 -4.5117 -13.3516 -4.5117 ZM-4.4531 -3.7617 Q-5.5703 -3.7617 -6.1562 -2.5312 Q-6.7422 -1.3008 -6.7422 1.0586 Q-6.7422 3.4023 -6.1562 4.6211 Q-5.5703 5.8398 -4.4531 5.8398 Q-3.3359 5.8398 -2.7578 4.6172 Q-2.1797 3.3945 -2.1797 1.043 Q-2.1797 -1.3164 -2.7578 -2.5391 Q-3.3359 -3.7617 -4.4531 -3.7617 ZM-4.4531 -4.5117 Q-2.6875 -4.5117 -1.6719 -3.0273 Q-0.6562 -1.543 -0.6562 1.043 Q-0.6562 3.6367 -1.6758 5.125 Q-2.6953 6.6133 -4.4531 6.6133 Q-6.2031 6.6133 -7.2227 5.125 Q-8.2422 3.6367 -8.2422 1.043 Q-8.2422 -1.543 -7.2266 -3.0273 Q-6.2109 -4.5117 -4.4531 -4.5117 Z"
         id="path135" />
    </g>
    <g
       transform="translate(95.8001,135.5556)"
       style="font-size:16px; fill:rgb(38,38,38); text-rendering:geometricPrecision; color-rendering:optimizeQuality; image-rendering:optimizeQuality; font-family:'Charter'; color-interpolation:linearRGB; stroke:rgb(38,38,38);"
       id="g137">
      <path
         style="stroke:none;"
         d="M-30.5234 0.7695 Q-29.2109 0.8633 -28.4648 1.5508 Q-27.7188 2.2383 -27.7188 3.3477 Q-27.7188 4.7461 -28.8555 5.6719 Q-29.9922 6.5977 -31.7734 6.5977 Q-33.0781 6.5977 -34.0078 6.0586 Q-34.9375 5.5195 -34.9375 4.832 Q-34.9375 4.4883 -34.6797 4.2539 Q-34.4219 4.0195 -34.0391 4.0195 Q-33.9062 4.0195 -33.7891 4.0391 Q-33.6719 4.0586 -33.5625 4.0977 L-33.0625 5.457 Q-32.7422 5.6523 -32.4023 5.7461 Q-32.0625 5.8398 -31.7031 5.8398 Q-30.625 5.8398 -29.9102 5.1172 Q-29.1953 4.3945 -29.1953 3.3164 Q-29.1953 2.3555 -29.8086 1.8359 Q-30.4219 1.3164 -31.5625 1.3164 Q-31.7812 1.3164 -31.9961 1.332 Q-32.2109 1.3477 -32.4062 1.3789 L-32.4062 0.4336 Q-32.3516 0.4336 -32.2422 0.4414 Q-32.1328 0.4492 -32.0703 0.4492 Q-30.8828 0.4492 -30.2383 -0.0898 Q-29.5938 -0.6289 -29.5938 -1.6133 Q-29.5938 -2.5586 -30.1484 -3.125 Q-30.7031 -3.6914 -31.625 -3.6914 Q-32.0547 -3.6914 -32.4297 -3.5781 Q-32.8047 -3.4648 -33.1484 -3.2305 L-33.1484 -1.7227 Q-33.2891 -1.6211 -33.4492 -1.5703 Q-33.6094 -1.5195 -33.8047 -1.5195 Q-34.1875 -1.5195 -34.4258 -1.7578 Q-34.6641 -1.9961 -34.6641 -2.3789 Q-34.6641 -3.2383 -33.6797 -3.875 Q-32.6953 -4.5117 -31.2891 -4.5117 Q-29.8594 -4.5117 -29 -3.7773 Q-28.1406 -3.043 -28.1406 -1.8242 Q-28.1406 -0.8867 -28.75 -0.2266 Q-29.3594 0.4336 -30.5234 0.7695 ZM-25.0781 -4.3164 L-19.3516 -4.3164 L-19.3516 -3.0664 L-24.0859 -3.0664 L-24.0859 0.1289 Q-23.6328 0.0039 -23.2031 -0.0625 Q-22.7734 -0.1289 -22.375 -0.1289 Q-20.7891 -0.1289 -19.832 0.7148 Q-18.875 1.5586 -18.875 2.9492 Q-18.875 4.543 -20.0547 5.5508 Q-21.2344 6.5586 -23.1406 6.5586 Q-24.3125 6.5586 -25.1055 6.1172 Q-25.8984 5.6758 -25.8984 5.0586 Q-25.8984 4.6836 -25.6367 4.4453 Q-25.375 4.207 -24.9688 4.207 Q-24.8984 4.207 -24.8047 4.2188 Q-24.7109 4.2305 -24.5781 4.2617 L-23.9453 5.6367 Q-23.6797 5.7305 -23.4102 5.7773 Q-23.1406 5.8242 -22.875 5.8242 Q-21.7578 5.8242 -21.0508 5.1094 Q-20.3438 4.3945 -20.3438 3.2695 Q-20.3438 2.0508 -21.1602 1.457 Q-21.9766 0.8633 -23.6719 0.8633 Q-24.1172 0.8633 -24.4648 0.8867 Q-24.8125 0.9102 -25.0781 0.9648 ZM-13.3516 -3.7617 Q-14.4688 -3.7617 -15.0547 -2.5312 Q-15.6406 -1.3008 -15.6406 1.0586 Q-15.6406 3.4023 -15.0547 4.6211 Q-14.4688 5.8398 -13.3516 5.8398 Q-12.2344 5.8398 -11.6562 4.6172 Q-11.0781 3.3945 -11.0781 1.043 Q-11.0781 -1.3164 -11.6562 -2.5391 Q-12.2344 -3.7617 -13.3516 -3.7617 ZM-13.3516 -4.5117 Q-11.5859 -4.5117 -10.5703 -3.0273 Q-9.5547 -1.543 -9.5547 1.043 Q-9.5547 3.6367 -10.5742 5.125 Q-11.5938 6.6133 -13.3516 6.6133 Q-15.1016 6.6133 -16.1211 5.125 Q-17.1406 3.6367 -17.1406 1.043 Q-17.1406 -1.543 -16.125 -3.0273 Q-15.1094 -4.5117 -13.3516 -4.5117 ZM-4.4531 -3.7617 Q-5.5703 -3.7617 -6.1562 -2.5312 Q-6.7422 -1.3008 -6.7422 1.0586 Q-6.7422 3.4023 -6.1562 4.6211 Q-5.5703 5.8398 -4.4531 5.8398 Q-3.3359 5.8398 -2.7578 4.6172 Q-2.1797 3.3945 -2.1797 1.043 Q-2.1797 -1.3164 -2.7578 -2.5391 Q-3.3359 -3.7617 -4.4531 -3.7617 ZM-4.4531 -4.5117 Q-2.6875 -4.5117 -1.6719 -3.0273 Q-0.6562 -1.543 -0.6562 1.043 Q-0.6562 3.6367 -1.6758 5.125 Q-2.6953 6.6133 -4.4531 6.6133 Q-6.2031 6.6133 -7.2227 5.125 Q-8.2422 3.6367 -8.2422 1.043 Q-8.2422 -1.543 -7.2266 -3.0273 Q-6.2109 -4.5117 -4.4531 -4.5117 Z"
         id="path139" />
    </g>
    <g
       transform="translate(95.8001,87.7778)"
       style="font-size:16px; fill:rgb(38,38,38); text-rendering:geometricPrecision; color-rendering:optimizeQuality; image-rendering:optimizeQuality; font-family:'Charter'; color-interpolation:linearRGB; stroke:rgb(38,38,38);"
       id="g141">
      <path
         style="stroke:none;"
         d="M-30.0078 -2.668 L-33.9609 2.2773 L-30.0078 2.2773 ZM-29.7031 -4.4102 L-28.7812 -4.4102 L-28.7812 2.2773 L-26.9688 2.2773 L-26.9688 3.3164 L-28.7812 3.3164 L-28.7812 7.0117 L-30.0078 7.0117 L-30.0078 3.3164 L-35.1641 3.3164 L-35.1641 2.2773 ZM-22.25 -3.7617 Q-23.3672 -3.7617 -23.9531 -2.5312 Q-24.5391 -1.3008 -24.5391 1.0586 Q-24.5391 3.4023 -23.9531 4.6211 Q-23.3672 5.8398 -22.25 5.8398 Q-21.1328 5.8398 -20.5547 4.6172 Q-19.9766 3.3945 -19.9766 1.043 Q-19.9766 -1.3164 -20.5547 -2.5391 Q-21.1328 -3.7617 -22.25 -3.7617 ZM-22.25 -4.5117 Q-20.4844 -4.5117 -19.4688 -3.0273 Q-18.4531 -1.543 -18.4531 1.043 Q-18.4531 3.6367 -19.4727 5.125 Q-20.4922 6.6133 -22.25 6.6133 Q-24 6.6133 -25.0195 5.125 Q-26.0391 3.6367 -26.0391 1.043 Q-26.0391 -1.543 -25.0234 -3.0273 Q-24.0078 -4.5117 -22.25 -4.5117 ZM-13.3516 -3.7617 Q-14.4688 -3.7617 -15.0547 -2.5312 Q-15.6406 -1.3008 -15.6406 1.0586 Q-15.6406 3.4023 -15.0547 4.6211 Q-14.4688 5.8398 -13.3516 5.8398 Q-12.2344 5.8398 -11.6562 4.6172 Q-11.0781 3.3945 -11.0781 1.043 Q-11.0781 -1.3164 -11.6562 -2.5391 Q-12.2344 -3.7617 -13.3516 -3.7617 ZM-13.3516 -4.5117 Q-11.5859 -4.5117 -10.5703 -3.0273 Q-9.5547 -1.543 -9.5547 1.043 Q-9.5547 3.6367 -10.5742 5.125 Q-11.5938 6.6133 -13.3516 6.6133 Q-15.1016 6.6133 -16.1211 5.125 Q-17.1406 3.6367 -17.1406 1.043 Q-17.1406 -1.543 -16.125 -3.0273 Q-15.1094 -4.5117 -13.3516 -4.5117 ZM-4.4531 -3.7617 Q-5.5703 -3.7617 -6.1562 -2.5312 Q-6.7422 -1.3008 -6.7422 1.0586 Q-6.7422 3.4023 -6.1562 4.6211 Q-5.5703 5.8398 -4.4531 5.8398 Q-3.3359 5.8398 -2.7578 4.6172 Q-2.1797 3.3945 -2.1797 1.043 Q-2.1797 -1.3164 -2.7578 -2.5391 Q-3.3359 -3.7617 -4.4531 -3.7617 ZM-4.4531 -4.5117 Q-2.6875 -4.5117 -1.6719 -3.0273 Q-0.6562 -1.543 -0.6562 1.043 Q-0.6562 3.6367 -1.6758 5.125 Q-2.6953 6.6133 -4.4531 6.6133 Q-6.2031 6.6133 -7.2227 5.125 Q-8.2422 3.6367 -8.2422 1.043 Q-8.2422 -1.543 -7.2266 -3.0273 Q-6.2109 -4.5117 -4.4531 -4.5117 Z"
         id="path143" />
    </g>
    <g
       transform="translate(95.8001,40)"
       style="font-size:16px; fill:rgb(38,38,38); text-rendering:geometricPrecision; color-rendering:optimizeQuality; image-rendering:optimizeQuality; font-family:'Charter'; color-interpolation:linearRGB; stroke:rgb(38,38,38);"
       id="g145">
      <path
         style="stroke:none;"
         d="M-30.0078 -2.668 L-33.9609 2.2773 L-30.0078 2.2773 ZM-29.7031 -4.4102 L-28.7812 -4.4102 L-28.7812 2.2773 L-26.9688 2.2773 L-26.9688 3.3164 L-28.7812 3.3164 L-28.7812 7.0117 L-30.0078 7.0117 L-30.0078 3.3164 L-35.1641 3.3164 L-35.1641 2.2773 ZM-25.0781 -4.3164 L-19.3516 -4.3164 L-19.3516 -3.0664 L-24.0859 -3.0664 L-24.0859 0.1289 Q-23.6328 0.0039 -23.2031 -0.0625 Q-22.7734 -0.1289 -22.375 -0.1289 Q-20.7891 -0.1289 -19.832 0.7148 Q-18.875 1.5586 -18.875 2.9492 Q-18.875 4.543 -20.0547 5.5508 Q-21.2344 6.5586 -23.1406 6.5586 Q-24.3125 6.5586 -25.1055 6.1172 Q-25.8984 5.6758 -25.8984 5.0586 Q-25.8984 4.6836 -25.6367 4.4453 Q-25.375 4.207 -24.9688 4.207 Q-24.8984 4.207 -24.8047 4.2188 Q-24.7109 4.2305 -24.5781 4.2617 L-23.9453 5.6367 Q-23.6797 5.7305 -23.4102 5.7773 Q-23.1406 5.8242 -22.875 5.8242 Q-21.7578 5.8242 -21.0508 5.1094 Q-20.3438 4.3945 -20.3438 3.2695 Q-20.3438 2.0508 -21.1602 1.457 Q-21.9766 0.8633 -23.6719 0.8633 Q-24.1172 0.8633 -24.4648 0.8867 Q-24.8125 0.9102 -25.0781 0.9648 ZM-13.3516 -3.7617 Q-14.4688 -3.7617 -15.0547 -2.5312 Q-15.6406 -1.3008 -15.6406 1.0586 Q-15.6406 3.4023 -15.0547 4.6211 Q-14.4688 5.8398 -13.3516 5.8398 Q-12.2344 5.8398 -11.6562 4.6172 Q-11.0781 3.3945 -11.0781 1.043 Q-11.0781 -1.3164 -11.6562 -2.5391 Q-12.2344 -3.7617 -13.3516 -3.7617 ZM-13.3516 -4.5117 Q-11.5859 -4.5117 -10.5703 -3.0273 Q-9.5547 -1.543 -9.5547 1.043 Q-9.5547 3.6367 -10.5742 5.125 Q-11.5938 6.6133 -13.3516 6.6133 Q-15.1016 6.6133 -16.1211 5.125 Q-17.1406 3.6367 -17.1406 1.043 Q-17.1406 -1.543 -16.125 -3.0273 Q-15.1094 -4.5117 -13.3516 -4.5117 ZM-4.4531 -3.7617 Q-5.5703 -3.7617 -6.1562 -2.5312 Q-6.7422 -1.3008 -6.7422 1.0586 Q-6.7422 3.4023 -6.1562 4.6211 Q-5.5703 5.8398 -4.4531 5.8398 Q-3.3359 5.8398 -2.7578 4.6172 Q-2.1797 3.3945 -2.1797 1.043 Q-2.1797 -1.3164 -2.7578 -2.5391 Q-3.3359 -3.7617 -4.4531 -3.7617 ZM-4.4531 -4.5117 Q-2.6875 -4.5117 -1.6719 -3.0273 Q-0.6562 -1.543 -0.6562 1.043 Q-0.6562 3.6367 -1.6758 5.125 Q-2.6953 6.6133 -4.4531 6.6133 Q-6.2031 6.6133 -7.2227 5.125 Q-8.2422 3.6367 -8.2422 1.043 Q-8.2422 -1.543 -7.2266 -3.0273 Q-6.2109 -4.5117 -4.4531 -4.5117 Z"
         id="path147" />
    </g>
    <g
       style="fill:rgb(0,114,189); text-rendering:geometricPrecision; color-interpolation:linearRGB; color-rendering:optimizeQuality; image-rendering:optimizeQuality; stroke:rgb(0,114,189);"
       id="g149">
      <path
         d="M100.9398 465.8767 L101.1673 465.8816 L101.6198 465.5901 L102.0723 465.9628 L102.5247 465.7765 L102.9772 465.7717 L103.4297 465.8051 L103.8822 466.0297 L104.3347 465.9628 L104.7868 465.9628 L105.2393 465.9102 L105.6918 465.8529 L106.1443 465.8768 L106.5968 465.7765 L107.0493 465.915 L107.5018 465.7621 L107.9543 465.8816 L108.4063 465.8816 L108.8588 465.8959 L109.3113 465.7956 L109.7638 465.8529 L110.2163 465.9819 L110.6684 466.0918 L111.1209 465.915 L111.5734 465.9485 L112.0259 465.872 L112.4779 466.0058 L112.9304 465.8577 L113.3829 465.872 L113.8354 465.9676 L114.2875 466.0249 L114.74 465.9341 L115.1925 465.7048 L115.6446 465.915 L116.0971 465.8338 L116.5495 465.829 L117.0016 466.0249 L117.4541 465.8386 L117.9062 465.8863 L118.3587 465.8003 L118.8112 465.7 L119.2632 465.8481 L119.7157 465.8338 L120.1678 465.7908 L120.6203 465.7478 L121.0724 465.958 L121.5249 465.8577 L121.977 465.7573 L122.4294 465.7812 L122.8815 465.8147 L123.334 465.9055 L123.7861 466.0345 L124.2386 465.7143 L124.6907 465.8195 L125.1432 466.0345 L125.5952 465.7526 L126.0477 465.7956 L126.4998 465.7956 L126.9519 465.9341 L127.4044 465.7335 L127.8564 465.9198 L128.3089 465.8577 L128.761 465.872 L129.2131 465.7573 L129.6656 465.9867 L130.1176 465.9485 L130.5697 465.872 L131.0222 465.8338 L131.4743 465.7573 L131.9263 465.9867 L132.3784 465.6809 L132.8309 466.0297 L133.283 465.9771 L133.7351 465.9437 L134.1871 465.8768 L134.6396 465.872 L135.0917 465.8816 L135.5438 465.9293 L135.9958 465.8242 L136.4479 465.9915 L136.9004 465.8433 L137.3525 465.9771 L137.8046 465.7908 L138.2566 465.7765 L138.7087 465.9198 L139.1608 465.8672 L139.6129 465.8386 L140.0649 465.9102 L140.517 465.9485 L140.9695 465.8816 L141.4216 465.915 L141.8736 465.7765 L142.3257 465.9962 L142.7778 465.7526 L143.2299 465.7621 L143.6819 465.829 L144.134 465.8051 L144.5861 465.8481 L145.0382 465.9246 L145.4902 465.9055 L145.9423 465.9389 L146.3944 465.829 L146.846 465.7908 L147.2981 465.9246 L147.7502 465.8672 L148.2022 465.7717 L148.6543 465.9055 L149.1064 465.7621 L149.5585 465.7096 L150.0105 465.9437 L150.4626 465.8863 L150.9143 465.9246 L151.3663 465.8863 L151.8184 465.7717 L152.2705 465.9676 L152.7225 465.7812 L153.1742 465.7335 L153.6263 465.9962 L154.0784 465.7669 L154.5304 465.8577 L154.9821 466.0201 L155.4342 465.8816 L155.8862 465.9628 L156.3383 465.9341 L156.7899 465.9341 L157.242 465.872 L157.6941 465.9007 L158.1458 465.7526 L158.5978 466.0536 L159.0499 465.8242 L159.5015 465.9485 L159.9536 465.9055 L160.4053 465.9437 L160.8573 465.9055 L161.3094 465.9389 L161.7611 465.8863 L162.2131 465.8959 L162.6648 465.6857 L163.1169 465.9532 L163.5685 465.9389 L164.0206 465.8577 L164.4722 465.9532 L164.9243 465.8433 L165.376 465.9055 L165.828 465.786 L166.2797 465.8003 L166.7318 465.9962 L167.1834 465.8768 L167.6355 465.8863 L168.0871 465.8338 L168.5392 466.044 L168.9909 466.0297 L169.4425 465.9293 L169.8946 465.9628 L170.3462 465.9341 L170.7979 465.9007 L171.25 465.9676 L171.7016 465.8386 L172.1533 466.0727 L172.6053 465.829 L173.057 465.9867 L173.5087 466.0058 L173.9607 465.9389 L174.4124 465.8863 L174.864 465.7573 L175.3157 465.8768 L175.7677 465.6857 L176.2194 465.8338 L176.6711 465.7765 L177.1227 465.9723 L177.5744 465.8242 L178.0264 465.8625 L178.4781 465.8481 L178.9297 465.8338 L179.3814 466.2112 L179.833 465.9867 L180.2847 466.0106 L180.7368 465.9007 L181.1884 465.8099 L181.6401 465.8625 L182.0917 465.9485 L182.5434 465.9819 L182.995 465.9867 L183.4467 466.0058 L183.8983 465.7382 L184.35 465.9007 L184.8016 465.9055 L185.2533 465.9437 L185.7049 465.7956 L186.1566 465.9676 L186.6082 465.7239 L187.0599 465.8481 L187.5115 465.6666 L187.9632 465.9007 L188.4148 465.6952 L188.8665 465.7908 L189.3181 465.8338 L189.7698 465.7717 L190.221 465.8003 L190.6727 466.0058 L191.1243 465.7096 L191.576 465.7621 L192.0276 465.7382 L192.4793 465.6666 L192.9309 465.657 L193.3822 465.184 L193.8338 462.7091 L194.2855 457.8644 L194.7371 450.9797 L195.1884 439.5369 L195.64 435.9488 L196.0917 436.89 L196.5433 443.1011 L196.9945 456.3499 L197.4462 461.9924 L197.8978 463.8844 L198.3495 464.8973 L198.8007 465.3417 L199.2524 465.3417 L199.704 465.442 L200.1553 465.4086 L200.6069 465.3608 L201.0582 465.2652 L201.5098 465.2413 L201.9614 465.3178 L202.4127 465.3942 L202.8643 465.3799 L203.3156 465.3273 L203.7672 465.2604 L204.2184 465.3082 L204.6701 465.2509 L205.1213 465.1075 L205.573 465.3799 L206.0242 465.2987 L206.4759 465.5328 L206.9271 465.4516 L207.3787 465.4229 L207.83 465.4898 L208.2816 465.0932 L208.7328 464.6776 L209.1845 463.6312 L209.6357 462.1215 L210.087 461.0226 L210.5386 460.4349 L210.9899 460.5113 L211.4415 461.4382 L211.8927 462.6327 L212.344 464.0995 L212.7956 464.8161 L213.2468 465.1505 L213.6981 465.27 L214.1497 465.2318 L214.601 465.3608 L215.0522 465.313 L215.5034 465.1601 L215.9551 465.227 L216.4063 465.3799 L216.8575 465.442 L217.3088 465.4133 L217.76 465.4802 L218.2116 465.5519 L218.6629 465.5806 L219.1141 465.4563 L219.5653 465.5901 L220.0166 465.0359 L220.4678 464.7731 L220.9194 464.4291 L221.3707 464.0899 L221.8219 464.3336 L222.2731 464.7397 L222.7244 465.2127 L223.1756 465.3751 L223.6268 465.3608 L224.0781 465.1028 L224.5293 464.3336 L224.9805 463.6408 L225.4317 463.3302 L225.883 463.2824 L226.3342 463.6456 L226.7854 464.3527 L227.2367 464.6393 L227.6879 464.7588 L228.1391 464.7349 L228.5904 465.0024 L229.0416 465.4181 L229.4928 465.4133 L229.9441 465.3847 L230.3953 465.4229 L230.8465 465.2557 L231.2973 465.2079 L231.7486 465.5376 L232.1998 465.5758 L232.651 465.6427 L233.1022 465.7335 L233.5535 465.528 L234.0043 465.7669 L234.4555 465.7382 L234.9068 465.8386 L235.358 465.7956 L235.8088 465.7191 L236.26 465.7812 L236.7112 465.743 L237.1625 465.5758 L237.6133 465.6904 L238.0645 465.7908 L238.5157 466.0201 L238.9666 465.6713 L239.4178 465.7382 L239.869 465.7478 L240.3198 465.9293 L240.7711 465.9102 L241.2223 465.9485 L241.6731 465.6857 L242.1243 465.958 L242.5751 465.8195 L243.0264 465.8959 L243.4772 465.8147 L243.9284 465.8959 L244.3796 465.9341 L244.8304 465.958 L245.2817 465.915 L245.7325 465.8816 L246.1837 466.0727 L246.6345 465.8386 L247.0858 465.8051 L247.5366 465.7717 L247.9874 465.7812 L248.4386 465.8816 L248.8894 465.8338 L249.3407 465.8099 L249.7915 465.8911 L250.2423 465.8481 L250.6935 465.8242 L251.1443 465.9962 L251.5955 465.9293 L252.0463 465.9532 L252.4971 465.8863 L252.9484 465.9676 L253.3992 466.0249 L253.85 465.9676 L254.3008 465.9293 L254.752 465.8911 L255.2029 465.8625 L255.6537 465.915 L256.1045 465.9198 L256.5557 465.8386 L257.0065 466.0153 L257.4573 465.8577 L257.9081 465.7 L258.3589 465.8529 L258.8102 465.7335 L259.261 465.8338 L259.7118 465.8481 L260.1626 466.0822 L260.6134 465.8051 L261.0642 465.8386 L261.515 466.0249 L261.9658 466.0345 L262.4166 465.8051 L262.8679 465.872 L263.3187 466.087 L263.7695 465.8386 L264.2203 466.044 L264.6711 465.7956 L265.1219 466.0631 L265.5727 465.9628 L266.0235 465.9198 L266.4743 465.9293 L266.9251 465.8911 L267.376 465.8768 L267.8264 465.915 L268.2772 465.7765 L268.728 465.8625 L269.1788 465.8625 L269.6296 465.9102 L270.0804 465.8003 L270.5312 466.0153 L270.982 465.7478 L271.4324 465.9485 L271.8832 465.7908 L272.334 465.9246 L272.7848 466.0297 L273.2356 465.7573 L273.6865 465.9102 L274.1368 465.8386 L274.5876 465.5614 L275.0385 465.7526 L275.4893 465.7 L275.9396 465.5997 L276.3905 465.6283 L276.8413 465.7669 L277.2917 465.6952 L277.7425 465.7526 L278.1933 465.8099 L278.6437 465.7287 L279.0945 465.8386 L279.5453 465.7478 L279.9957 465.6809 L280.4465 465.5328 L280.8969 465.5137 L281.3477 465.4563 L281.7985 465.0932 L282.2489 464.4291 L282.6997 462.3412 L283.1501 456.6557 L283.6009 444.5679 L284.0513 422.7096 L284.5021 389.9531 L284.9525 374.4731 L285.4033 374.8983 L285.8537 398.8159 L286.3045 433.8657 L286.7549 450.4971 L287.2057 457.0045 L287.6561 460.1864 L288.1064 461.4573 L288.5573 462.4559 L289.0076 462.2505 L289.458 462.0928 L289.9088 460.9509 L290.3592 459.7612 L290.81 458.3327 L291.2604 457.8501 L291.7108 458.1941 L292.1612 460.1004 L292.612 462.2313 L293.0624 462.7712 L293.5128 462.9958 L293.9636 462.9384 L294.414 462.5801 L294.8644 463.1725 L295.3148 463.4449 L295.7651 463.6026 L296.2159 463.6838 L296.6664 463.7124 L297.1167 463.636 L297.5671 463.2251 L298.0175 462.7951 L298.4679 461.6245 L298.9187 459.8711 L299.3691 456.5697 L299.8195 453.2157 L300.2699 450.4541 L300.7202 450.2104 L301.1706 452.0977 L301.621 455.6619 L302.0714 458.9299 L302.5218 459.9189 L302.9722 459.4937 L303.4226 459.1974 L303.873 459.2691 L304.3234 459.637 L304.7737 460.3346 L305.2241 461.2901 L305.6745 462.3938 L306.1249 462.3556 L306.5753 462.518 L307.0257 462.9098 L307.4761 462.8668 L307.926 463.206 L308.3764 463.2585 L308.8268 463.3541 L309.2772 463.2968 L309.7276 463.249 L310.178 462.733 L310.6279 461.9733 L311.0783 461.5003 L311.5287 460.6356 L311.9791 460.2294 L312.4295 460.5113 L312.8795 460.8601 L313.3298 461.5911 L313.7802 462.2791 L314.2306 462.5897 L314.6806 462.8333 L315.131 463.1917 L315.5814 463.6647 L316.0313 463.7316 L316.4817 463.5643 L316.9321 464.0803 L317.3821 464.1759 L317.8325 463.2824 L318.2824 464.2476 L318.7328 464.4769 L319.1832 464.3622 L319.6332 464.3479 L320.0836 464.2428 L320.5335 464.1281 L320.9839 463.8988 L321.4339 463.6264 L321.8843 463.6217 L322.3342 463.5309 L322.7846 463.7841 L323.2346 464.3813 L323.685 464.5533 L324.1349 464.6393 L324.5853 464.6107 L325.0353 464.8448 L325.4857 464.8543 L325.9356 464.8304 L326.3856 464.8591 L326.836 464.6919 L327.286 464.754 L327.7359 464.8734 L328.1863 464.8925 L328.6363 465.0645 L329.0863 465.0837 L329.5367 464.8352 L329.9866 464.926 L330.4366 464.9738 L330.887 464.8018 L331.3369 465.0359 L331.7869 465.012 L332.2369 465.2365 L332.6868 465.1505 L333.1372 464.9833 L333.5872 465.3178 L334.0371 465.2509 L334.4871 465.2748 L334.9371 465.4898 L335.3875 465.3656 L335.8374 465.3178 L336.2874 465.3034 L336.7374 465.1888 L337.1873 465.2795 L337.6373 465.3034 L338.0873 465.0359 L338.5372 465.1744 L338.9872 465.1553 L339.4372 465.1983 L339.8871 464.8543 L340.3371 464.7206 L340.7871 464.5868 L341.237 464.4435 L341.687 464.5868 L342.137 464.4817 L342.5869 464.453 L343.0369 464.4482 L343.4869 464.2906 L343.9368 464.1759 L344.3868 464.0708 L344.8368 463.4114 L345.2867 463.1104 L345.7367 462.3269 L346.1862 461.6914 L346.6362 460.6165 L347.0862 459.5701 L347.5362 457.8835 L347.9861 455.0408 L348.4357 449.8139 L348.8856 441.1948 L349.3356 424.807 L349.7856 393.976 L350.2355 338.9933 L350.6851 251.3737 L351.135 172.9369 L351.585 162.593 L352.0345 222.9554 L352.4845 334.2251 L352.9345 404.081 L353.384 431.0372 L353.834 442.4561 L354.284 448.1082 L354.7335 451.1326 L355.1835 453.1201 L355.633 453.2348 L356.083 451.897 L356.533 449.0399 L356.9825 445.3037 L357.4325 441.5149 L357.882 440.7313 L358.332 443.5645 L358.7815 448.9252 L359.2315 453.2969 L359.681 455.2128 L360.131 455.3943 L360.5805 455.3752 L361.0305 455.423 L361.48 456.1683 L361.93 456.2257 L362.3796 456.6939 L362.8291 456.7034 L363.2791 456.4454 L363.7286 456.2878 L364.1782 455.3275 L364.6281 453.4068 L365.0777 450.3251 L365.5272 445.6572 L365.9772 438.6052 L366.4267 430.7219 L366.8763 422.6474 L367.3263 418.3474 L367.7758 421.4052 L368.2253 429.9288 L368.6749 440.373 L369.1248 445.9869 L369.5744 447.0332 L370.024 447.0714 L370.4735 446.35 L370.923 446.6271 L371.373 448.0175 L371.8225 450.4971 L372.2721 452.0403 L372.7216 453.8416 L373.1712 453.9658 L373.6207 454.7637 L374.0703 454.9739 L374.5198 455.3848 L374.9694 456.4502 L375.4189 456.5076 L375.8684 456.0584 L376.3184 454.9787 L376.768 453.2013 L377.2175 450.8841 L377.6671 448.0175 L378.1162 445.2654 L378.5657 441.7251 L379.0153 436.5125 L379.4648 430.2728 L379.9144 416.7039 L380.3639 388.4051 L380.8134 333.7951 L381.263 234.9238 L381.7125 126.1194 L382.1621 77.4196 L382.6116 121.4277 L383.0608 246.6771 L383.5103 347.106 L383.9598 395.18 L384.4094 418.3952 L384.8589 430.5977 L385.308 438.1035 L385.7576 442.1838 L386.2072 444.1809 L386.6567 444.5679 L387.1058 442.2937 L387.5554 438.1179 L388.0049 432.8958 L388.454 429.064 L388.9036 429.9622 L389.3531 435.1031 L389.8022 441.2664 L390.2518 445.8436 L390.7013 447.64 L391.1505 448.672 L391.6 449.317 L392.0491 450.3251 L392.4987 450.8745 L392.9482 451.9352 L393.3973 452.2219 L393.8469 452.4512 L394.296 451.8015 L394.7455 451.6342 L395.1947 450.2104 L395.6442 447.5444 L396.0934 442.9626 L396.5429 434.7495 L396.992 420.7268 L397.4416 398.7155 L397.8907 365.9018 L398.3398 323.5754 L398.7894 281.4402 L399.2385 266.0749 L399.688 282.9691 L400.1371 331.7216 L400.5863 378.5724 L401.0358 403.8564 L401.485 416.1019 L401.9341 423.5695 L402.3832 428.6006 L402.8327 433.7319 L403.2819 439.04 L403.731 441.7585 L404.1805 441.8684 L404.6297 440.9846 L405.0788 439.5082 L405.5279 438.4571 L405.977 439.6372 L406.4266 442.2316 L406.8757 445.9296 L407.3248 448.0987 L407.774 448.0127 L408.2231 446.9615 L408.6722 445.3801 L409.1213 443.7891 L409.5704 441.448 L410.02 439.8857 L410.4691 439.8379 L410.9182 440.6645 L411.3673 443.469 L411.8165 446.0156 L412.2656 447.6209 L412.7147 447.7164 L413.1638 447.4107 L413.613 445.9009 L414.0621 443.6458 L414.5112 440.3539 L414.9604 435.2512 L415.4095 432.4992 L415.8582 432.9865 L416.3073 436.9139 L416.7564 442.0834 L417.2055 445.92 L417.6547 447.4441 L418.1038 447.1335 L418.5529 446.8994 L419.0016 446.8134 L419.4507 447.1049 L419.8999 448.2372 L420.349 449.016 L420.7981 450.1627 L421.2468 450.8315 L421.696 452.0451 L422.1451 453.3542 L422.5942 454.3384 L423.0429 455.4469 L423.492 456.369 L423.9411 456.4932 L424.3898 456.6796 L424.839 456.9041 L425.2881 456.9615 L425.7368 455.9677 L426.1859 455.7957 L426.6346 454.3958 L427.0837 453.9037 L427.5329 453.2157 L427.9816 452.6805 L428.4307 453.9419 L428.8794 454.4435 L429.3285 455.0933 L429.7772 455.7144 L430.2263 456.5553 L430.675 457.1096 L431.1242 457.7307 L431.5729 458.39 L432.022 458.8821 L432.4707 459.4602 L432.9198 459.7087 L433.3685 459.5175 L433.8172 459.9476 L434.2664 460.1673 L434.7151 460.0574 L435.1642 460.2486 L435.6129 460.2581 L436.0616 460.4922 L436.5107 460.3059 L436.9594 460.5735 L437.4081 459.8185 L437.8568 459.981 L438.3059 460.1004 L438.7546 459.8854 L439.2033 460.4015 L439.652 460.7693 L440.1012 461.1468 L440.5499 461.185 L440.9986 461.3235 L441.4473 461.5003 L441.896 461.8539 L442.3451 461.9112 L442.7938 461.9972 L443.2425 462.3938 L443.6912 462.5562 L444.1399 462.5467 L444.5886 462.5323 L445.0373 462.3317 L445.486 462.6279 L445.9347 462.4607 L446.3834 462.3173 L446.8321 462.5228 L447.2808 462.4225 L447.7295 462.2457 L448.1783 462.4129 L448.627 462.3412 L449.0757 462.5801 L449.5244 462.8954 L449.9731 462.8333 L450.4218 463.0388 L450.8705 463.1917 L451.3192 463.1295 L451.7679 463.2394 L452.2166 463.1534 L452.6649 463.3971 L453.1136 463.464 L453.5623 463.5834 L454.011 463.6742 L454.4597 463.6312 L454.9084 463.5165 L455.3566 463.6551 L455.8053 463.8462 L456.254 463.9179 L456.7028 463.6312 L457.151 463.765 L457.5997 463.9752 L458.0484 463.7889 L458.4967 463.9657 L458.9454 463.6264 L459.3941 463.4927 L459.8424 463.7029 L460.2911 463.5309 L460.7398 463.6073 L461.1881 463.4831 L461.6368 463.2777 L462.0851 463.1678 L462.5338 462.819 L462.9821 462.6375 L463.4308 462.3508 L463.8795 462.6422 L464.3277 462.5945 L464.7764 462.948 L465.2247 462.7951 L465.6734 462.7664 L466.1217 462.561 L466.57 462.3747 L467.0187 462.3078 L467.467 462.5515 L467.9157 462.8142 L468.364 462.9814 L468.8122 463.1725 L469.2609 463.3207 L469.7092 463.2968 L470.1579 463.4305 L470.6062 463.6264 L471.0545 463.3302 L471.5028 463.3923 L471.9515 463.3302 L472.3997 463.1057 L472.848 462.5323 L473.2967 462.2457 L473.745 462.1692 L474.1933 462.1931 L474.6416 462.6231 L475.0899 463.2538 L475.5386 463.4114 L475.9868 463.4401 L476.4351 463.7363 L476.8834 463.6647 L477.3317 463.8367 L477.78 463.593 L478.2282 463.6264 L478.6769 463.7507 L479.1252 463.6503 L479.5735 463.7889 L480.0218 463.3111 L480.4701 463.0722 L480.9184 462.9432 L481.3666 463.0101 L481.8149 463.0388 L482.2632 462.7139 L482.7115 462.8716 L483.1598 463.077 L483.608 462.9098 L484.0563 462.9576 L484.5042 462.776 L484.9525 462.5419 L485.4008 462.4559 L485.849 462.3747 L486.2973 462.733 L486.7456 462.5085 L487.1939 462.6518 L487.6422 462.4129 L488.09 462.7473 L488.5383 462.5992 L488.9866 462.9384 L489.4349 462.9719 L489.8827 462.7808 L490.331 463.0722 L490.7793 462.9767 L491.2276 462.7378 L491.6754 462.862 L492.1237 462.7569 L492.572 463.1152 L493.0198 463.1295 L493.4681 463.3445 L493.9164 463.3923 L494.3643 463.4927 L494.8126 463.4688 L495.2604 463.5691 L495.7087 463.5404 L496.157 463.6694 L496.6048 463.7459 L497.0531 463.7172 L497.501 463.6886 L497.9492 463.7507 L498.3971 463.8319 L498.8454 463.6933 L499.2932 463.6742 L499.7415 463.5022 L500.1894 463.7507 L500.6377 463.7984 L501.0855 463.7316 L501.5334 463.5787 L501.9817 463.7316 L502.4295 463.6503 L502.8778 463.7172 L503.3257 463.4401 L503.7735 463.6121 L504.2218 463.6312 L504.6697 463.5834 L505.1176 463.7793 L505.5658 463.6742 L506.0137 463.8367 L506.4615 463.7602 L506.9094 463.8271 L507.3577 463.8128 L507.8055 463.7746 L508.2534 463.6933 L508.7013 463.8319 L509.1491 464.0612 L509.5974 464.0135 L510.0453 463.9609 L510.4931 463.7029 L510.941 463.9561 L511.3889 464.0469 L511.8367 463.9179 L512.2845 464.1377 L512.7324 463.9131 L513.1803 463.8414 L513.6282 463.9466 L514.076 463.722 L514.5239 464.0469 L514.9717 463.9466 L515.4196 463.765 L515.8674 463.9513 L516.3153 463.8606 L516.7632 463.765 L517.211 463.7124 L517.6589 463.7363 L518.1068 463.8128 L518.5546 463.9322 L519.0024 463.9943 L519.4503 464.2571 L519.8982 464.152 L520.3456 464.1616 L520.7935 464.1377 L521.2413 464.0947 L521.6892 464.0756 L522.1371 464.0851 L522.5845 464.1186 L523.0323 464.1855 L523.4802 463.9561 L523.9281 464.0278 L524.3755 464.1616 L524.8234 463.9561 L525.2712 463.6503 L525.7187 463.7746 L526.1666 463.6264 L526.6144 463.6647 L527.0618 463.4305 L527.5097 463.5643 L527.9576 463.3445 L528.405 463.163 L528.8528 463.0435 L529.3003 462.9193 L529.7482 462.776 L530.196 462.6422 L530.6434 462.5753 L531.0913 462.2027 L531.5388 462.2791 L531.9866 461.8921 L532.434 461.873 L532.8815 461.9399 L533.3293 461.7153 L533.7768 461.8252 L534.2247 461.8252 L534.6721 461.7058 L535.1199 461.9686 L535.5674 462.2027 L536.0148 462.2313 L536.4627 462.2505 L536.9101 462.2361 L537.3575 462.6613 L537.8054 462.604 L538.2529 462.8094 L538.7003 462.8142 L539.1481 462.6136 L539.5956 462.7856 L540.043 462.9958 L540.4905 462.9241 L540.9379 463.0005 L541.3857 462.6422 L541.8332 463.0627 L542.2806 462.9146 L542.7281 463.0435 L543.1755 463.0244 L543.623 462.948 L544.0708 462.7951 L544.5182 462.8286 L544.9657 462.5753 L545.4131 462.5753 L545.8606 462.5371 L546.308 462.4702 L546.7554 462.2122 L547.2029 462.131 L547.6503 461.9351 L548.0978 461.9303 L548.5452 461.7822 L548.9927 461.3952 L549.4401 461.6819 L549.8875 461.4955 L550.335 461.4525 L550.7824 461.3761 L551.2299 461.7153 L551.6769 462.3747 L552.1243 462.7091 L552.5717 462.7856 L553.0192 462.8668 L553.4666 463.034 L553.9141 462.9814 L554.3611 463.1104 L554.8085 462.9528 L555.2559 462.8907 L555.7034 462.9002 L556.1508 463.0865 L556.5978 463.0865 L557.0453 463.034 L557.4927 463.0483 L557.9398 462.9814 L558.3871 463.0388 L558.8346 463.0531 L559.2816 463.0388 L559.7291 463.0865 L560.1765 463.2824 L560.6235 463.2203 L561.071 463.4114 L561.518 463.7077 L561.9654 463.7698 L562.4124 463.4401 L562.8599 463.6456 L563.3073 463.3063 L563.7543 463.5022 L564.2018 463.335 L564.6488 463.0674 L565.0958 463.1439 L565.5432 463.0005 L565.9902 463.0818 L566.4377 462.9958 L566.8847 462.5849 L567.3322 462.5132 L567.7792 462.6805 L568.2262 462.2982 L568.6736 462.5753 L569.1207 462.7187 L569.5677 462.991 L570.0151 463.206 L570.4621 463.4019 L570.9091 463.6408 L571.3566 463.7698 L571.8036 464.0421 L572.2506 463.9513 L572.6976 464.0612 L573.1451 464.0899 L573.5921 464.2285 L574.0391 464.023 L574.4861 464.0947 L574.9331 464.0421 L575.3801 464.281 L575.8276 464.1902 L576.2746 463.9752 L576.7216 464.2046 L577.1686 464.2667 L577.6157 464.1616 L578.0627 464.1472 L578.5097 464.1711 L578.9567 464.238 L579.4037 464.0947 L579.8508 464.238 L580.2978 464.0947 L580.7448 464.1186 L581.1918 464.2046 L581.6388 463.8988 L582.0858 463.6121 L582.5328 463.6073 L582.9799 463.6408 L583.4269 463.2585 L583.8739 463.0053 L584.3205 462.8477 L584.7675 462.5658 L585.2145 462.5706 L585.6616 462.088 L586.1086 462.1549 L586.5552 461.7297 L587.0022 461.6867 L587.4492 461.0226 L587.8962 460.7216 L588.3432 460.5018 L588.7899 460.2199 L589.2368 459.8663 L589.6838 459.0923 L590.1304 458.906 L590.5775 458.5524 L591.0245 458.4187 L591.4711 456.8802 L591.9181 456.4072 L592.3651 455.3179 L592.8117 454.5869 L593.2587 453.4785 L593.7053 453.8654 L594.1523 454.8019 L594.5989 456.7417 L595.046 458.5572 L595.4926 459.9476 L595.9396 460.9031 L596.3862 461.2853 L596.8332 461.5959 L597.2798 462.0928 L597.7268 461.8921 L598.1734 462.0928 L598.6204 461.9399 L599.067 461.8778 L599.5136 461.7344 L599.9606 461.4525 L600.4072 461.7058 L600.8538 461.615 L601.3008 461.7727 L601.7474 461.9399 L602.194 461.8204 L602.6411 461.8826 L603.0876 461.615 L603.5342 461.8396 L603.9813 462.1262 L604.4279 462.0593 L604.8745 462.3938 L605.321 462.2552 L605.7676 462.1883 L606.2147 462.2075 L606.6613 462.3078 L607.1078 462.1979 L607.5544 462.0928 L608.001 462.0641 L608.4476 462.3795 L608.8942 462.1788 L609.3408 462.1979 L609.7874 461.8204 L610.234 461.7535 L610.6806 461.4143 L611.1272 461.6723 L611.5738 461.3522 L612.0204 461.3904 L612.467 461.2184 L612.9136 461.5242 L613.3602 461.2614 L613.6298 460.3919 L614.0811 460.1482 L614.5323 460.3776 L614.9835 460.583 L615.4348 460.7741 L615.8864 460.9031 L616.3376 461.0847 L616.7889 461.4095 L617.2401 461.6532 L617.6913 461.5147 L618.143 461.7488 L618.5942 461.7822 L619.0455 461.7918 L619.4966 462.002 L619.9479 462.2409 L620.3991 461.8491 L620.8503 462.2457 L621.302 462.131 L621.7532 462.346 L622.2045 462.4033 L622.6557 462.3508 L623.1069 462.4081 L623.5582 462.6183 L624.0094 462.5085 L624.4606 462.647 L624.9119 462.5515 L625.3631 462.8572 L625.8143 462.6661 L626.2656 462.7521 L626.7168 462.8142 L627.168 462.4368 L627.6193 462.7091 L628.0705 462.432 L628.5217 462.2839 L628.973 462.518 L629.4241 462.4559 L629.8754 462.1358 L630.3266 462.0068 L630.7778 461.9399 L631.2291 461.8778 L631.6803 461.4908 L632.1311 461.2997 L632.5823 461.2662 L633.0336 461.0847 L633.4848 460.7216 L633.936 460.5305 L634.3873 460.2151 L634.8385 459.9141 L635.2893 459.4793 L635.7405 459.1497 L636.1918 458.6002 L636.643 457.6924 L637.0942 456.928 L637.545 456.0584 L637.9963 455.3943 L638.4475 454.5104 L638.8987 453.4785 L639.35 453.2491 L639.8008 453.3829 L640.252 453.4355 L640.7032 454.3432 L641.1541 455.5329 L641.6053 457.2099 L642.0565 458.648 L642.5078 459.9284 L642.9586 460.7072 L643.4098 461.1754 L643.861 461.4334 L644.3118 461.658 L644.7631 462.0737 L645.2143 462.0116 L645.6651 462.0163 L646.1163 462.1692 L646.5671 462.3173 L647.0184 462.1979 L647.4696 462.174 L647.9204 462.2887 L648.3716 462.2696 L648.8224 462.6518 L649.2737 462.5658 L649.7245 462.6375 L650.1757 462.6088 L650.6265 462.6852 L651.0778 462.5801 L651.5286 462.4607 L651.9798 462.5371 L652.4306 462.5371 L652.8818 462.5276 L653.3326 462.2361 L653.7839 462.5467 L654.2347 462.26 L654.6859 462.1836 L655.1367 461.8921 L655.588 461.6389 L656.0388 461.3857 L656.49 461.3809 L656.9408 461.2805 L657.3916 460.9031 L657.8428 460.8697 L658.2936 460.3202 L658.7444 460.3823 L659.1957 459.8854 L659.6465 459.164 L660.0973 459.0541 L660.5485 458.0985 L660.9993 457.2911 L661.4501 456.584 L661.9014 456.4263 L662.3522 456.7656 L662.803 457.229 L663.2542 458.2658 L663.705 458.8821 L664.1558 459.6274 L664.6066 460.5305 L665.0579 460.5973 L665.5087 461.2471 L665.9595 461.142 L666.4103 461.658 L666.8611 462.1071 L667.3124 461.9064 L667.7632 462.1788 L668.214 462.2409 L668.6648 462.3938 L669.1156 462.3221 L669.5664 462.5753 L670.0176 462.6279 L670.4684 462.9002 L670.9193 462.8716 L671.3701 462.7951 L671.8209 463.0149 L672.2717 463.0865 L672.7225 463.1964 L673.1733 463.3684 L673.6241 463.4258 L674.0749 463.3015 L674.5257 463.2394 L674.9769 463.5404 L675.4277 463.5022 L675.8786 463.6551 L676.3294 463.4353 L676.7802 463.464 L677.231 463.2108 L677.6818 463.3637 L678.1326 463.3111 L678.5834 462.6661 L679.0338 463.0435 L679.4846 463.2968 L679.9354 462.9432 L680.3862 463.1248 L680.837 463.1057 L681.2878 462.9767 L681.7386 463.1725 L682.1895 463.1582 L682.6403 463.3159 L683.0911 463.4353 L683.5415 463.4067 L683.9923 463.5165 L684.4431 463.8271 L684.8939 463.5596 L685.3447 463.851 L685.7955 463.7793 L686.2459 463.8558 L686.6967 463.9896 L687.1475 464.0135 L687.5983 464.0326 L688.0491 463.9896 L688.4996 464.1568 L688.9504 463.9036 L689.4012 464.0612 L689.852 463.9227 L690.3024 463.8128 L690.7532 463.8653 L691.204 463.8032 L691.6544 464.0947 L692.1052 463.9418 L692.556 463.9609 L693.0063 463.8797 L693.4572 464.0612 L693.908 464.0326 L694.3584 463.8271 L694.8092 464.2046 L695.26 464.0278 L695.7104 464.1042 L696.1612 464.195 L696.6116 464.0756 L697.0624 463.9466 L697.5132 464.1186 L697.9636 464.3145 L698.4144 464.2141 L698.8648 464.1807 L699.3156 464.1998 L699.766 464.2476 L700.2168 464.3527 L700.6672 464.2953 L701.118 464.3909 L701.5684 464.3718 L702.0192 464.3383 L702.4695 464.2953 L702.9203 464.3718 L703.3708 464.281 L703.8216 464.4148 L704.272 464.0899 L704.7224 464.3145 L705.0602 464.0244"
         style="fill:none; fill-rule:evenodd;"
         id="path151" />
    </g>
  </g>
  <text
     xml:space="preserve"
     style="font-style:normal;font-weight:normal;font-size:40px;line-height:125%;font-family:sans-serif;letter-spacing:0px;word-spacing:0px;fill:#000000;fill-opacity:1;stroke:none;stroke-width:1px;stroke-linecap:butt;stroke-linejoin:miter;stroke-opacity:1"
     x="179.04434"
     y="423.71451"
     id="text4283"
     sodipodi:linespacing="125%"><tspan
       sodipodi:role="line"
       id="tspan4285"
       x="179.04434"
       y="423.71451"
       style="font-style:normal;font-variant:normal;font-weight:normal;font-stretch:normal;font-size:22.5px;font-family:Charter;-inkscape-font-specification:Charter">ZPL</tspan></text>
  <text
     sodipodi:linespacing="125%"
     id="text4287"
     y="365.28949"
     x="273.27823"
     style="font-style:normal;font-weight:normal;font-size:40px;line-height:125%;font-family:sans-serif;letter-spacing:0px;word-spacing:0px;fill:#000000;fill-opacity:1;stroke:none;stroke-width:1px;stroke-linecap:butt;stroke-linejoin:miter;stroke-opacity:1"
     xml:space="preserve"><tspan
       style="font-style:normal;font-variant:normal;font-weight:normal;font-stretch:normal;font-size:22.5px;font-family:Charter;-inkscape-font-specification:Charter"
       y="365.28949"
       x="273.27823"
       id="tspan4289"
       sodipodi:role="line">TA</tspan></text>
  <text
     sodipodi:linespacing="125%"
     id="text4295"
     y="152.94917"
     x="339.24191"
     style="font-style:normal;font-weight:normal;font-size:40px;line-height:125%;font-family:sans-serif;letter-spacing:0px;word-spacing:0px;fill:#000000;fill-opacity:1;stroke:none;stroke-width:1px;stroke-linecap:butt;stroke-linejoin:miter;stroke-opacity:1"
     xml:space="preserve"><tspan
       style="font-style:normal;font-variant:normal;font-weight:normal;font-stretch:normal;font-size:22.5px;font-family:Charter;-inkscape-font-specification:Charter"
       y="152.94917"
       x="339.24191"
       id="tspan4297"
       sodipodi:role="line">LA</tspan></text>
  <text
     xml:space="preserve"
     style="font-style:normal;font-weight:normal;font-size:40px;line-height:125%;font-family:sans-serif;letter-spacing:0px;word-spacing:0px;fill:#000000;fill-opacity:1;stroke:none;stroke-width:1px;stroke-linecap:butt;stroke-linejoin:miter;stroke-opacity:1"
     x="371.28143"
     y="68.138695"
     id="text4299"
     sodipodi:linespacing="125%"><tspan
       sodipodi:role="line"
       id="tspan4301"
       x="371.28143"
       y="68.138695"
       style="font-style:normal;font-variant:normal;font-weight:normal;font-stretch:normal;font-size:22.5px;font-family:Charter;-inkscape-font-specification:Charter">TO</tspan></text>
  <text
     sodipodi:linespacing="125%"
     id="text4303"
     y="252.20886"
     x="391.38467"
     style="font-style:normal;font-weight:normal;font-size:40px;line-height:125%;font-family:sans-serif;letter-spacing:0px;word-spacing:0px;fill:#000000;fill-opacity:1;stroke:none;stroke-width:1px;stroke-linecap:butt;stroke-linejoin:miter;stroke-opacity:1"
     xml:space="preserve"><tspan
       style="font-style:normal;font-variant:normal;font-weight:normal;font-stretch:normal;font-size:22.5px;font-family:Charter;-inkscape-font-specification:Charter"
       y="252.20886"
       x="391.38467"
       id="tspan4305"
       sodipodi:role="line">LO</tspan></text>
</svg>
