<?xml version="1.0" encoding="UTF-8" standalone="no"?>
<svg
   xmlns:dc="http://purl.org/dc/elements/1.1/"
   xmlns:cc="http://creativecommons.org/ns#"
   xmlns:rdf="http://www.w3.org/1999/02/22-rdf-syntax-ns#"
   xmlns:svg="http://www.w3.org/2000/svg"
   xmlns="http://www.w3.org/2000/svg"
   xmlns:sodipodi="http://sodipodi.sourceforge.net/DTD/sodipodi-0.dtd"
   xmlns:inkscape="http://www.inkscape.org/namespaces/inkscape"
   style="fill-opacity:1; color-rendering:auto; color-interpolation:auto; stroke:black; text-rendering:auto; stroke-linecap:square; stroke-miterlimit:10; stroke-opacity:1; shape-rendering:auto; fill:black; stroke-dasharray:none; font-weight:normal; stroke-width:1; font-family:'Dialog'; font-style:normal; stroke-linejoin:miter; font-size:12px; stroke-dashoffset:0; image-rendering:auto;"
   width="779"
   height="484"
   id="svg18796"
   version="1.1"
   inkscape:version="0.91 r13725"
   sodipodi:docname="abs1.svg">
  <metadata
     id="metadata18959">
    <rdf:RDF>
      <cc:Work
         rdf:about="">
        <dc:format>image/svg+xml</dc:format>
        <dc:type
           rdf:resource="http://purl.org/dc/dcmitype/StillImage" />
      </cc:Work>
    </rdf:RDF>
  </metadata>
  <sodipodi:namedview
     pagecolor="#ffffff"
     bordercolor="#666666"
     borderopacity="1"
     objecttolerance="10"
     gridtolerance="10"
     guidetolerance="10"
     inkscape:pageopacity="0"
     inkscape:pageshadow="2"
     inkscape:window-width="875"
     inkscape:window-height="760"
     id="namedview18957"
     showgrid="false"
     inkscape:zoom="1.1255615"
     inkscape:cx="318.42436"
     inkscape:cy="170.92436"
     inkscape:window-x="0"
     inkscape:window-y="0"
     inkscape:window-maximized="0"
     inkscape:current-layer="svg18796" />
  <!--Generated by the Batik Graphics2D SVG Generator-->
  <defs
     id="genericDefs">
    <defs
       id="defs1">
      <clipPath
         id="clipPath1"
         clipPathUnits="userSpaceOnUse">
        <path
           id="path18803"
           d="M0 0 L779 0 L779 484 L0 484 L0 0 Z" />
      </clipPath>
    </defs>
  </defs>
  <g
     id="g18805"
     style="fill:#ffffff;stroke:#ffffff">
    <rect
       clip-path="url(#clipPath1)"
       id="rect18807"
       height="484"
       style="stroke:none"
       width="779"
       y="0"
       x="0" />
  </g>
  <g
     id="g18809"
     style="color-interpolation:sRGB;fill:#ffffff;stroke:#ffffff;color-rendering:optimizeSpeed;image-rendering:optimizeSpeed;shape-rendering:crispEdges;text-rendering:optimizeSpeed">
    <rect
       clip-path="url(#clipPath1)"
       id="rect18811"
       height="484"
       style="stroke:none"
       width="779"
       y="0"
       x="0" />
    <path
       inkscape:connector-curvature="0"
       id="path18813"
       d="m 101,418 604,0 0,-382 -604,0 z"
       style="stroke:none" />
  </g>
  <g
     id="g18815"
     style="font-weight:bold;font-size:26px;font-family:mwb_cmmi10;color-interpolation:linearRGB;fill:#262626;stroke:#262626;color-rendering:optimizeQuality;image-rendering:optimizeQuality;text-rendering:geometricPrecision"
     transform="translate(362,479)">
    <path
       inkscape:connector-curvature="0"
       id="path18817"
       d="m 1.3281,-0.4375 q 0,-0.3906 0.3281,-0.7344 L 8.9688,-8.3438 6.4062,-15.5781 Q 6.0938,-16.4062 5.7578,-16.8906 5.4219,-17.375 4.7812,-17.375 4.5,-17.375 4.5,-17.7031 q 0.0156,-0.1563 0.1172,-0.25 0.1016,-0.0938 0.2734,-0.0938 3.7344,0 4.2969,1.625 l 5.2813,14.7344 q 0.3437,1.1094 0.7031,1.4844 0.125,0.1875 0.125,0.25 0,0.25 -1.2031,0.25 l -1.4063,0 Q 12.0312,0.1094 11.6562,-0.8438 L 9.5625,-6.6562 4,-0.1094 q -0.4688,0.4532 -1.8438,0.4532 -0.3281,0 -0.5781,-0.2266 -0.25,-0.2266 -0.25,-0.5547 z"
       style="stroke:none" />
  </g>
  <g
     id="g18819"
     style="font-weight:bold;font-size:26px;font-family:'Helvetica Neue';color-interpolation:linearRGB;fill:#262626;stroke:#262626;color-rendering:optimizeQuality;image-rendering:optimizeQuality;text-rendering:geometricPrecision"
     transform="translate(379,479)">
    <path
       inkscape:connector-curvature="0"
       id="path18821"
       d="m 8.996,-19.006 0,23.712 6.864,0 0,-2.912 -3.172,0 0,-17.888 3.172,0 0,-2.912 z m 8.294,5.564 0,13.442 3.692,0 0,-7.046 q 0,-2.054 0.676,-2.951 0.676,-0.897 2.184,-0.897 1.326,0 1.846,0.819 0.52,0.819 0.52,2.483 l 0,7.592 3.692,0 0,-8.268 q 0,-1.248 -0.221,-2.275 -0.221,-1.027 -0.767,-1.742 -0.546,-0.715 -1.495,-1.118 -0.949,-0.403 -2.431,-0.403 -1.17,0 -2.288,0.533 -1.118,0.533 -1.82,1.703 l -0.078,0 0,-1.872 z m 15.522,0 0,13.442 3.692,0 0,-7.8 q 0,-0.988 0.286,-1.599 0.286,-0.611 0.689,-0.936 0.403,-0.325 0.832,-0.442 0.429,-0.117 0.689,-0.117 0.884,0 1.339,0.299 0.455,0.299 0.65,0.793 0.195,0.494 0.221,1.079 0.026,0.585 0.026,1.183 l 0,7.54 3.692,0 0,-7.488 q 0,-0.624 0.091,-1.235 0.091,-0.611 0.364,-1.092 0.273,-0.481 0.754,-0.78 0.481,-0.299 1.261,-0.299 0.78,0 1.235,0.26 0.455,0.26 0.689,0.702 0.234,0.442 0.286,1.04 0.052,0.598 0.052,1.274 l 0,7.618 3.692,0 0,-8.996 q 0,-1.3 -0.364,-2.223 -0.364,-0.923 -1.014,-1.495 -0.65,-0.572 -1.56,-0.832 -0.91,-0.26 -1.976,-0.26 -1.404,0 -2.431,0.676 -1.027,0.676 -1.625,1.56 -0.546,-1.248 -1.599,-1.742 -1.053,-0.494 -2.327,-0.494 -1.326,0 -2.353,0.572 -1.027,0.572 -1.755,1.612 l -0.052,0 0,-1.82 z m 28.938,18.148 0,-23.712 -6.864,0 0,2.912 3.172,0 0,17.888 -3.172,0 0,2.912 z"
       style="stroke:none" />
  </g>
  <g
     id="g18823"
     style="color-interpolation:linearRGB;fill:#262626;stroke:#262626;color-rendering:optimizeQuality;image-rendering:optimizeQuality;text-rendering:geometricPrecision">
    <line
       id="line18825"
       y1="418"
       x2="705"
       x1="101"
       style="fill:none"
       y2="418" />
    <line
       id="line18827"
       y1="418"
       x2="138.75"
       x1="138.75"
       style="fill:none"
       y2="411.95999" />
    <line
       id="line18829"
       y1="418"
       x2="327.5"
       x1="327.5"
       style="fill:none"
       y2="411.95999" />
    <line
       id="line18831"
       y1="418"
       x2="516.25"
       x1="516.25"
       style="fill:none"
       y2="411.95999" />
    <line
       id="line18833"
       y1="418"
       x2="705"
       x1="705"
       style="fill:none"
       y2="411.95999" />
  </g>
  <g
     id="g18835"
     style="font-weight:bold;font-size:24px;font-family:'Helvetica Neue';color-interpolation:linearRGB;fill:#262626;stroke:#262626;color-rendering:optimizeQuality;image-rendering:optimizeQuality;text-rendering:geometricPrecision"
     transform="translate(138.75,424.8)">
    <path
       inkscape:connector-curvature="0"
       id="path18837"
       d="m -8.016,9.408 0,-2.808 -9.384,0 -1.656,9.288 3.072,0 q 0.504,-0.696 1.08,-1.02 0.576,-0.324 1.488,-0.324 0.696,0 1.224,0.24 0.528,0.24 0.912,0.672 0.384,0.432 0.576,1.008 0.192,0.576 0.192,1.224 0,0.624 -0.204,1.212 -0.204,0.588 -0.576,1.032 -0.372,0.444 -0.912,0.72 -0.54,0.276 -1.212,0.276 -1.152,0 -1.896,-0.684 -0.744,-0.684 -0.864,-1.836 l -3.408,0 q 0.024,1.32 0.54,2.316 0.516,0.996 1.38,1.668 0.864,0.672 1.98,0.996 1.116,0.324 2.34,0.324 1.272,0.024 2.4,-0.42 1.128,-0.444 1.98,-1.26 0.852,-0.816 1.356,-1.932 0.504,-1.116 0.504,-2.412 0,-1.176 -0.348,-2.22 -0.348,-1.044 -1.008,-1.812 -0.66,-0.768 -1.62,-1.224 -0.96,-0.456 -2.208,-0.456 -1.008,0 -1.8,0.3 -0.792,0.3 -1.488,0.996 l -0.048,-0.048 0.672,-3.816 z m 5.256,5.52 q 0,-0.432 0.012,-1.044 0.012,-0.612 0.084,-1.26 0.072,-0.648 0.24,-1.284 0.168,-0.636 0.468,-1.14 0.3,-0.504 0.768,-0.816 0.468,-0.312 1.164,-0.312 0.696,0 1.176,0.312 0.48,0.312 0.792,0.816 0.312,0.504 0.468,1.14 0.156,0.636 0.24,1.284 0.084,0.648 0.096,1.26 0.012,0.612 0.012,1.044 0,0.72 -0.048,1.74 -0.048,1.02 -0.3,1.968 -0.252,0.948 -0.816,1.62 -0.564,0.672 -1.62,0.672 -1.032,0 -1.584,-0.672 -0.552,-0.672 -0.804,-1.62 -0.252,-0.948 -0.3,-1.968 -0.048,-1.02 -0.048,-1.74 z m -3.408,0 q 0,2.52 0.492,4.212 0.492,1.692 1.332,2.7 0.84,1.008 1.956,1.44 1.116,0.432 2.364,0.432 1.272,0 2.388,-0.432 1.116,-0.432 1.968,-1.44 0.852,-1.008 1.344,-2.7 0.492,-1.692 0.492,-4.212 0,-2.448 -0.492,-4.116 Q 5.184,9.144 4.332,8.136 3.48,7.128 2.364,6.696 1.248,6.264 -0.024,6.264 q -1.248,0 -2.364,0.432 -1.116,0.432 -1.956,1.44 -0.84,1.008 -1.332,2.676 -0.492,1.668 -0.492,4.116 z m 16.752,0 q 0,-0.432 0.012,-1.044 0.012,-0.612 0.084,-1.26 0.072,-0.648 0.24,-1.284 0.168,-0.636 0.468,-1.14 0.3,-0.504 0.768,-0.816 0.468,-0.312 1.164,-0.312 0.696,0 1.176,0.312 0.48,0.312 0.792,0.816 0.312,0.504 0.468,1.14 0.156,0.636 0.24,1.284 0.084,0.648 0.096,1.26 0.012,0.612 0.012,1.044 0,0.72 -0.048,1.74 -0.048,1.02 -0.3,1.968 -0.252,0.948 -0.816,1.62 -0.564,0.672 -1.62,0.672 -1.032,0 -1.584,-0.672 -0.552,-0.672 -0.804,-1.62 -0.252,-0.948 -0.3,-1.968 -0.048,-1.02 -0.048,-1.74 z m -3.408,0 q 0,2.52 0.492,4.212 0.492,1.692 1.332,2.7 0.84,1.008 1.956,1.44 1.116,0.432 2.364,0.432 1.272,0 2.388,-0.432 1.116,-0.432 1.968,-1.44 0.852,-1.008 1.344,-2.7 0.492,-1.692 0.492,-4.212 0,-2.448 -0.492,-4.116 Q 18.528,9.144 17.676,8.136 16.824,7.128 15.708,6.696 14.592,6.264 13.32,6.264 12.072,6.264 10.956,6.696 9.84,7.128 9,8.136 8.16,9.144 7.668,10.812 7.176,12.48 7.176,14.928 Z"
       style="stroke:none" />
  </g>
  <g
     id="g18839"
     style="font-weight:bold;font-size:24px;font-family:'Helvetica Neue';color-interpolation:linearRGB;fill:#262626;stroke:#262626;color-rendering:optimizeQuality;image-rendering:optimizeQuality;text-rendering:geometricPrecision"
     transform="translate(327.5,424.8)">
    <path
       inkscape:connector-curvature="0"
       id="path18841"
       d="m -17.28,23.4 0,-16.8 -2.712,0 q -0.144,0.96 -0.6,1.608 -0.456,0.648 -1.116,1.044 -0.66,0.396 -1.488,0.552 -0.828,0.156 -1.716,0.132 l 0,2.568 4.224,0 0,10.896 z m 7.848,-8.472 q 0,-0.432 0.012,-1.044 0.012,-0.612 0.084,-1.26 0.072,-0.648 0.24,-1.284 0.168,-0.636 0.468,-1.14 0.3,-0.504 0.768,-0.816 0.468,-0.312 1.164,-0.312 0.696,0 1.176,0.312 0.48,0.312 0.792,0.816 0.312,0.504 0.468,1.14 0.156,0.636 0.24,1.284 0.084,0.648 0.096,1.26 0.012,0.612 0.012,1.044 0,0.72 -0.048,1.74 -0.048,1.02 -0.3,1.968 -0.252,0.948 -0.816,1.62 -0.564,0.672 -1.62,0.672 -1.032,0 -1.584,-0.672 -0.552,-0.672 -0.804,-1.62 -0.252,-0.948 -0.3,-1.968 -0.048,-1.02 -0.048,-1.74 z m -3.408,0 q 0,2.52 0.492,4.212 0.492,1.692 1.332,2.7 0.84,1.008 1.956,1.44 1.116,0.432 2.364,0.432 1.272,0 2.388,-0.432 1.116,-0.432 1.968,-1.44 0.852,-1.008 1.344,-2.7 0.492,-1.692 0.492,-4.212 0,-2.448 -0.492,-4.116 Q -1.488,9.144 -2.34,8.136 -3.192,7.128 -4.308,6.696 -5.424,6.264 -6.696,6.264 q -1.248,0 -2.364,0.432 -1.116,0.432 -1.956,1.44 -0.84,1.008 -1.332,2.676 -0.492,1.668 -0.492,4.116 z m 16.752,0 q 0,-0.432 0.012,-1.044 0.012,-0.612 0.084,-1.26 0.072,-0.648 0.24,-1.284 0.168,-0.636 0.468,-1.14 0.3,-0.504 0.768,-0.816 0.468,-0.312 1.164,-0.312 0.696,0 1.176,0.312 0.48,0.312 0.792,0.816 0.312,0.504 0.468,1.14 0.156,0.636 0.24,1.284 0.084,0.648 0.096,1.26 0.012,0.612 0.012,1.044 0,0.72 -0.048,1.74 -0.048,1.02 -0.3,1.968 -0.252,0.948 -0.816,1.62 -0.564,0.672 -1.62,0.672 -1.032,0 -1.584,-0.672 Q 4.512,19.584 4.26,18.636 4.008,17.688 3.96,16.668 3.912,15.648 3.912,14.928 Z m -3.408,0 q 0,2.52 0.492,4.212 0.492,1.692 1.332,2.7 0.84,1.008 1.956,1.44 1.116,0.432 2.364,0.432 1.272,0 2.388,-0.432 1.116,-0.432 1.968,-1.44 0.852,-1.008 1.344,-2.7 0.492,-1.692 0.492,-4.212 0,-2.448 -0.492,-4.116 Q 11.856,9.144 11.004,8.136 10.152,7.128 9.036,6.696 7.92,6.264 6.648,6.264 5.4,6.264 4.284,6.696 3.168,7.128 2.328,8.136 1.488,9.144 0.996,10.812 0.504,12.48 0.504,14.928 Z m 16.752,0 q 0,-0.432 0.012,-1.044 0.012,-0.612 0.084,-1.26 0.072,-0.648 0.24,-1.284 0.168,-0.636 0.468,-1.14 0.3,-0.504 0.768,-0.816 0.468,-0.312 1.164,-0.312 0.696,0 1.176,0.312 0.48,0.312 0.792,0.816 0.312,0.504 0.468,1.14 0.156,0.636 0.24,1.284 0.084,0.648 0.096,1.26 0.012,0.612 0.012,1.044 0,0.72 -0.048,1.74 -0.048,1.02 -0.3,1.968 -0.252,0.948 -0.816,1.62 -0.564,0.672 -1.62,0.672 -1.032,0 -1.584,-0.672 -0.552,-0.672 -0.804,-1.62 -0.252,-0.948 -0.3,-1.968 -0.048,-1.02 -0.048,-1.74 z m -3.408,0 q 0,2.52 0.492,4.212 0.492,1.692 1.332,2.7 0.84,1.008 1.956,1.44 1.116,0.432 2.364,0.432 1.272,0 2.388,-0.432 1.116,-0.432 1.968,-1.44 0.852,-1.008 1.344,-2.7 0.492,-1.692 0.492,-4.212 0,-2.448 -0.492,-4.116 Q 25.2,9.144 24.348,8.136 23.496,7.128 22.38,6.696 21.264,6.264 19.992,6.264 q -1.248,0 -2.364,0.432 -1.116,0.432 -1.956,1.44 -0.84,1.008 -1.332,2.676 -0.492,1.668 -0.492,4.116 z"
       style="stroke:none" />
  </g>
  <g
     id="g18843"
     style="font-weight:bold;font-size:24px;font-family:'Helvetica Neue';color-interpolation:linearRGB;fill:#262626;stroke:#262626;color-rendering:optimizeQuality;image-rendering:optimizeQuality;text-rendering:geometricPrecision"
     transform="translate(516.25,424.8)">
    <path
       inkscape:connector-curvature="0"
       id="path18845"
       d="m -17.28,23.4 0,-16.8 -2.712,0 q -0.144,0.96 -0.6,1.608 -0.456,0.648 -1.116,1.044 -0.66,0.396 -1.488,0.552 -0.828,0.156 -1.716,0.132 l 0,2.568 4.224,0 0,10.896 z m 15.936,-13.992 0,-2.808 -9.384,0 -1.656,9.288 3.072,0 q 0.504,-0.696 1.08,-1.02 0.576,-0.324 1.488,-0.324 0.696,0 1.224,0.24 0.528,0.24 0.912,0.672 0.384,0.432 0.576,1.008 0.192,0.576 0.192,1.224 0,0.624 -0.204,1.212 -0.204,0.588 -0.576,1.032 -0.372,0.444 -0.912,0.72 -0.54,0.276 -1.212,0.276 -1.152,0 -1.896,-0.684 -0.744,-0.684 -0.864,-1.836 l -3.408,0 q 0.024,1.32 0.54,2.316 0.516,0.996 1.38,1.668 0.864,0.672 1.98,0.996 1.116,0.324 2.34,0.324 1.272,0.024 2.4,-0.42 1.128,-0.444 1.98,-1.26 0.852,-0.816 1.356,-1.932 0.504,-1.116 0.504,-2.412 0,-1.176 -0.348,-2.22 -0.348,-1.044 -1.008,-1.812 -0.66,-0.768 -1.62,-1.224 -0.96,-0.456 -2.208,-0.456 -1.008,0 -1.8,0.3 -0.792,0.3 -1.488,0.996 L -8.952,13.224 -8.28,9.408 Z m 5.256,5.52 q 0,-0.432 0.012,-1.044 0.012,-0.612 0.084,-1.26 0.072,-0.648 0.24,-1.284 0.168,-0.636 0.468,-1.14 0.3,-0.504 0.768,-0.816 0.468,-0.312 1.164,-0.312 0.696,0 1.176,0.312 0.48,0.312 0.792,0.816 0.312,0.504 0.468,1.14 0.156,0.636 0.24,1.284 0.084,0.648 0.096,1.26 0.012,0.612 0.012,1.044 0,0.72 -0.048,1.74 -0.048,1.02 -0.3,1.968 -0.252,0.948 -0.816,1.62 -0.564,0.672 -1.62,0.672 -1.032,0 -1.584,-0.672 Q 4.512,19.584 4.26,18.636 4.008,17.688 3.96,16.668 3.912,15.648 3.912,14.928 Z m -3.408,0 q 0,2.52 0.492,4.212 0.492,1.692 1.332,2.7 0.84,1.008 1.956,1.44 1.116,0.432 2.364,0.432 1.272,0 2.388,-0.432 1.116,-0.432 1.968,-1.44 0.852,-1.008 1.344,-2.7 0.492,-1.692 0.492,-4.212 0,-2.448 -0.492,-4.116 Q 11.856,9.144 11.004,8.136 10.152,7.128 9.036,6.696 7.92,6.264 6.648,6.264 5.4,6.264 4.284,6.696 3.168,7.128 2.328,8.136 1.488,9.144 0.996,10.812 0.504,12.48 0.504,14.928 Z m 16.752,0 q 0,-0.432 0.012,-1.044 0.012,-0.612 0.084,-1.26 0.072,-0.648 0.24,-1.284 0.168,-0.636 0.468,-1.14 0.3,-0.504 0.768,-0.816 0.468,-0.312 1.164,-0.312 0.696,0 1.176,0.312 0.48,0.312 0.792,0.816 0.312,0.504 0.468,1.14 0.156,0.636 0.24,1.284 0.084,0.648 0.096,1.26 0.012,0.612 0.012,1.044 0,0.72 -0.048,1.74 -0.048,1.02 -0.3,1.968 -0.252,0.948 -0.816,1.62 -0.564,0.672 -1.62,0.672 -1.032,0 -1.584,-0.672 -0.552,-0.672 -0.804,-1.62 -0.252,-0.948 -0.3,-1.968 -0.048,-1.02 -0.048,-1.74 z m -3.408,0 q 0,2.52 0.492,4.212 0.492,1.692 1.332,2.7 0.84,1.008 1.956,1.44 1.116,0.432 2.364,0.432 1.272,0 2.388,-0.432 1.116,-0.432 1.968,-1.44 0.852,-1.008 1.344,-2.7 0.492,-1.692 0.492,-4.212 0,-2.448 -0.492,-4.116 Q 25.2,9.144 24.348,8.136 23.496,7.128 22.38,6.696 21.264,6.264 19.992,6.264 q -1.248,0 -2.364,0.432 -1.116,0.432 -1.956,1.44 -0.84,1.008 -1.332,2.676 -0.492,1.668 -0.492,4.116 z"
       style="stroke:none" />
  </g>
  <g
     id="g18847"
     style="font-weight:bold;font-size:24px;font-family:'Helvetica Neue';color-interpolation:linearRGB;fill:#262626;stroke:#262626;color-rendering:optimizeQuality;image-rendering:optimizeQuality;text-rendering:geometricPrecision"
     transform="translate(705,424.8)">
    <path
       inkscape:connector-curvature="0"
       id="path18849"
       d="m -25.8,13.056 3.264,0 q 0,-0.672 0.132,-1.356 0.132,-0.684 0.444,-1.248 0.312,-0.564 0.828,-0.912 0.516,-0.348 1.26,-0.348 1.104,0 1.812,0.684 0.708,0.684 0.708,1.908 0,0.768 -0.348,1.368 -0.348,0.6 -0.864,1.08 -0.516,0.48 -1.14,0.876 -0.624,0.396 -1.176,0.78 -1.08,0.744 -2.052,1.464 -0.972,0.72 -1.692,1.572 -0.72,0.852 -1.14,1.932 -0.42,1.08 -0.42,2.544 l 12.336,0 0,-2.928 -7.944,0 q 0.624,-0.864 1.44,-1.512 0.816,-0.648 1.68,-1.212 0.864,-0.564 1.716,-1.14 0.852,-0.576 1.524,-1.284 0.672,-0.708 1.08,-1.62 0.408,-0.912 0.408,-2.184 0,-1.224 -0.468,-2.208 -0.468,-0.984 -1.26,-1.656 -0.792,-0.672 -1.836,-1.032 -1.044,-0.36 -2.196,-0.36 -1.512,0 -2.676,0.516 -1.164,0.516 -1.932,1.44 -0.768,0.924 -1.152,2.16 -0.384,1.236 -0.336,2.676 z m 16.368,1.872 q 0,-0.432 0.012,-1.044 0.012,-0.612 0.084,-1.26 0.072,-0.648 0.24,-1.284 0.168,-0.636 0.468,-1.14 0.3,-0.504 0.768,-0.816 0.468,-0.312 1.164,-0.312 0.696,0 1.176,0.312 0.48,0.312 0.792,0.816 0.312,0.504 0.468,1.14 0.156,0.636 0.24,1.284 0.084,0.648 0.096,1.26 0.012,0.612 0.012,1.044 0,0.72 -0.048,1.74 -0.048,1.02 -0.3,1.968 -0.252,0.948 -0.816,1.62 -0.564,0.672 -1.62,0.672 -1.032,0 -1.584,-0.672 -0.552,-0.672 -0.804,-1.62 -0.252,-0.948 -0.3,-1.968 -0.048,-1.02 -0.048,-1.74 z m -3.408,0 q 0,2.52 0.492,4.212 0.492,1.692 1.332,2.7 0.84,1.008 1.956,1.44 1.116,0.432 2.364,0.432 1.272,0 2.388,-0.432 1.116,-0.432 1.968,-1.44 0.852,-1.008 1.344,-2.7 0.492,-1.692 0.492,-4.212 0,-2.448 -0.492,-4.116 Q -1.488,9.144 -2.34,8.136 -3.192,7.128 -4.308,6.696 -5.424,6.264 -6.696,6.264 q -1.248,0 -2.364,0.432 -1.116,0.432 -1.956,1.44 -0.84,1.008 -1.332,2.676 -0.492,1.668 -0.492,4.116 z m 16.752,0 q 0,-0.432 0.012,-1.044 0.012,-0.612 0.084,-1.26 0.072,-0.648 0.24,-1.284 0.168,-0.636 0.468,-1.14 0.3,-0.504 0.768,-0.816 0.468,-0.312 1.164,-0.312 0.696,0 1.176,0.312 0.48,0.312 0.792,0.816 0.312,0.504 0.468,1.14 0.156,0.636 0.24,1.284 0.084,0.648 0.096,1.26 0.012,0.612 0.012,1.044 0,0.72 -0.048,1.74 -0.048,1.02 -0.3,1.968 -0.252,0.948 -0.816,1.62 -0.564,0.672 -1.62,0.672 -1.032,0 -1.584,-0.672 Q 4.512,19.584 4.26,18.636 4.008,17.688 3.96,16.668 3.912,15.648 3.912,14.928 Z m -3.408,0 q 0,2.52 0.492,4.212 0.492,1.692 1.332,2.7 0.84,1.008 1.956,1.44 1.116,0.432 2.364,0.432 1.272,0 2.388,-0.432 1.116,-0.432 1.968,-1.44 0.852,-1.008 1.344,-2.7 0.492,-1.692 0.492,-4.212 0,-2.448 -0.492,-4.116 Q 11.856,9.144 11.004,8.136 10.152,7.128 9.036,6.696 7.92,6.264 6.648,6.264 5.4,6.264 4.284,6.696 3.168,7.128 2.328,8.136 1.488,9.144 0.996,10.812 0.504,12.48 0.504,14.928 Z m 16.752,0 q 0,-0.432 0.012,-1.044 0.012,-0.612 0.084,-1.26 0.072,-0.648 0.24,-1.284 0.168,-0.636 0.468,-1.14 0.3,-0.504 0.768,-0.816 0.468,-0.312 1.164,-0.312 0.696,0 1.176,0.312 0.48,0.312 0.792,0.816 0.312,0.504 0.468,1.14 0.156,0.636 0.24,1.284 0.084,0.648 0.096,1.26 0.012,0.612 0.012,1.044 0,0.72 -0.048,1.74 -0.048,1.02 -0.3,1.968 -0.252,0.948 -0.816,1.62 -0.564,0.672 -1.62,0.672 -1.032,0 -1.584,-0.672 -0.552,-0.672 -0.804,-1.62 -0.252,-0.948 -0.3,-1.968 -0.048,-1.02 -0.048,-1.74 z m -3.408,0 q 0,2.52 0.492,4.212 0.492,1.692 1.332,2.7 0.84,1.008 1.956,1.44 1.116,0.432 2.364,0.432 1.272,0 2.388,-0.432 1.116,-0.432 1.968,-1.44 0.852,-1.008 1.344,-2.7 0.492,-1.692 0.492,-4.212 0,-2.448 -0.492,-4.116 Q 25.2,9.144 24.348,8.136 23.496,7.128 22.38,6.696 21.264,6.264 19.992,6.264 q -1.248,0 -2.364,0.432 -1.116,0.432 -1.956,1.44 -0.84,1.008 -1.332,2.676 -0.492,1.668 -0.492,4.116 z"
       style="stroke:none" />
  </g>
  <g
     id="g18851"
     style="font-weight:bold;font-size:26px;font-family:'Helvetica Neue';color-interpolation:linearRGB;fill:#262626;stroke:#262626;color-rendering:optimizeQuality;image-rendering:optimizeQuality;text-rendering:geometricPrecision"
     transform="matrix(0,-1,1,0,77.856,227)">
    <path
       inkscape:connector-curvature="0"
       id="path18853"
       d="m -133.614,-12.572 2.418,-6.812 0.052,0 2.34,6.812 z m 0.39,-11.388 -7.02,18.564 4.108,0 1.456,-4.134 6.942,0 1.404,4.134 4.238,0 -6.942,-18.564 z m 22.204,11.856 q 0,0.832 -0.182,1.612 -0.182,0.78 -0.572,1.378 -0.39,0.598 -0.975,0.949 -0.585,0.351 -1.417,0.351 -0.806,0 -1.404,-0.351 -0.598,-0.351 -0.988,-0.949 -0.39,-0.598 -0.572,-1.378 -0.182,-0.78 -0.182,-1.612 0,-0.858 0.182,-1.638 0.182,-0.78 0.572,-1.378 0.39,-0.598 0.988,-0.949 0.598,-0.351 1.404,-0.351 0.832,0 1.417,0.351 0.585,0.351 0.975,0.949 0.39,0.598 0.572,1.378 0.182,0.78 0.182,1.638 z m -9.854,-11.856 0,18.564 3.51,0 0,-1.716 0.052,0 q 0.598,1.118 1.768,1.586 1.17,0.468 2.652,0.468 1.014,0 2.002,-0.416 0.988,-0.416 1.781,-1.274 0.793,-0.858 1.287,-2.197 0.494,-1.339 0.494,-3.185 0,-1.846 -0.494,-3.185 -0.494,-1.339 -1.287,-2.197 -0.793,-0.858 -1.781,-1.274 -0.988,-0.416 -2.002,-0.416 -1.248,0 -2.405,0.481 -1.157,0.481 -1.833,1.521 l -0.052,0 0,-6.76 z m 18.746,14.196 -3.51,0 q 0.052,1.352 0.611,2.249 0.559,0.897 1.43,1.443 0.871,0.546 1.989,0.78 1.118,0.234 2.288,0.234 1.144,0 2.249,-0.221 1.105,-0.221 1.963,-0.767 0.858,-0.546 1.391,-1.443 0.533,-0.897 0.533,-2.223 0,-0.936 -0.364,-1.573 -0.364,-0.637 -0.962,-1.066 -0.598,-0.429 -1.365,-0.689 -0.767,-0.26 -1.573,-0.442 -0.78,-0.182 -1.534,-0.338 -0.754,-0.156 -1.339,-0.351 -0.585,-0.195 -0.949,-0.507 -0.364,-0.312 -0.364,-0.806 0,-0.416 0.208,-0.663 0.208,-0.247 0.507,-0.377 0.299,-0.13 0.663,-0.169 0.364,-0.039 0.676,-0.039 0.988,0 1.716,0.377 0.728,0.377 0.806,1.443 l 3.51,0 q -0.104,-1.248 -0.637,-2.067 -0.533,-0.819 -1.339,-1.313 -0.806,-0.494 -1.833,-0.702 -1.027,-0.208 -2.119,-0.208 -1.092,0 -2.132,0.195 -1.04,0.195 -1.872,0.676 -0.832,0.481 -1.339,1.313 -0.507,0.832 -0.507,2.132 0,0.884 0.364,1.495 0.364,0.611 0.962,1.014 0.598,0.403 1.365,0.65 0.767,0.247 1.573,0.429 1.976,0.416 3.081,0.832 1.105,0.416 1.105,1.248 0,0.494 -0.234,0.819 -0.234,0.325 -0.585,0.52 -0.351,0.195 -0.78,0.286 -0.429,0.091 -0.819,0.091 -0.546,0 -1.053,-0.13 -0.507,-0.13 -0.897,-0.403 -0.39,-0.273 -0.637,-0.702 -0.247,-0.429 -0.247,-1.027 z m 14.378,-2.34 q 0,-0.806 0.156,-1.586 0.156,-0.78 0.533,-1.378 0.377,-0.598 1.001,-0.975 0.624,-0.377 1.56,-0.377 0.936,0 1.573,0.377 0.637,0.377 1.014,0.975 0.377,0.598 0.533,1.378 0.156,0.78 0.156,1.586 0,0.806 -0.156,1.573 -0.156,0.767 -0.533,1.378 -0.377,0.611 -1.014,0.975 -0.637,0.364 -1.573,0.364 -0.936,0 -1.56,-0.364 -0.624,-0.364 -1.001,-0.975 -0.377,-0.611 -0.533,-1.378 -0.156,-0.767 -0.156,-1.573 z m -3.692,0 q 0,1.612 0.494,2.912 0.494,1.3 1.404,2.223 0.91,0.923 2.184,1.417 1.274,0.494 2.86,0.494 1.586,0 2.873,-0.494 1.287,-0.494 2.197,-1.417 0.91,-0.923 1.404,-2.223 0.494,-1.3 0.494,-2.912 0,-1.612 -0.494,-2.925 -0.494,-1.313 -1.404,-2.236 -0.91,-0.923 -2.197,-1.43 -1.287,-0.507 -2.873,-0.507 -1.586,0 -2.86,0.507 -1.274,0.507 -2.184,1.43 -0.91,0.923 -1.404,2.236 -0.494,1.313 -0.494,2.925 z m 16.302,-6.734 0,13.442 3.692,0 0,-6.058 q 0,-0.91 0.182,-1.69 0.182,-0.78 0.611,-1.365 0.429,-0.585 1.131,-0.923 0.702,-0.338 1.716,-0.338 0.338,0 0.702,0.039 0.364,0.039 0.624,0.091 l 0,-3.432 q -0.442,-0.13 -0.806,-0.13 -0.702,0 -1.352,0.208 -0.65,0.208 -1.222,0.585 -0.572,0.377 -1.014,0.91 -0.442,0.533 -0.702,1.157 l -0.052,0 0,-2.496 z m 16.9,11.024 q -0.884,0 -1.508,-0.364 -0.624,-0.364 -1.001,-0.949 -0.377,-0.585 -0.546,-1.365 -0.169,-0.78 -0.169,-1.586 0,-0.832 0.156,-1.612 0.156,-0.78 0.533,-1.378 0.377,-0.598 0.988,-0.975 0.611,-0.377 1.521,-0.377 0.884,0 1.495,0.377 0.611,0.377 1.001,0.988 0.39,0.611 0.559,1.391 0.169,0.78 0.169,1.586 0,0.806 -0.156,1.586 -0.156,0.78 -0.533,1.365 -0.377,0.585 -0.988,0.949 -0.611,0.364 -1.521,0.364 z m -6.786,-11.024 0,18.148 3.692,0 0,-6.37 0.052,0 q 0.676,0.988 1.729,1.495 1.053,0.507 2.301,0.507 1.482,0 2.587,-0.572 1.105,-0.572 1.846,-1.534 0.741,-0.962 1.105,-2.21 0.364,-1.248 0.364,-2.6 0,-1.43 -0.364,-2.743 -0.364,-1.313 -1.118,-2.301 -0.754,-0.988 -1.898,-1.586 -1.144,-0.598 -2.73,-0.598 -1.248,0 -2.288,0.494 -1.04,0.494 -1.716,1.586 l -0.052,0 0,-1.716 z m 20.566,0 0,-4.03 -3.692,0 0,4.03 -2.236,0 0,2.47 2.236,0 0,7.93 q 0,1.014 0.338,1.638 0.338,0.624 0.923,0.962 0.585,0.338 1.352,0.455 0.767,0.117 1.625,0.117 0.546,0 1.118,-0.026 0.572,-0.026 1.04,-0.104 l 0,-2.86 q -0.26,0.052 -0.546,0.078 -0.286,0.026 -0.598,0.026 -0.936,0 -1.248,-0.312 -0.312,-0.312 -0.312,-1.248 l 0,-6.656 2.704,0 0,-2.47 z m 8.268,-2.08 0,-3.042 -3.692,0 0,3.042 z m -3.692,2.08 0,13.442 3.692,0 0,-13.442 z m 9.88,6.734 q 0,-0.806 0.156,-1.586 0.156,-0.78 0.533,-1.378 0.377,-0.598 1.001,-0.975 0.624,-0.377 1.56,-0.377 0.936,0 1.573,0.377 0.637,0.377 1.014,0.975 0.377,0.598 0.533,1.378 0.156,0.78 0.156,1.586 0,0.806 -0.156,1.573 -0.156,0.767 -0.533,1.378 -0.377,0.611 -1.014,0.975 -0.637,0.364 -1.573,0.364 -0.936,0 -1.56,-0.364 -0.624,-0.364 -1.001,-0.975 -0.377,-0.611 -0.533,-1.378 -0.156,-0.767 -0.156,-1.573 z m -3.692,0 q 0,1.612 0.494,2.912 0.494,1.3 1.404,2.223 0.91,0.923 2.184,1.417 1.274,0.494 2.86,0.494 1.586,0 2.873,-0.494 1.287,-0.494 2.197,-1.417 0.91,-0.923 1.404,-2.223 0.494,-1.3 0.494,-2.912 0,-1.612 -0.494,-2.925 -0.494,-1.313 -1.404,-2.236 -0.91,-0.923 -2.197,-1.43 -1.287,-0.507 -2.873,-0.507 -1.586,0 -2.86,0.507 -1.274,0.507 -2.184,1.43 -0.91,0.923 -1.404,2.236 -0.494,1.313 -0.494,2.925 z m 16.302,-6.734 0,13.442 3.692,0 0,-7.046 q 0,-2.054 0.676,-2.951 0.676,-0.897 2.184,-0.897 1.326,0 1.846,0.819 0.52,0.819 0.52,2.483 l 0,7.592 3.692,0 0,-8.268 q 0,-1.248 -0.221,-2.275 -0.221,-1.027 -0.767,-1.742 -0.546,-0.715 -1.495,-1.118 -0.949,-0.403 -2.431,-0.403 -1.17,0 -2.288,0.533 -1.118,0.533 -1.82,1.703 l -0.078,0 0,-1.872 z m 23.01,-5.564 0,23.712 6.864,0 0,-2.912 -3.172,0 0,-17.888 3.172,0 0,-2.912 z m 13.364,11.83 2.418,-6.812 0.052,0 2.34,6.812 z m 0.39,-11.388 -7.02,18.564 4.108,0 1.456,-4.134 6.942,0 1.404,4.134 4.238,0 -6.942,-18.564 z m 12.35,5.122 0,13.442 3.692,0 0,-6.058 q 0,-0.91 0.182,-1.69 0.182,-0.78 0.611,-1.365 0.429,-0.585 1.131,-0.923 0.702,-0.338 1.716,-0.338 0.338,0 0.702,0.039 0.364,0.039 0.624,0.091 l 0,-3.432 q -0.442,-0.13 -0.806,-0.13 -0.702,0 -1.352,0.208 -0.65,0.208 -1.222,0.585 -0.572,0.377 -1.014,0.91 -0.442,0.533 -0.702,1.157 l -0.052,0 0,-2.496 z m 19.968,6.734 q 0,0.832 -0.182,1.612 -0.182,0.78 -0.572,1.378 -0.39,0.598 -0.975,0.949 -0.585,0.351 -1.417,0.351 -0.806,0 -1.404,-0.351 -0.598,-0.351 -0.988,-0.949 -0.39,-0.598 -0.572,-1.378 -0.182,-0.78 -0.182,-1.612 0,-0.858 0.182,-1.638 0.182,-0.78 0.572,-1.378 0.39,-0.598 0.988,-0.949 0.598,-0.351 1.404,-0.351 0.832,0 1.417,0.351 0.585,0.351 0.975,0.949 0.39,0.598 0.572,1.378 0.182,0.78 0.182,1.638 z m -9.854,-11.856 0,18.564 3.51,0 0,-1.716 0.052,0 q 0.598,1.118 1.768,1.586 1.17,0.468 2.652,0.468 1.014,0 2.002,-0.416 0.988,-0.416 1.781,-1.274 0.793,-0.858 1.287,-2.197 0.494,-1.339 0.494,-3.185 0,-1.846 -0.494,-3.185 -0.494,-1.339 -1.287,-2.197 -0.793,-0.858 -1.781,-1.274 -0.988,-0.416 -2.002,-0.416 -1.248,0 -2.405,0.481 -1.157,0.481 -1.833,1.521 l -0.052,0 0,-6.76 z m 16.042,14.56 0,4.004 4.082,0 0,-4.004 z m 26.91,4.004 0,-13.442 -3.692,0 0,7.046 q 0,2.054 -0.676,2.951 -0.676,0.897 -2.184,0.897 -1.326,0 -1.846,-0.819 -0.52,-0.819 -0.52,-2.483 l 0,-7.592 -3.692,0 0,8.268 q 0,1.248 0.221,2.275 0.221,1.027 0.767,1.742 0.546,0.715 1.495,1.105 0.949,0.39 2.431,0.39 1.17,0 2.288,-0.52 1.118,-0.52 1.82,-1.69 l 0.078,0 0,1.872 z m 2.808,-13.442 0,13.442 3.692,0 0,-7.046 q 0,-2.054 0.676,-2.951 0.676,-0.897 2.184,-0.897 1.326,0 1.846,0.819 0.52,0.819 0.52,2.483 l 0,7.592 3.692,0 0,-8.268 q 0,-1.248 -0.221,-2.275 -0.221,-1.027 -0.767,-1.742 -0.546,-0.715 -1.495,-1.118 -0.949,-0.403 -2.431,-0.403 -1.17,0 -2.288,0.533 -1.118,0.533 -1.82,1.703 l -0.078,0 0,-1.872 z m 19.214,-2.08 0,-3.042 -3.692,0 0,3.042 z m -3.692,2.08 0,13.442 3.692,0 0,-13.442 z m 11.284,0 0,-4.03 -3.692,0 0,4.03 -2.236,0 0,2.47 2.236,0 0,7.93 q 0,1.014 0.338,1.638 0.338,0.624 0.923,0.962 0.585,0.338 1.352,0.455 0.767,0.117 1.625,0.117 0.546,0 1.118,-0.026 0.572,-0.026 1.04,-0.104 l 0,-2.86 q -0.26,0.052 -0.546,0.078 -0.286,0.026 -0.598,0.026 -0.936,0 -1.248,-0.312 -0.312,-0.312 -0.312,-1.248 l 0,-6.656 2.704,0 0,-2.47 z m 7.332,9.074 -3.51,0 q 0.052,1.352 0.611,2.249 0.559,0.897 1.43,1.443 0.871,0.546 1.989,0.78 1.118,0.234 2.288,0.234 1.144,0 2.249,-0.221 1.105,-0.221 1.963,-0.767 0.858,-0.546 1.391,-1.443 0.533,-0.897 0.533,-2.223 0,-0.936 -0.364,-1.573 -0.364,-0.637 -0.962,-1.066 -0.598,-0.429 -1.365,-0.689 -0.767,-0.26 -1.573,-0.442 -0.78,-0.182 -1.534,-0.338 -0.754,-0.156 -1.339,-0.351 -0.585,-0.195 -0.949,-0.507 -0.364,-0.312 -0.364,-0.806 0,-0.416 0.208,-0.663 0.208,-0.247 0.507,-0.377 0.299,-0.13 0.663,-0.169 0.364,-0.039 0.676,-0.039 0.988,0 1.716,0.377 0.728,0.377 0.806,1.443 l 3.51,0 q -0.104,-1.248 -0.637,-2.067 -0.533,-0.819 -1.339,-1.313 -0.806,-0.494 -1.833,-0.702 -1.027,-0.208 -2.119,-0.208 -1.092,0 -2.132,0.195 -1.04,0.195 -1.872,0.676 -0.832,0.481 -1.339,1.313 -0.507,0.832 -0.507,2.132 0,0.884 0.364,1.495 0.364,0.611 0.962,1.014 0.598,0.403 1.365,0.65 0.767,0.247 1.573,0.429 1.976,0.416 3.081,0.832 1.105,0.416 1.105,1.248 0,0.494 -0.234,0.819 -0.234,0.325 -0.585,0.52 -0.351,0.195 -0.78,0.286 -0.429,0.091 -0.819,0.091 -0.546,0 -1.053,-0.13 -0.507,-0.13 -0.897,-0.403 -0.39,-0.273 -0.637,-0.702 -0.247,-0.429 -0.247,-1.027 z m 16.588,9.074 0,-23.712 -6.864,0 0,2.912 3.172,0 0,17.888 -3.172,0 0,2.912 z"
       style="stroke:none" />
  </g>
  <g
     id="g18855"
     style="color-interpolation:linearRGB;fill:#262626;stroke:#262626;color-rendering:optimizeQuality;image-rendering:optimizeQuality;text-rendering:geometricPrecision">
    <line
       id="line18857"
       y1="418"
       x2="101"
       x1="101"
       style="fill:none"
       y2="36" />
    <line
       id="line18859"
       y1="418"
       x2="107.04"
       x1="101"
       style="fill:none"
       y2="418" />
    <line
       id="line18861"
       y1="322.5"
       x2="107.04"
       x1="101"
       style="fill:none"
       y2="322.5" />
    <line
       id="line18863"
       y1="227"
       x2="107.04"
       x1="101"
       style="fill:none"
       y2="227" />
    <line
       id="line18865"
       y1="131.5"
       x2="107.04"
       x1="101"
       style="fill:none"
       y2="131.5" />
    <line
       id="line18867"
       y1="36"
       x2="107.04"
       x1="101"
       style="fill:none"
       y2="36" />
  </g>
  <g
     id="g18869"
     style="font-weight:bold;font-size:24px;font-family:'Helvetica Neue';color-interpolation:linearRGB;fill:#262626;stroke:#262626;color-rendering:optimizeQuality;image-rendering:optimizeQuality;text-rendering:geometricPrecision"
     transform="translate(94.2,418)">
    <path
       inkscape:connector-curvature="0"
       id="path18871"
       d="m -9.432,0.776 q 0,-0.432 0.012,-1.044 0.012,-0.612 0.084,-1.26 0.072,-0.648 0.24,-1.284 0.168,-0.636 0.468,-1.14 0.3,-0.504 0.768,-0.816 0.468,-0.312 1.164,-0.312 0.696,0 1.176,0.312 0.48,0.312 0.792,0.816 0.312,0.504 0.468,1.14 0.156,0.636 0.24,1.284 0.084,0.648 0.096,1.26 0.012,0.612 0.012,1.044 0,0.72 -0.048,1.74 -0.048,1.02 -0.3,1.968 -0.252,0.948 -0.816,1.62 -0.564,0.672 -1.62,0.672 -1.032,0 -1.584,-0.672 -0.552,-0.672 -0.804,-1.62 -0.252,-0.948 -0.3,-1.968 -0.048,-1.02 -0.048,-1.74 z m -3.408,0 q 0,2.52 0.492,4.212 0.492,1.692 1.332,2.7 0.84,1.008 1.956,1.44 1.116,0.432 2.364,0.432 1.272,0 2.388,-0.432 1.116,-0.432 1.968,-1.44 0.852,-1.008 1.344,-2.7 0.492,-1.692 0.492,-4.212 0,-2.448 -0.492,-4.116 -0.492,-1.668 -1.344,-2.676 -0.852,-1.008 -1.968,-1.44 -1.116,-0.432 -2.388,-0.432 -1.248,0 -2.364,0.432 -1.116,0.432 -1.956,1.44 -0.84,1.008 -1.332,2.676 -0.492,1.668 -0.492,4.116 z"
       style="stroke:none" />
  </g>
  <g
     id="g18873"
     style="font-weight:bold;font-size:24px;font-family:'Helvetica Neue';color-interpolation:linearRGB;fill:#262626;stroke:#262626;color-rendering:optimizeQuality;image-rendering:optimizeQuality;text-rendering:geometricPrecision"
     transform="translate(94.2,322.5)">
    <path
       inkscape:connector-curvature="0"
       id="path18875"
       d="m -3.936,9.248 0,-16.8 -2.712,0 q -0.144,0.96 -0.6,1.608 -0.456,0.648 -1.116,1.044 -0.66,0.396 -1.488,0.552 -0.828,0.156 -1.716,0.132 l 0,2.568 4.224,0 0,10.896 z"
       style="stroke:none" />
  </g>
  <g
     id="g18877"
     style="font-weight:bold;font-size:24px;font-family:'Helvetica Neue';color-interpolation:linearRGB;fill:#262626;stroke:#262626;color-rendering:optimizeQuality;image-rendering:optimizeQuality;text-rendering:geometricPrecision"
     transform="translate(94.2,227)">
    <path
       inkscape:connector-curvature="0"
       id="path18879"
       d="m -12.456,-1.096 3.264,0 q 0,-0.672 0.132,-1.356 0.132,-0.684 0.444,-1.248 0.312,-0.564 0.828,-0.912 0.516,-0.348 1.26,-0.348 1.104,0 1.812,0.684 0.708,0.684 0.708,1.908 0,0.768 -0.348,1.368 -0.348,0.6 -0.864,1.08 -0.516,0.48 -1.14,0.876 -0.624,0.396 -1.176,0.78 -1.08,0.744 -2.052,1.464 -0.972,0.72 -1.692,1.572 -0.72,0.852 -1.14,1.932 -0.42,1.08 -0.42,2.544 l 12.336,0 0,-2.928 -7.944,0 q 0.624,-0.864 1.44,-1.512 0.816,-0.648 1.68,-1.212 0.864,-0.564 1.716,-1.14 0.852,-0.576 1.524,-1.284 0.672,-0.708 1.08,-1.62 0.408,-0.912 0.408,-2.184 0,-1.224 -0.468,-2.208 -0.468,-0.984 -1.26,-1.656 -0.792,-0.672 -1.836,-1.032 -1.044,-0.36 -2.196,-0.36 -1.512,0 -2.676,0.516 -1.164,0.516 -1.932,1.44 -0.768,0.924 -1.152,2.16 -0.384,1.236 -0.336,2.676 z"
       style="stroke:none" />
  </g>
  <g
     id="g18881"
     style="font-weight:bold;font-size:24px;font-family:'Helvetica Neue';color-interpolation:linearRGB;fill:#262626;stroke:#262626;color-rendering:optimizeQuality;image-rendering:optimizeQuality;text-rendering:geometricPrecision"
     transform="translate(94.2,131.5)">
    <path
       inkscape:connector-curvature="0"
       id="path18883"
       d="m -7.872,-0.76 0,2.4 q 0.624,0 1.308,0.036 0.684,0.036 1.26,0.264 0.576,0.228 0.948,0.732 0.372,0.504 0.372,1.464 0,1.224 -0.792,1.932 -0.792,0.708 -1.944,0.708 -0.744,0 -1.284,-0.264 -0.54,-0.264 -0.9,-0.708 Q -9.264,5.36 -9.456,4.748 -9.648,4.136 -9.672,3.464 l -3.24,0 q -0.024,1.464 0.42,2.592 0.444,1.128 1.26,1.908 0.816,0.78 1.98,1.188 1.164,0.408 2.58,0.408 1.224,0 2.352,-0.36 1.128,-0.36 1.992,-1.056 0.864,-0.696 1.38,-1.728 0.516,-1.032 0.516,-2.352 0,-1.44 -0.792,-2.472 Q -2.016,0.56 -3.408,0.248 l 0,-0.048 q 1.176,-0.336 1.764,-1.272 0.588,-0.936 0.588,-2.16 0,-1.128 -0.504,-1.992 -0.504,-0.864 -1.308,-1.464 -0.804,-0.6 -1.812,-0.9 -1.008,-0.3 -2.016,-0.3 -1.296,0 -2.352,0.42 -1.056,0.42 -1.812,1.188 -0.756,0.768 -1.176,1.836 -0.42,1.068 -0.468,2.364 l 3.24,0 q -0.024,-1.296 0.636,-2.148 0.66,-0.852 1.956,-0.852 0.936,0 1.656,0.576 0.72,0.576 0.72,1.656 0,0.72 -0.348,1.152 -0.348,0.432 -0.888,0.66 -0.54,0.228 -1.164,0.276 -0.624,0.048 -1.176,0 z"
       style="stroke:none" />
  </g>
  <g
     id="g18885"
     style="font-weight:bold;font-size:24px;font-family:'Helvetica Neue';color-interpolation:linearRGB;fill:#262626;stroke:#262626;color-rendering:optimizeQuality;image-rendering:optimizeQuality;text-rendering:geometricPrecision"
     transform="translate(94.2,36)">
    <path
       inkscape:connector-curvature="0"
       id="path18887"
       d="m -5.856,-3.28 0,5.832 -4.416,0 4.344,-5.832 z m 0,8.64 0,3.888 3.24,0 0,-3.888 2.232,0 0,-2.808 -2.232,0 0,-10.104 -3.048,0 -7.296,9.792 0,3.12 z"
       style="stroke:none" />
  </g>
  <g
     id="g18889"
     style="color-interpolation:linearRGB;fill:#ffcc66;stroke:#ffcc66;color-rendering:optimizeQuality;image-rendering:optimizeQuality;text-rendering:geometricPrecision;stroke-width:4;stroke-miterlimit:10;stroke-dasharray:none">
    <path
       inkscape:connector-curvature="0"
       id="path18891"
       style="fill:none;fill-rule:evenodd;stroke-width:4;stroke-miterlimit:10;stroke-dasharray:none"
       d="m 705,317.8317 -1.8875,3.0616 -1.8875,0.9355 -1.8875,-6.1708 -1.8875,0.0564 -1.8875,3.5574 -1.8875,-0.9529 -1.8875,0.3791 -1.8875,-1.0641 -1.8875,0.6173 -1.8875,-1.3864 -1.8875,1.01 -1.8875,2.2749 -1.8875,-2.0601 -1.8875,3.0592 -1.8875,-5.135 -1.8875,0.7822 -1.8875,1.5148 -1.8875,-2.7492 -1.8875,1.7017 -1.8875,2.8731 -1.8875,-4.4576 -1.8875,-0.8556 -1.8875,-0.7708 -1.8875,3.1194 -1.8875,0.7007 -1.8875,-1.9193 -1.8875,-1.6475 -1.8875,-0.3094 -1.8875,2.4547 -1.8875,-2.157 -1.8875,-0.0417 -1.8875,-1.7442 -1.8875,2.4509 -1.8875,-1.7724 -1.8875,1.328 -1.8875,-1.3855 -1.8875,-1.164 -1.8875,-1.1843 -1.8875,0.054 -1.8875,0.323 -1.8875,-1.1772 -1.8875,-0.4186 -1.8875,1.1434 -1.8875,0.4113 -1.8875,-0.0857 -1.8875,-0.4272 -1.8875,-0.7249 -1.8875,-1.0539 -1.8875,-0.8094 -1.8875,0.0466 -1.8875,-1.5889 -1.8875,2.2043 -1.8875,-1.5408 -1.8875,1.8514 -1.8875,-1.5527 -1.8875,0.1577 -1.8875,-0.5237 -1.8875,-2.2744 -1.8875,0.6818 -1.8875,-1.1079 -1.8875,2.3545 -1.8875,-1.3695 -1.8875,-1.7134 -1.8875,1.1903 -1.8875,0.1895 -1.8875,-1.2198 -1.8875,-0.5796 -1.8875,-0.2944 -1.8875,0.1381 -1.8875,-1.4818 -1.8875,-0.3922 -1.8875,1.5929 -1.8875,-1.4107 -1.8875,-0.0647 -1.8875,-0.1432 -1.8875,-0.2948 -1.8875,-1.197 -1.8875,0.1417 -1.8875,-1.163 -1.8875,-0.4818 -1.8875,-0.5855 -1.8875,-0.0982 -1.8875,0.6586 -1.8875,-1.6979 -1.8875,-1.4119 -1.8875,1.214 -1.8875,0.3979 -1.8875,-1.2076 -1.8875,0.6202 -1.8875,-1.5765 -1.8875,1.0492 -1.8875,-1.6712 -1.8875,0.2193 -1.8875,0.4496 -1.8875,-1.9174 -1.8875,0.1647 -1.8875,-0.2971 -1.8875,-0.4099 -1.8875,-1.135 -1.8875,-0.7379 -1.8875,-0.4701 -1.8875,-0.6904 -1.8875,0.7809 -1.8875,-0.3523 -1.8875,-1.1314 -1.8875,-0.3077 -1.8875,0.1987 -1.8875,-1.1312 -1.8875,-1.4453 -1.8875,0.4763 -1.8875,-0.5731 -1.8875,-2.0795 -1.8875,0.6879 -1.8875,-0.8518 -1.8875,-0.3549 -1.8875,-0.3659 -1.8875,-0.6112 -1.8875,-0.3971 -1.8875,0.7 -1.8875,-2.2033 -1.8875,-0.2133 -1.8875,0.846 -1.8875,-1.3031 -1.8875,-2.526 -1.8875,0.667 -1.8875,-1.0678 -1.8875,-1.5726 -1.8875,0.0311 -1.8875,-1.6665 -1.8875,-0.8426 -1.8875,0.6197 -1.8875,-0.0495 -1.8875,-0.1656 -1.8875,-1.5666 -1.8875,-1.0861 -1.8875,-0.5247 -1.8875,-0.9429 -1.8875,-0.7819 -1.8875,-0.1105 -1.8875,-1.5442 -1.8875,0.4248 -1.8875,-1.0606 -1.8875,-2.033 -1.8875,0.495 -1.8875,0.2625 -1.8875,-0.669 -1.8875,-1.55 -1.8875,-1.7007 -1.8875,-1.317 -1.8875,-0.7325 -1.8875,0.6853 -1.8875,-0.6391 -1.8875,-2.2088 -1.8875,-0.3843 -1.8875,-1.1036 -1.8875,-0.5442 -1.8875,-1.0995 -1.8875,-0.0616 -1.8875,-0.58 -1.8875,-2.7211 -1.8875,0.004 -1.8875,-1.2159 -1.8875,-1.5624 -1.8875,-2.0887 -1.8875,-2.9147 -1.8875,-0.8292 -1.8875,0.3206 -1.8875,-0.6307 -1.8875,0.9968 -1.8875,0.9675 -1.8875,-0.6067 -1.8875,-3.4412 -1.8875,-2.2366 -1.8875,0.506 -1.8875,-2.2602 -1.8875,-2.3156 -1.8875,-1.0042 -1.8875,0.8643 -1.8875,1.1504 -1.8875,-2.9527 -1.8875,-3.7852 -1.8875,1.0096 -1.8875,-0.3057 -1.8875,-2.7447 -1.8875,-3.546 -1.8875,5.3552 -1.8875,3.4794 -1.8875,-9.2588 -1.8875,-1.4446 -1.8875,0.8528 -1.8875,-0.3713 -1.8875,2.3279 -1.8875,-2.6087 -1.8875,3.3534 -1.8875,-0.6898 -1.8875,-1.3003 -1.8875,-3.2448 -1.8875,1.6765 -1.8875,-4.4731 -1.8875,-1.0656 -1.8875,4.3053 -1.8875,-1.3243 -1.8875,6.1093 -1.8875,-1.6957 -1.8875,-0.9389 -1.8875,3.3186 -1.8875,-0.2515 -1.8875,-2.8321 -1.8875,0.9792 -1.8875,-3.2935 -1.8875,3.4501 -1.8875,-1.2942 -1.8875,12.5928 -1.8875,-14.8036 -1.8875,-10.2828 -1.8875,2.8917 -1.8875,2.7618 -1.8875,17.8065 -1.8875,-0.7913 -1.8875,13.0913 -1.8875,-10.6571 -1.8875,17.4707 -1.8875,-3.0211 -1.8875,-23.6488 -1.8875,21.853 -1.8875,-44.3294 -1.8875,36.6965 -1.8875,-57.2933 -0.01,-144.6133" />
    <path
       inkscape:connector-curvature="0"
       id="path18893"
       style="fill:none;fill-rule:evenodd;stroke-width:4;stroke-miterlimit:10;stroke-dasharray:none"
       d="m 267.1051,35.9618 -0.005,75.9747 -1.8875,26.4192 -1.8875,17.168 -1.8875,6.3865 -1.8875,4.7533 -1.8875,-4.3836 -1.8875,-1.3056 -1.8875,-3.6557 -1.8875,2.8273 -1.8875,-3.5021 -1.8875,-0.6662 -1.8875,0.9796 -1.8875,-0.9414 -1.8875,2.5775 -1.8875,0.9368 -1.8875,-0.7134 -1.8875,1.5224 -1.8875,-3.4573 -1.8875,-2.4226 -1.8875,1.0998 -1.8875,-0.2766 -1.8875,0.191 -1.8875,0.883 -1.8875,-1.8296 -1.8875,0.5584 -1.8875,0.1012 -1.8875,-1.9351 -1.8875,0.5066 -1.8875,0.2211 -1.8875,0.4904 -1.8875,-0.7891 -1.8875,1.0954 -1.8875,0.1949 -1.8875,-0.3886 -1.8875,0.6631 -1.8875,-0.2183 -1.8875,-0.1788 -1.8875,0.1675 -1.8875,0.184 -1.8875,0.5739 -1.8875,0.1291 -1.8875,-0.0599 -1.8875,0.505 -1.8875,0.4425 -1.8875,-0.5422 -1.8875,0.8657 -1.8875,0.442 -1.8875,0.4753 -1.8875,-0.009 -1.8875,-0.5666 -1.8875,1.2032 -1.8875,0.1623 -1.8875,-0.4318 -1.8875,0.42 -1.8875,0.2001 -1.8875,0.1059 -1.8875,-1.1432 -1.8875,0.9337 -1.8875,0.9225 -1.8875,-0.1005 -1.8875,0.6554 -1.8875,-0.3582 -1.8875,0.3307 -1.8875,0.2684 -1.8875,-0.4182 -1.8875,0.2816 -1.8875,-1.2917 -1.8875,-2.539 -1.8875,-5.3871 -1.8875,-6.8017 -1.8875,-8.2766 -1.8875,-10.9116 L 131.2,112.1492 129.3125,97.5289 127.425,83.5098 125.5375,71.8027 123.65,38.4553 123.4023,35.9618" />
    <path
       inkscape:connector-curvature="0"
       id="path18895"
       style="fill:none;fill-rule:evenodd;stroke:#0072bd;stroke-width:4;stroke-miterlimit:10;stroke-dasharray:none"
       d="m 705.0604,364.5327 -0.0604,-0.006 -1.8875,-2.5468 -1.8875,0.4774 -1.8875,-0.3005 -1.8875,2.8591 -1.8875,-0.4973 -1.8875,1.4064 -1.8875,2.1129 -1.8875,-3.3232 -1.8875,2.07 -1.8875,5.1872 -1.8875,-3.3336 -1.8875,-2.4467 -1.8875,6.052 -1.8875,2.7568 -1.8875,-8.5669 -1.8875,-8.3797 -1.8875,-3.9299 -1.8875,14.067 -1.8875,4.8535 -1.8875,-4.9457 -1.8875,-0.5066 -1.8875,-7.8807 -1.8875,-1.5742 -1.8875,2.523 -1.8875,0.8259 -1.8875,-0.8864 -1.8875,4.6243 -1.8875,2.0999 -1.8875,1.3868 -1.8875,-4.3471 -1.8875,-3.6239 -1.8875,-2.2621 -1.8875,2.8021 -1.8875,1.6411 -1.8875,1.89 -1.8875,-0.496 -1.8875,-0.996 -1.8875,5.0191 -1.8875,-5.1986 -1.8875,-2.7595 -1.8875,0.4829 -1.8875,2.6347 -1.8875,4.4269 -1.8875,0.7793 -1.8875,-2.4659 -1.8875,-1.9384 -1.8875,1.7303 -1.8875,-2.279 -1.8875,-1.6466 -1.8875,2.7596 -1.8875,0.8645 -1.8875,1.4411 -1.8875,-2.8508 -1.8875,-4.8794 -1.8875,2.8754 -1.8875,1.4922 -1.8875,-1.2042 -1.8875,1.6066 -1.8875,1.944 -1.8875,-3.7363 -1.8875,-1.462 -1.8875,-0.1606 -1.8875,-0.5932 -1.8875,1.1138 -1.8875,1.7298 -1.8875,-1.5594 -1.8875,-3.3293 -1.8875,1.2319 -1.8875,2.5067 -1.8875,-1.3264 -1.8875,0.3107 -1.8875,0.6086 -1.8875,-1.8573 -1.8875,1.372 -1.8875,-0.2406 -1.8875,-0.0594 -1.8875,-0.8892 -1.8875,-1.389 -1.8875,1.5161 -1.8875,0.2118 -1.8875,-0.8009 -1.8875,-2.1391 -1.8875,0.6736 -1.8875,1.4951 -1.8875,-1.1415 -1.8875,0.942 -1.8875,-0.158 -1.8875,-0.6493 -1.8875,0.312 -1.8875,0.0539 -1.8875,-0.5492 -1.8875,0.0932 -1.8875,-0.7956 -1.8875,0.3462 -1.8875,-0.2146 -1.8875,-0.8732 -1.8875,0.2198 -1.8875,-0.9085 -1.8875,-0.6156 -1.8875,0.9837 -1.8875,0.8405 -1.8875,-0.9502 -1.8875,-0.3706 -1.8875,1.1285 -1.8875,-0.3244 -1.8875,-0.2559 -1.8875,-0.1575 -1.8875,-1.198 -1.8875,0.5357 -1.8875,-0.108 -1.8875,-1.7345 -1.8875,0.2306 -1.8875,1.0707 -1.8875,-0.5237 -1.8875,-0.0331 -1.8875,-0.0863 -1.8875,-0.2558 -1.8875,-1.2098 -1.8875,-0.3661 -1.8875,1.6302 -1.8875,-0.3504 -1.8875,-0.728 -1.8875,-0.3168 -1.8875,0.5993 -1.8875,-0.1528 -1.8875,-0.9422 -1.8875,-0.4933 -1.8875,-1.4117 -1.8875,-1.3047 -1.8875,-0.087 -1.8875,-0.5379 -1.8875,1.7777 -1.8875,0.0345 -1.8875,-0.3753 -1.8875,-1.1013 -1.8875,-0.007 -1.8875,0.6538 -1.8875,0.4887 -1.8875,-0.4913 -1.8875,-2.2276 -1.8875,1.027 -1.8875,-0.735 -1.8875,0.7797 -1.8875,-0.0734 -1.8875,-1.0349 -1.8875,-1.2822 -1.8875,0.0899 -1.8875,-0.0527 -1.8875,0.2637 -1.8875,-1.1228 -1.8875,0.5052 -1.8875,-0.9955 -1.8875,0.6389 -1.8875,-0.7777 -1.8875,-0.2991 -1.8875,-0.7734 -1.8875,-0.6622 -1.8875,1.0021 -1.8875,0.2528 -1.8875,-0.7861 -1.8875,-0.26 -1.8875,-0.6489 -1.8875,-1.421 -1.8875,-0.1704 -1.8875,-0.1397 -1.8875,-1.2854 -1.8875,0.3824 -1.8875,-0.3757 -1.8875,0.1142 -1.8875,0.7196 -1.8875,-1.7932 -1.8875,-1.2486 -1.8875,1.1879 -1.8875,-0.8114 -1.8875,-0.4451 -1.8875,0.1328 -1.8875,-1.561 -1.8875,-0.4253 -1.8875,0.525 -1.8875,1.2356 -1.8875,-2.4232 -1.8875,-0.6805 -1.8875,0.8901 -1.8875,-1.8587 -1.8875,-2.5294 -1.8875,1.3788 -1.8875,0.5077 -1.8875,-1.4301 -1.8875,-0.5058 -1.8875,-1.1223 -1.8875,0.1706 -1.8875,1.4034 -1.8875,-1.1858 -1.8875,0.0427 -1.8875,-2.0146 -1.8875,0.7294 -1.8875,-4.9472 -1.8875,3.7936 -1.8875,-0.4339 -1.8875,-1.354 -1.8875,0.26 -1.8875,-2.6496 -1.8875,0.0888 -1.8875,-0.7855 -1.8875,1.0752 -1.8875,-0.1378 -1.8875,-0.9138 -1.8875,-2.9155 -1.8875,1.4142 -1.8875,-2.3093 -1.8875,2.7492 -1.8875,2.4731 -1.8875,-4.1871 -1.8875,0.6094 -1.8875,-5.022 -1.8875,4.0478 -1.8875,-3.9615 -1.8875,-1.6874 -1.8875,7.6704 -1.8875,-3.3747 -1.8875,6.8534 -1.8875,-10.6322 -1.8875,4.0764 -1.8875,-1.9556 -1.8875,-9.0809 -1.8875,18.0541 -1.8875,-0.0314 -1.8875,-32.726 -1.8875,9.0517 -1.8875,0.6165 -1.8875,-1.0368 -1.8875,-0.2762 -1.8875,0.0324 -1.8875,-0.085 -1.8875,-0.5268 -1.8875,-1.0656 -1.8875,0.1271 -1.8875,-0.8916 -1.8875,-0.3696 -1.8875,-0.8266 -1.8875,-0.21 -1.8875,-0.5085 -1.8875,-0.6095 -1.8875,-0.3222 -1.8875,-0.0629 -1.8875,-0.4547 -1.8875,-0.259 -1.8875,-0.6588 -1.8875,-0.1615 -1.8875,-0.3256 -1.8875,-0.2137 -1.8875,-0.1721 -1.8875,-0.3341 -1.8875,-0.0624 -1.8875,-0.1731 -1.8875,-0.3943 -1.8875,0.1092 -1.8875,-0.0186 -1.8875,-0.4048 -1.8875,-0.0689 -1.8875,-0.0827 -1.8875,0.0216 -1.8875,0.086 -1.8875,0.1804 -1.8875,0.1277 -1.8875,0.0405 -1.8875,-0.0611 -1.8875,0.202 -1.8875,10e-4 -1.8875,0.1578 -1.8875,0.1051 -1.8875,0.2001 -1.8875,0.1182 -1.8875,0.2018 -1.8875,0.0238 -1.8875,0.1881 -1.8875,0.3817 -1.8875,0.1244 -1.8875,0.3275 -1.8875,0.2244 -1.8875,0.3071 -1.8875,0.4026 -1.8875,0.1549 -1.8875,0.2369 -1.8875,0.0643 -1.8875,0.241 -1.8875,0.0982 -1.8875,0.1382 -1.8875,0.354 -1.8875,0.3167 -1.8875,0.101 -1.8875,-0.125 -1.8875,-0.0341 -1.8875,-0.1145 -1.8875,-0.3049 -1.8875,-0.5909 -1.8875,-0.7132 -1.8875,-2.129 -1.8875,-6.0773 -1.8875,-9.9135 -1.8875,-11.2649 -1.8875,-12.4228 -1.8875,-14.359 L 131.2,222.8588 129.3125,205.7931 127.425,187.0392 125.5375,166.529 123.65,144.0287 121.7625,120.4362 119.875,91.8337 117.9875,63.7296 116.49,35.9618" />
  </g>
  <g
     id="g18897"
     style="color-interpolation:linearRGB;stroke-linecap:butt;stroke-linejoin:bevel;stroke-miterlimit:1;stroke-dasharray:24,9,6,9;color-rendering:optimizeQuality;image-rendering:optimizeQuality;text-rendering:geometricPrecision;stroke-width:3;stroke-dashoffset:0">
    <path
       inkscape:connector-curvature="0"
       id="path18899"
       style="fill:none;fill-rule:evenodd;stroke-width:3;stroke-miterlimit:1;stroke-dasharray:24,9,6,9;stroke-dashoffset:0"
       d="m 705.0604,399.4193 -0.0604,0.0814 -1.8875,-8.3883 -1.8875,6.3573 -1.8875,-1.5178 -1.8875,5.6849 -1.8875,-1.2992 -1.8875,1.7866 -1.8875,3.1119 -1.8875,-2.9251 -1.8875,-0.8279 -1.8875,-2.5608 -1.8875,1.053 -1.8875,6.0598 -1.8875,1.2633 -1.8875,1.0775 -1.8875,-7.3796 -1.8875,-9.0082 -1.8875,-0.4892 -1.8875,5.2624 -1.8875,3.2889 -1.8875,2.1683 -1.8875,3.82 -1.8875,-12.9977 -1.8875,5.4885 -1.8875,5.7373 -1.8875,-3.3047 -1.8875,-2.7473 -1.8875,3.9815 -1.8875,-2.0789 -1.8875,2.4442 -1.8875,0.0746 -1.8875,-9.4375 -1.8875,4.4821 -1.8875,3.2632 -1.8875,-2.0959 -1.8875,1.3771 -1.8875,-0.4691 -1.8875,0.605 -1.8875,5.0209 -1.8875,-3.5994 -1.8875,-2.3733 -1.8875,0.7833 -1.8875,0.5202 -1.8875,2.1851 -1.8875,-1.8872 -1.8875,-0.1542 -1.8875,1.6103 -1.8875,-0.7453 -1.8875,-3.0203 -1.8875,0.0205 -1.8875,3.4173 -1.8875,1.7612 -1.8875,-2.0758 -1.8875,-2.6341 -1.8875,0.7516 -1.8875,1.4622 -1.8875,-2.8011 -1.8875,0.8452 -1.8875,3.1212 -1.8875,0.9385 -1.8875,-2.4281 -1.8875,-1.2756 -1.8875,-0.1515 -1.8875,-0.406 -1.8875,2.4212 -1.8875,0.4616 -1.8875,-1.8863 -1.8875,-0.3794 -1.8875,1.0387 -1.8875,1.5962 -1.8875,-1.9402 -1.8875,0.7812 -1.8875,2.512 -1.8875,-3.5199 -1.8875,-0.8818 -1.8875,2.1979 -1.8875,-0.4406 -1.8875,-2.683 -1.8875,0.5371 -1.8875,2.6638 -1.8875,-0.9935 -1.8875,-0.9031 -1.8875,-1.4081 -1.8875,1.5395 -1.8875,2.6366 -1.8875,-1.6391 -1.8875,-0.3994 -1.8875,0.5377 -1.8875,-0.9015 -1.8875,0.8834 -1.8875,-0.2499 -1.8875,-0.8156 -1.8875,1.4066 -1.8875,0.4303 -1.8875,-1.0394 -1.8875,-1.0714 -1.8875,0.2324 -1.8875,0.3257 -1.8875,-0.5507 -1.8875,0.2885 -1.8875,1.4005 -1.8875,-0.0135 -1.8875,-1.0759 -1.8875,-0.0139 -1.8875,0.9746 -1.8875,-0.1508 -1.8875,-0.2355 -1.8875,0.6579 -1.8875,-1.2476 -1.8875,0.0978 -1.8875,0.4542 -1.8875,-2.21 -1.8875,0.6322 -1.8875,2.737 -1.8875,-0.2945 -1.8875,-0.8228 -1.8875,-0.006 -1.8875,0.8834 -1.8875,-0.7744 -1.8875,-0.3192 -1.8875,-0.6802 -1.8875,0.005 -1.8875,2.4652 -1.8875,-1.2505 -1.8875,-0.9279 -1.8875,0.7241 -1.8875,0.2465 -1.8875,-2.2468 -1.8875,-0.5973 -1.8875,1.0362 -1.8875,0.4492 -1.8875,-0.9008 -1.8875,1.8631 -1.8875,0.5263 -1.8875,-1.1139 -1.8875,-0.7577 -1.8875,0.4676 -1.8875,1.1179 -1.8875,-0.6957 -1.8875,0.1776 -1.8875,-0.1136 -1.8875,0.6206 -1.8875,0.0305 -1.8875,-0.351 -1.8875,0.2247 -1.8875,0.7817 -1.8875,-0.6274 -1.8875,-0.4493 -1.8875,0.2321 -1.8875,0.2017 -1.8875,-0.8066 -1.8875,1.1048 -1.8875,-1.4224 -1.8875,0.8949 -1.8875,-0.5778 -1.8875,0.7282 -1.8875,-0.0835 -1.8875,-0.2472 -1.8875,1.0876 -1.8875,0.3418 -1.8875,-0.3636 -1.8875,-0.5317 -1.8875,7e-4 -1.8875,-0.6202 -1.8875,1.8019 -1.8875,-0.6905 -1.8875,-1.6573 -1.8875,0.6798 -1.8875,0.0892 -1.8875,1.2395 -1.8875,-0.7724 -1.8875,-0.3231 -1.8875,-0.8633 -1.8875,1.8992 -1.8875,-0.731 -1.8875,-0.1335 -1.8875,0.6502 -1.8875,-0.3212 -1.8875,-0.0254 -1.8875,0.6228 -1.8875,-0.5933 -1.8875,0.0833 -1.8875,1.0261 -1.8875,-0.2981 -1.8875,-1.2277 -1.8875,-0.1719 -1.8875,1.031 -1.8875,0.3322 -1.8875,-1.3682 -1.8875,0.3487 -1.8875,0.846 -1.8875,0.1091 -1.8875,-0.0477 -1.8875,-0.2805 -1.8875,1.6669 -1.8875,-0.9179 -1.8875,0.9747 -1.8875,-2.6396 -1.8875,2.4453 -1.8875,-1.3886 -1.8875,-0.5662 -1.8875,1.6513 -1.8875,-3.5916 -1.8875,3.9541 -1.8875,-0.1659 -1.8875,-0.3482 -1.8875,0.7932 -1.8875,-0.408 -1.8875,-2.5888 -1.8875,4.1763 -1.8875,-2.1981 -1.8875,-2.3461 -1.8875,6.1225 -1.8875,-1.3277 -1.8875,-0.5259 -1.8875,-5.2299 -1.8875,5.6789 -1.8875,-1.57 -1.8875,-1.073 -1.8875,4.2421 -1.8875,-2.5973 -1.8875,-2.3261 -1.8875,5.0469 -1.8875,3.3971 -1.8875,-2.2148 -1.8875,-9.8096 -1.8875,14.3569 -1.8875,-1.8559 -1.8875,-7.5972 -1.8875,0.2535 -1.8875,0.6175 -1.8875,-0.6001 -1.8875,-0.1342 -1.8875,0.461 -1.8875,0.3829 -1.8875,0.1091 -1.8875,-0.5852 -1.8875,0.3771 -1.8875,-0.0832 -1.8875,-0.0622 -1.8875,-0.4018 -1.8875,0.597 -1.8875,-0.2057 -1.8875,-0.2077 -1.8875,0.1263 -1.8875,0.2268 -1.8875,-0.0902 -1.8875,-0.0289 -1.8875,-0.0991 -1.8875,-0.0223 -1.8875,0.1265 -1.8875,0.1609 -1.8875,0.1243 -1.8875,-0.2475 -1.8875,0.1047 -1.8875,0.1602 -1.8875,-0.2303 -1.8875,0.1836 -1.8875,0.149 -1.8875,-0.3752 -1.8875,0.0318 -1.8875,0.202 -1.8875,-0.0674 -1.8875,0.1878 -1.8875,-0.002 -1.8875,0.1343 -1.8875,-0.0724 -1.8875,0.0166 -1.8875,-0.0999 -1.8875,0.1252 -1.8875,0.0774 -1.8875,-0.0769 -1.8875,0.2017 -1.8875,0.0154 -1.8875,0.0755 -1.8875,-0.0715 -1.8875,0.0435 -1.8875,0.0605 -1.8875,0.0163 -1.8875,0.0941 -1.8875,0.0341 -1.8875,0.2161 -1.8875,0.0911 -1.8875,-0.0262 -1.8875,0.1147 -1.8875,0.0874 -1.8875,0.1217 -1.8875,0.1808 -1.8875,0.0371 -1.8875,0.007 -1.8875,0.108 -1.8875,0.1206 -1.8875,-0.1757 -1.8875,-0.192 -1.8875,-0.2129 -1.8875,-0.3435 -1.8875,-0.6835 -1.8875,-0.9255 -1.8875,-1.935 -1.8875,-5.0821 -1.8875,-8.9274 -1.8875,-9.2642 -1.8875,-10.3642 -1.8875,-11.7576 -1.8875,-12.6176 -1.8875,-14.0595 -1.8875,-15.5759 -1.8875,-16.9245 -1.8875,-18.458 -1.8875,-20.805 -1.8875,-22.4728 -1.8875,-24.8569 -1.8875,-26.7772 -1.8875,-28.952 -1.8875,-33.198 -1.8875,-31.7518 -1.8875,-39.7133 -0.5944,-13.9266" />
  </g>
  <g
     id="g18901"
     style="color-interpolation:sRGB;fill:#ffffff;stroke:#ffffff;color-rendering:optimizeSpeed;image-rendering:optimizeSpeed;shape-rendering:crispEdges;text-rendering:optimizeSpeed">
    <path
       inkscape:connector-curvature="0"
       id="path18903"
       d="m 475,135 0,-89 220,0 0,89 z"
       style="stroke:none" />
  </g>
  <g
     id="g18905"
     style="font-weight:bold;font-size:21px;font-family:'Helvetica Neue';color-interpolation:linearRGB;color-rendering:optimizeQuality;image-rendering:optimizeQuality;text-rendering:geometricPrecision"
     transform="translate(514,73)">
    <path
       inkscape:connector-curvature="0"
       id="path18907"
       d="m 8.232,0 0,-14.7 -2.373,0 q -0.126,0.84 -0.525,1.407 -0.399,0.567 -0.9765,0.9135 -0.5775,0.3465 -1.302,0.483 Q 2.331,-11.76 1.554,-11.781 l 0,2.247 3.696,0 0,9.534 z m 6.867,-7.413 q 0,-0.378 0.0105,-0.9135 0.0105,-0.5355 0.0735,-1.1025 0.063,-0.567 0.21,-1.1235 0.147,-0.5565 0.4095,-0.9975 0.2625,-0.441 0.672,-0.714 0.4095,-0.273 1.0185,-0.273 0.609,0 1.029,0.273 0.42,0.273 0.693,0.714 0.273,0.441 0.4095,0.9975 0.1365,0.5565 0.21,1.1235 0.0735,0.567 0.084,1.1025 0.0105,0.5355 0.0105,0.9135 0,0.63 -0.042,1.5225 -0.042,0.8925 -0.2625,1.722 -0.2205,0.8295 -0.714,1.4175 -0.4935,0.588 -1.4175,0.588 -0.903,0 -1.386,-0.588 Q 15.624,-3.339 15.4035,-4.1685 15.183,-4.998 15.141,-5.8905 15.099,-6.783 15.099,-7.413 Z m -2.982,0 q 0,2.205 0.4305,3.6855 0.4305,1.4805 1.1655,2.3625 0.735,0.882 1.7115,1.26 0.9765,0.378 2.0685,0.378 1.113,0 2.0895,-0.378 0.9765,-0.378 1.722,-1.26 0.7455,-0.882 1.176,-2.3625 0.4305,-1.4805 0.4305,-3.6855 0,-2.142 -0.4305,-3.6015 -0.4305,-1.4595 -1.176,-2.3415 -0.7455,-0.882 -1.722,-1.26 -0.9765,-0.378 -2.0895,-0.378 -1.092,0 -2.0685,0.378 -0.9765,0.378 -1.7115,1.26 -0.735,0.882 -1.1655,2.3415 -0.4305,1.4595 -0.4305,3.6015 z"
       style="stroke:none" />
  </g>
  <g
     id="g18909"
     style="font-weight:bold;font-size:16px;font-family:'Helvetica Neue';color-interpolation:linearRGB;color-rendering:optimizeQuality;image-rendering:optimizeQuality;text-rendering:geometricPrecision"
     transform="translate(538,63)">
    <path
       inkscape:connector-curvature="0"
       id="path18911"
       d="m 6.272,0 0,-11.2 -1.808,0 q -0.096,0.64 -0.4,1.072 Q 3.76,-9.696 3.32,-9.432 2.88,-9.168 2.328,-9.064 1.776,-8.96 1.184,-8.976 l 0,1.712 2.816,0 L 4,0 Z m 6.944,-5.392 q -0.432,0 -0.76,-0.184 -0.328,-0.184 -0.536,-0.48 -0.208,-0.296 -0.312,-0.672 -0.104,-0.376 -0.104,-0.776 0,-0.384 0.112,-0.752 0.112,-0.368 0.336,-0.656 0.224,-0.288 0.544,-0.464 0.32,-0.176 0.72,-0.176 0.432,0 0.768,0.176 0.336,0.176 0.568,0.472 0.232,0.296 0.352,0.672 0.12,0.376 0.12,0.76 0,0.416 -0.112,0.792 -0.112,0.376 -0.336,0.664 -0.224,0.288 -0.56,0.456 -0.336,0.168 -0.8,0.168 z m -1.632,2.512 -2.16,0 q 0.096,0.736 0.4,1.312 0.304,0.576 0.784,0.976 0.48,0.4 1.104,0.6 0.624,0.2 1.344,0.2 1.2,0 2.032,-0.52 0.832,-0.52 1.36,-1.36 0.528,-0.84 0.768,-1.88 0.24,-1.04 0.24,-2.08 0,-1.056 -0.192,-2.096 -0.192,-1.04 -0.688,-1.864 -0.496,-0.824 -1.32,-1.328 -0.824,-0.504 -2.104,-0.504 -0.88,0 -1.6,0.32 -0.72,0.32 -1.24,0.872 -0.52,0.552 -0.8,1.296 -0.28,0.744 -0.28,1.608 0,0.672 0.208,1.328 0.208,0.656 0.656,1.168 0.48,0.528 1.168,0.84 0.688,0.312 1.408,0.312 0.816,0 1.44,-0.288 0.624,-0.288 1.088,-0.96 l 0.032,0.032 q -0.032,0.464 -0.136,1.056 -0.104,0.592 -0.344,1.112 -0.24,0.52 -0.64,0.88 -0.4,0.36 -1.024,0.36 -0.592,0 -0.992,-0.416 -0.4,-0.416 -0.512,-0.976 z"
       style="stroke:none" />
  </g>
  <g
     id="g18913"
     style="font-weight:bold;font-size:21px;font-family:'Helvetica Neue';color-interpolation:linearRGB;color-rendering:optimizeQuality;image-rendering:optimizeQuality;text-rendering:geometricPrecision"
     transform="translate(556,73)">
    <path
       inkscape:connector-curvature="0"
       id="path18915"
       d="m 14.364,-7.035 2.919,0 q -0.063,-1.05 -0.504,-1.8165 -0.441,-0.7665 -1.1445,-1.281 -0.7035,-0.5145 -1.596,-0.7665 -0.8925,-0.252 -1.8585,-0.252 -1.323,0 -2.352,0.441 -1.029,0.441 -1.743,1.2285 -0.714,0.7875 -1.0815,1.869 -0.3675,1.0815 -0.3675,2.3415 0,1.218 0.399,2.2365 0.399,1.0185 1.113,1.7535 0.714,0.735 1.7325,1.1445 1.0185,0.4095 2.2365,0.4095 2.163,0 3.549,-1.134 1.386,-1.134 1.68,-3.297 l -2.877,0 q -0.147,1.008 -0.7245,1.6065 -0.5775,0.5985 -1.6485,0.5985 -0.693,0 -1.176,-0.315 Q 10.437,-2.583 10.1535,-3.0765 9.87,-3.57 9.744,-4.179 9.618,-4.788 9.618,-5.376 q 0,-0.609 0.126,-1.2285 0.126,-0.6195 0.4305,-1.134 0.3045,-0.5145 0.7875,-0.84 0.483,-0.3255 1.197,-0.3255 1.911,0 2.205,1.869 z m 4.746,-3.822 0,10.857 2.982,0 0,-6.3 q 0,-0.798 0.231,-1.2915 0.231,-0.4935 0.5565,-0.756 0.3255,-0.2625 0.672,-0.357 0.3465,-0.0945 0.5565,-0.0945 0.714,0 1.0815,0.2415 0.3675,0.2415 0.525,0.6405 0.1575,0.399 0.1785,0.8715 0.021,0.4725 0.021,0.9555 l 0,6.09 2.982,0 0,-6.048 q 0,-0.504 0.0735,-0.9975 0.0735,-0.4935 0.294,-0.882 0.2205,-0.3885 0.609,-0.63 0.3885,-0.2415 1.0185,-0.2415 0.63,0 0.9975,0.21 0.3675,0.21 0.5565,0.567 0.189,0.357 0.231,0.84 0.042,0.483 0.042,1.029 l 0,6.153 2.982,0 0,-7.266 q 0,-1.05 -0.294,-1.7955 -0.294,-0.7455 -0.819,-1.2075 -0.525,-0.462 -1.26,-0.672 -0.735,-0.21 -1.596,-0.21 -1.134,0 -1.9635,0.546 -0.8295,0.546 -1.3125,1.26 -0.441,-1.008 -1.2915,-1.407 -0.8505,-0.399 -1.8795,-0.399 -1.071,0 -1.9005,0.462 -0.8295,0.462 -1.4175,1.302 l -0.042,0 0,-1.47 z"
       style="stroke:none" />
  </g>
  <g
     id="g18917"
     style="font-weight:bold;font-size:16px;font-family:'Helvetica Neue';color-interpolation:linearRGB;color-rendering:optimizeQuality;image-rendering:optimizeQuality;text-rendering:geometricPrecision"
     transform="translate(593,63)">
    <path
       inkscape:connector-curvature="0"
       id="path18919"
       d="m 0.848,-5.344 0,1.952 4.816,0 0,-1.952 z m 9.312,-1.328 0,1.6 q 0.416,0 0.872,0.024 0.456,0.024 0.84,0.176 0.384,0.152 0.632,0.488 0.248,0.336 0.248,0.976 0,0.816 -0.528,1.288 -0.528,0.472 -1.296,0.472 -0.496,0 -0.856,-0.176 Q 9.712,-2 9.472,-2.296 9.232,-2.592 9.104,-3 8.976,-3.408 8.96,-3.856 l -2.16,0 q -0.016,0.976 0.28,1.728 0.296,0.752 0.84,1.272 0.544,0.52 1.32,0.792 0.776,0.272 1.72,0.272 0.816,0 1.568,-0.24 0.752,-0.24 1.328,-0.704 0.576,-0.464 0.92,-1.152 0.344,-0.688 0.344,-1.568 0,-0.96 -0.528,-1.648 Q 14.064,-5.792 13.136,-6 l 0,-0.032 q 0.784,-0.224 1.176,-0.848 0.392,-0.624 0.392,-1.44 0,-0.752 -0.336,-1.328 -0.336,-0.576 -0.872,-0.976 -0.536,-0.4 -1.208,-0.6 -0.672,-0.2 -1.344,-0.2 -0.864,0 -1.568,0.28 -0.704,0.28 -1.208,0.792 -0.504,0.512 -0.784,1.224 -0.28,0.712 -0.312,1.576 l 2.16,0 q -0.016,-0.864 0.424,-1.432 0.44,-0.568 1.304,-0.568 0.624,0 1.104,0.384 0.48,0.384 0.48,1.104 0,0.48 -0.232,0.768 -0.232,0.288 -0.592,0.44 -0.36,0.152 -0.776,0.184 -0.416,0.032 -0.784,0 z"
       style="stroke:none" />
  </g>
  <g
     id="g18921"
     style="color-interpolation:linearRGB;fill:#ffcc66;stroke:#ffcc66;color-rendering:optimizeQuality;image-rendering:optimizeQuality;text-rendering:geometricPrecision;stroke-width:4;stroke-miterlimit:7;stroke-dasharray:32,12,8,12;stroke-dashoffset:0">
    <line
       id="line18923"
       y1="62.5256"
       x2="511.0033"
       x1="481.00049"
       style="fill:none;stroke-width:4;stroke-miterlimit:7;stroke-dasharray:32,12,8,12;stroke-dashoffset:0"
       y2="62.5256" />
  </g>
  <g
     id="g18925"
     style="font-weight:bold;font-size:21px;font-family:'Helvetica Neue';color-interpolation:linearRGB;color-rendering:optimizeQuality;image-rendering:optimizeQuality;text-rendering:geometricPrecision"
     transform="translate(514,103)">
    <path
       inkscape:connector-curvature="0"
       id="path18927"
       d="m 8.232,0 0,-14.7 -2.373,0 q -0.126,0.84 -0.525,1.407 -0.399,0.567 -0.9765,0.9135 -0.5775,0.3465 -1.302,0.483 Q 2.331,-11.76 1.554,-11.781 l 0,2.247 3.696,0 0,9.534 z m 6.867,-7.413 q 0,-0.378 0.0105,-0.9135 0.0105,-0.5355 0.0735,-1.1025 0.063,-0.567 0.21,-1.1235 0.147,-0.5565 0.4095,-0.9975 0.2625,-0.441 0.672,-0.714 0.4095,-0.273 1.0185,-0.273 0.609,0 1.029,0.273 0.42,0.273 0.693,0.714 0.273,0.441 0.4095,0.9975 0.1365,0.5565 0.21,1.1235 0.0735,0.567 0.084,1.1025 0.0105,0.5355 0.0105,0.9135 0,0.63 -0.042,1.5225 -0.042,0.8925 -0.2625,1.722 -0.2205,0.8295 -0.714,1.4175 -0.4935,0.588 -1.4175,0.588 -0.903,0 -1.386,-0.588 Q 15.624,-3.339 15.4035,-4.1685 15.183,-4.998 15.141,-5.8905 15.099,-6.783 15.099,-7.413 Z m -2.982,0 q 0,2.205 0.4305,3.6855 0.4305,1.4805 1.1655,2.3625 0.735,0.882 1.7115,1.26 0.9765,0.378 2.0685,0.378 1.113,0 2.0895,-0.378 0.9765,-0.378 1.722,-1.26 0.7455,-0.882 1.176,-2.3625 0.4305,-1.4805 0.4305,-3.6855 0,-2.142 -0.4305,-3.6015 -0.4305,-1.4595 -1.176,-2.3415 -0.7455,-0.882 -1.722,-1.26 -0.9765,-0.378 -2.0895,-0.378 -1.092,0 -2.0685,0.378 -0.9765,0.378 -1.7115,1.26 -0.735,0.882 -1.1655,2.3415 -0.4305,1.4595 -0.4305,3.6015 z"
       style="stroke:none" />
  </g>
  <g
     id="g18929"
     style="font-weight:bold;font-size:16px;font-family:'Helvetica Neue';color-interpolation:linearRGB;color-rendering:optimizeQuality;image-rendering:optimizeQuality;text-rendering:geometricPrecision"
     transform="translate(538,93)">
    <path
       inkscape:connector-curvature="0"
       id="path18931"
       d="m 6.272,0 0,-11.2 -1.808,0 q -0.096,0.64 -0.4,1.072 Q 3.76,-9.696 3.32,-9.432 2.88,-9.168 2.328,-9.064 1.776,-8.96 1.184,-8.976 l 0,1.712 2.816,0 L 4,0 Z m 5.376,-8.16 q 0,-0.384 0.136,-0.672 0.136,-0.288 0.376,-0.48 0.24,-0.192 0.552,-0.296 0.312,-0.104 0.648,-0.104 0.528,0 0.856,0.16 0.328,0.16 0.512,0.4 0.184,0.24 0.248,0.504 0.064,0.264 0.064,0.488 0,0.72 -0.48,1.096 -0.48,0.376 -1.2,0.376 -0.688,0 -1.2,-0.376 Q 11.648,-7.44 11.648,-8.16 Z M 9.584,-8.368 q 0,0.832 0.416,1.456 0.416,0.624 1.232,0.848 l 0,0.032 q -1.008,0.24 -1.56,0.96 -0.552,0.72 -0.552,1.792 0,0.912 0.36,1.568 0.36,0.656 0.96,1.088 0.6,0.432 1.36,0.632 0.76,0.2 1.576,0.2 0.784,0 1.536,-0.216 0.752,-0.216 1.344,-0.648 0.592,-0.432 0.952,-1.088 0.36,-0.656 0.36,-1.552 0,-1.056 -0.544,-1.784 -0.544,-0.728 -1.552,-0.952 l 0,-0.032 q 0.816,-0.272 1.224,-0.896 0.408,-0.624 0.408,-1.456 0,-0.416 -0.192,-0.936 -0.192,-0.52 -0.632,-0.976 -0.44,-0.456 -1.16,-0.776 -0.72,-0.32 -1.76,-0.32 -0.688,0 -1.36,0.192 -0.672,0.192 -1.208,0.576 -0.536,0.384 -0.872,0.96 -0.336,0.576 -0.336,1.328 z m 1.808,4.976 q 0,-0.864 0.576,-1.32 0.576,-0.456 1.408,-0.456 0.4,0 0.744,0.128 0.344,0.128 0.608,0.368 0.264,0.24 0.416,0.568 0.152,0.328 0.152,0.728 0,0.416 -0.144,0.768 -0.144,0.352 -0.408,0.6 -0.264,0.248 -0.608,0.384 -0.344,0.136 -0.76,0.136 -0.4,0 -0.768,-0.136 -0.368,-0.136 -0.632,-0.384 -0.264,-0.248 -0.424,-0.6 -0.16,-0.352 -0.16,-0.784 z"
       style="stroke:none" />
  </g>
  <g
     id="g18933"
     style="font-weight:bold;font-size:21px;font-family:'Helvetica Neue';color-interpolation:linearRGB;color-rendering:optimizeQuality;image-rendering:optimizeQuality;text-rendering:geometricPrecision"
     transform="translate(556,103)">
    <path
       inkscape:connector-curvature="0"
       id="path18935"
       d="m 14.364,-7.035 2.919,0 q -0.063,-1.05 -0.504,-1.8165 -0.441,-0.7665 -1.1445,-1.281 -0.7035,-0.5145 -1.596,-0.7665 -0.8925,-0.252 -1.8585,-0.252 -1.323,0 -2.352,0.441 -1.029,0.441 -1.743,1.2285 -0.714,0.7875 -1.0815,1.869 -0.3675,1.0815 -0.3675,2.3415 0,1.218 0.399,2.2365 0.399,1.0185 1.113,1.7535 0.714,0.735 1.7325,1.1445 1.0185,0.4095 2.2365,0.4095 2.163,0 3.549,-1.134 1.386,-1.134 1.68,-3.297 l -2.877,0 q -0.147,1.008 -0.7245,1.6065 -0.5775,0.5985 -1.6485,0.5985 -0.693,0 -1.176,-0.315 Q 10.437,-2.583 10.1535,-3.0765 9.87,-3.57 9.744,-4.179 9.618,-4.788 9.618,-5.376 q 0,-0.609 0.126,-1.2285 0.126,-0.6195 0.4305,-1.134 0.3045,-0.5145 0.7875,-0.84 0.483,-0.3255 1.197,-0.3255 1.911,0 2.205,1.869 z m 4.746,-3.822 0,10.857 2.982,0 0,-6.3 q 0,-0.798 0.231,-1.2915 0.231,-0.4935 0.5565,-0.756 0.3255,-0.2625 0.672,-0.357 0.3465,-0.0945 0.5565,-0.0945 0.714,0 1.0815,0.2415 0.3675,0.2415 0.525,0.6405 0.1575,0.399 0.1785,0.8715 0.021,0.4725 0.021,0.9555 l 0,6.09 2.982,0 0,-6.048 q 0,-0.504 0.0735,-0.9975 0.0735,-0.4935 0.294,-0.882 0.2205,-0.3885 0.609,-0.63 0.3885,-0.2415 1.0185,-0.2415 0.63,0 0.9975,0.21 0.3675,0.21 0.5565,0.567 0.189,0.357 0.231,0.84 0.042,0.483 0.042,1.029 l 0,6.153 2.982,0 0,-7.266 q 0,-1.05 -0.294,-1.7955 -0.294,-0.7455 -0.819,-1.2075 -0.525,-0.462 -1.26,-0.672 -0.735,-0.21 -1.596,-0.21 -1.134,0 -1.9635,0.546 -0.8295,0.546 -1.3125,1.26 -0.441,-1.008 -1.2915,-1.407 -0.8505,-0.399 -1.8795,-0.399 -1.071,0 -1.9005,0.462 -0.8295,0.462 -1.4175,1.302 l -0.042,0 0,-1.47 z"
       style="stroke:none" />
  </g>
  <g
     id="g18937"
     style="font-weight:bold;font-size:16px;font-family:'Helvetica Neue';color-interpolation:linearRGB;color-rendering:optimizeQuality;image-rendering:optimizeQuality;text-rendering:geometricPrecision"
     transform="translate(593,93)">
    <path
       inkscape:connector-curvature="0"
       id="path18939"
       d="m 0.848,-5.344 0,1.952 4.816,0 0,-1.952 z m 9.312,-1.328 0,1.6 q 0.416,0 0.872,0.024 0.456,0.024 0.84,0.176 0.384,0.152 0.632,0.488 0.248,0.336 0.248,0.976 0,0.816 -0.528,1.288 -0.528,0.472 -1.296,0.472 -0.496,0 -0.856,-0.176 Q 9.712,-2 9.472,-2.296 9.232,-2.592 9.104,-3 8.976,-3.408 8.96,-3.856 l -2.16,0 q -0.016,0.976 0.28,1.728 0.296,0.752 0.84,1.272 0.544,0.52 1.32,0.792 0.776,0.272 1.72,0.272 0.816,0 1.568,-0.24 0.752,-0.24 1.328,-0.704 0.576,-0.464 0.92,-1.152 0.344,-0.688 0.344,-1.568 0,-0.96 -0.528,-1.648 Q 14.064,-5.792 13.136,-6 l 0,-0.032 q 0.784,-0.224 1.176,-0.848 0.392,-0.624 0.392,-1.44 0,-0.752 -0.336,-1.328 -0.336,-0.576 -0.872,-0.976 -0.536,-0.4 -1.208,-0.6 -0.672,-0.2 -1.344,-0.2 -0.864,0 -1.568,0.28 -0.704,0.28 -1.208,0.792 -0.504,0.512 -0.784,1.224 -0.28,0.712 -0.312,1.576 l 2.16,0 q -0.016,-0.864 0.424,-1.432 0.44,-0.568 1.304,-0.568 0.624,0 1.104,0.384 0.48,0.384 0.48,1.104 0,0.48 -0.232,0.768 -0.232,0.288 -0.592,0.44 -0.36,0.152 -0.776,0.184 -0.416,0.032 -0.784,0 z"
       style="stroke:none" />
  </g>
  <g
     id="g18941"
     style="color-interpolation:linearRGB;fill:#0072bd;stroke:#0072bd;color-rendering:optimizeQuality;image-rendering:optimizeQuality;text-rendering:geometricPrecision;stroke-width:4;stroke-miterlimit:7;stroke-dasharray:32,12,8,12;stroke-dashoffset:0">
    <line
       id="line18943"
       y1="92.071404"
       x2="511.0033"
       x1="481.00049"
       style="fill:none;stroke-width:4;stroke-miterlimit:7;stroke-dasharray:32,12,8,12;stroke-dashoffset:0"
       y2="92.071404" />
  </g>
  <g
     id="g18945"
     style="font-weight:bold;font-size:22px;font-family:'Helvetica Neue';color-interpolation:linearRGB;color-rendering:optimizeQuality;image-rendering:optimizeQuality;text-rendering:geometricPrecision"
     transform="translate(514.0035,120.0458)">
    <path
       inkscape:connector-curvature="0"
       id="path18947"
       d="m 14.85,2.579 0,-9.768 -3.454,0 0,9.768 q 0,1.76 -0.704,2.585 Q 9.988,5.989 8.14,5.989 7.084,5.989 6.457,5.692 5.83,5.395 5.478,4.922 5.126,4.449 5.016,3.833 4.906,3.217 4.906,2.579 l 0,-9.768 -3.454,0 0,9.768 q 0,3.212 1.749,4.752 1.749,1.54 4.939,1.54 3.146,0 4.928,-1.551 1.782,-1.551 1.782,-4.741 z m 2.64,-5.434 0,11.374 3.124,0 0,-5.962 q 0,-1.738 0.572,-2.497 0.572,-0.759 1.848,-0.759 1.122,0 1.562,0.693 0.44,0.693 0.44,2.101 l 0,6.424 3.124,0 0,-6.996 q 0,-1.056 -0.187,-1.925 -0.187,-0.869 -0.649,-1.474 -0.462,-0.605 -1.265,-0.946 -0.803,-0.341 -2.057,-0.341 -0.99,0 -1.936,0.451 -0.946,0.451 -1.54,1.441 l -0.066,0 0,-1.584 z m 21.12,5.654 q 0,0.704 -0.132,1.364 -0.132,0.66 -0.44,1.177 Q 37.73,5.857 37.213,6.165 36.696,6.473 35.926,6.473 35.2,6.473 34.683,6.154 34.166,5.835 33.825,5.318 33.484,4.801 33.33,4.141 q -0.154,-0.66 -0.154,-1.32 0,-0.704 0.143,-1.353 0.143,-0.649 0.462,-1.155 0.319,-0.506 0.847,-0.814 0.528,-0.308 1.298,-0.308 0.77,0 1.276,0.308 0.506,0.308 0.825,0.803 0.319,0.495 0.451,1.144 0.132,0.649 0.132,1.353 z m 0.044,4.268 0,1.452 2.97,0 0,-15.708 -3.124,0 0,5.72 -0.044,0 q -0.528,-0.836 -1.441,-1.265 -0.913,-0.429 -1.925,-0.429 -1.254,0 -2.2,0.495 -0.946,0.495 -1.573,1.309 -0.627,0.814 -0.946,1.881 -0.319,1.067 -0.319,2.211 0,1.188 0.319,2.288 0.319,1.1 0.946,1.947 0.627,0.847 1.595,1.342 0.968,0.495 2.244,0.495 1.122,0 2.013,-0.407 Q 38.06,7.991 38.61,7.067 Z M 46.75,2.843 q 0,-0.682 0.132,-1.342 0.132,-0.66 0.451,-1.166 0.319,-0.506 0.847,-0.825 0.528,-0.319 1.32,-0.319 0.792,0 1.331,0.319 0.539,0.319 0.858,0.825 0.319,0.506 0.451,1.166 0.132,0.66 0.132,1.342 0,0.682 -0.132,1.331 Q 52.008,4.823 51.689,5.34 51.37,5.857 50.831,6.165 50.292,6.473 49.5,6.473 48.708,6.473 48.18,6.165 47.652,5.857 47.333,5.34 47.014,4.823 46.882,4.174 46.75,3.525 46.75,2.843 Z m -3.124,0 q 0,1.364 0.418,2.464 0.418,1.1 1.188,1.881 0.77,0.781 1.848,1.199 1.078,0.418 2.42,0.418 1.342,0 2.431,-0.418 1.089,-0.418 1.859,-1.199 0.77,-0.781 1.188,-1.881 0.418,-1.1 0.418,-2.464 0,-1.364 -0.418,-2.475 -0.418,-1.111 -1.188,-1.892 -0.77,-0.781 -1.859,-1.21 -1.089,-0.429 -2.431,-0.429 -1.342,0 -2.42,0.429 -1.078,0.429 -1.848,1.21 -0.77,0.781 -1.188,1.892 -0.418,1.111 -0.418,2.475 z m 19.536,3.63 q -0.748,0 -1.276,-0.308 Q 61.358,5.857 61.039,5.362 60.72,4.867 60.577,4.207 60.434,3.547 60.434,2.865 q 0,-0.704 0.132,-1.364 0.132,-0.66 0.451,-1.166 0.319,-0.506 0.836,-0.825 0.517,-0.319 1.287,-0.319 0.748,0 1.265,0.319 0.517,0.319 0.847,0.836 0.33,0.517 0.473,1.177 0.143,0.66 0.143,1.342 0,0.682 -0.132,1.342 -0.132,0.66 -0.451,1.155 -0.319,0.495 -0.836,0.803 -0.517,0.308 -1.287,0.308 z m -5.742,-9.328 0,15.356 3.124,0 0,-5.39 0.044,0 q 0.572,0.836 1.463,1.265 0.891,0.429 1.947,0.429 1.254,0 2.189,-0.484 0.935,-0.484 1.562,-1.298 0.627,-0.814 0.935,-1.87 0.308,-1.056 0.308,-2.2 0,-1.21 -0.308,-2.321 -0.308,-1.111 -0.946,-1.947 -0.638,-0.836 -1.606,-1.342 -0.968,-0.506 -2.31,-0.506 -1.056,0 -1.936,0.418 -0.88,0.418 -1.452,1.342 l -0.044,0 0,-1.452 z m 21.098,4.466 -5.082,0 q 0.022,-0.33 0.143,-0.748 0.121,-0.418 0.418,-0.792 0.297,-0.374 0.792,-0.627 0.495,-0.253 1.243,-0.253 1.144,0 1.705,0.616 0.561,0.616 0.781,1.804 z m -5.082,1.98 8.206,0 q 0.088,-1.32 -0.22,-2.53 -0.308,-1.21 -1.001,-2.156 -0.693,-0.946 -1.771,-1.507 -1.078,-0.561 -2.53,-0.561 -1.298,0 -2.365,0.462 -1.067,0.462 -1.837,1.265 -0.77,0.803 -1.188,1.903 -0.418,1.1 -0.418,2.376 0,1.32 0.407,2.42 0.407,1.1 1.155,1.892 0.748,0.792 1.826,1.221 1.078,0.429 2.42,0.429 1.936,0 3.3,-0.88 1.364,-0.88 2.024,-2.926 l -2.75,0 Q 78.54,5.527 77.858,6 77.176,6.473 76.23,6.473 q -1.32,0 -2.024,-0.682 -0.704,-0.682 -0.77,-2.2 z M 91.564,2.799 q 0,0.704 -0.132,1.364 Q 91.3,4.823 90.992,5.34 90.684,5.857 90.167,6.165 89.65,6.473 88.88,6.473 88.154,6.473 87.637,6.154 87.12,5.835 86.779,5.318 86.438,4.801 86.284,4.141 86.13,3.481 86.13,2.821 q 0,-0.704 0.143,-1.353 0.143,-0.649 0.462,-1.155 0.319,-0.506 0.847,-0.814 0.528,-0.308 1.298,-0.308 0.77,0 1.276,0.308 0.506,0.308 0.825,0.803 0.319,0.495 0.451,1.144 0.132,0.649 0.132,1.353 z m 0.044,4.268 0,1.452 2.97,0 0,-15.708 -3.124,0 0,5.72 -0.044,0 q -0.528,-0.836 -1.441,-1.265 -0.913,-0.429 -1.925,-0.429 -1.254,0 -2.2,0.495 -0.946,0.495 -1.573,1.309 -0.627,0.814 -0.946,1.881 -0.319,1.067 -0.319,2.211 0,1.188 0.319,2.288 0.319,1.1 0.946,1.947 0.627,0.847 1.595,1.342 0.968,0.495 2.244,0.495 1.122,0 2.013,-0.407 0.891,-0.407 1.441,-1.331 z m 13.86,-2.244 -2.97,0 q 0.044,1.144 0.517,1.903 0.473,0.759 1.21,1.221 0.737,0.462 1.683,0.66 0.946,0.198 1.936,0.198 0.968,0 1.903,-0.187 0.935,-0.187 1.661,-0.649 0.726,-0.462 1.177,-1.221 0.451,-0.759 0.451,-1.881 0,-0.792 -0.308,-1.331 -0.308,-0.539 -0.814,-0.902 -0.506,-0.363 -1.155,-0.583 -0.649,-0.22 -1.331,-0.374 -0.66,-0.154 -1.298,-0.286 -0.638,-0.132 -1.133,-0.297 -0.495,-0.165 -0.803,-0.429 -0.308,-0.264 -0.308,-0.682 0,-0.352 0.176,-0.561 0.176,-0.209 0.429,-0.319 0.253,-0.11 0.561,-0.143 0.308,-0.033 0.572,-0.033 0.836,0 1.452,0.319 0.616,0.319 0.682,1.221 l 2.97,0 q -0.088,-1.056 -0.539,-1.749 -0.451,-0.693 -1.133,-1.111 -0.682,-0.418 -1.551,-0.594 -0.869,-0.176 -1.793,-0.176 -0.924,0 -1.804,0.165 -0.88,0.165 -1.584,0.572 -0.704,0.407 -1.133,1.111 -0.429,0.704 -0.429,1.804 0,0.748 0.308,1.265 0.308,0.517 0.814,0.858 0.506,0.341 1.155,0.55 0.649,0.209 1.331,0.363 1.672,0.352 2.607,0.704 0.935,0.352 0.935,1.056 0,0.418 -0.198,0.693 -0.198,0.275 -0.495,0.44 -0.297,0.165 -0.66,0.242 -0.363,0.077 -0.693,0.077 -0.462,0 -0.891,-0.11 -0.429,-0.11 -0.759,-0.341 -0.33,-0.231 -0.539,-0.594 -0.209,-0.363 -0.209,-0.869 z m 9.262,-4.18 q 0.066,-1.1 0.55,-1.826 0.484,-0.726 1.232,-1.166 0.748,-0.44 1.683,-0.627 0.935,-0.187 1.881,-0.187 0.858,0 1.738,0.121 0.88,0.121 1.606,0.473 0.726,0.352 1.188,0.979 0.462,0.627 0.462,1.661 l 0,5.918 q 0,0.77 0.088,1.474 0.088,0.704 0.308,1.056 l -3.168,0 Q 122.21,8.255 122.155,7.98 122.1,7.705 122.078,7.419 q -0.748,0.77 -1.76,1.078 -1.012,0.308 -2.068,0.308 -0.814,0 -1.518,-0.198 -0.704,-0.198 -1.232,-0.616 -0.528,-0.418 -0.825,-1.056 -0.297,-0.638 -0.297,-1.518 0,-0.968 0.341,-1.595 0.341,-0.627 0.88,-1.001 0.539,-0.374 1.232,-0.561 0.693,-0.187 1.397,-0.297 0.704,-0.11 1.386,-0.176 0.682,-0.066 1.21,-0.198 0.528,-0.132 0.836,-0.385 0.308,-0.253 0.286,-0.737 0,-0.506 -0.165,-0.803 -0.165,-0.297 -0.44,-0.462 -0.275,-0.165 -0.638,-0.22 -0.363,-0.055 -0.781,-0.055 -0.924,0 -1.452,0.396 -0.528,0.396 -0.616,1.32 z m 7.216,2.31 q -0.198,0.176 -0.495,0.275 -0.297,0.099 -0.638,0.165 -0.341,0.066 -0.715,0.11 -0.374,0.044 -0.748,0.11 -0.352,0.066 -0.693,0.176 -0.341,0.11 -0.594,0.297 -0.253,0.187 -0.407,0.473 -0.154,0.286 -0.154,0.726 0,0.418 0.154,0.704 0.154,0.286 0.418,0.451 0.264,0.165 0.616,0.231 0.352,0.066 0.726,0.066 0.924,0 1.43,-0.308 0.506,-0.308 0.748,-0.737 0.242,-0.429 0.297,-0.869 0.055,-0.44 0.055,-0.704 z m 5.632,-5.808 0,11.374 3.124,0 0,-6.6 q 0,-0.836 0.242,-1.353 0.242,-0.517 0.583,-0.792 0.341,-0.275 0.704,-0.374 0.363,-0.099 0.583,-0.099 0.748,0 1.133,0.253 0.385,0.253 0.55,0.671 0.165,0.418 0.187,0.913 0.022,0.495 0.022,1.001 l 0,6.38 3.124,0 0,-6.336 q 0,-0.528 0.077,-1.045 0.077,-0.517 0.308,-0.924 0.231,-0.407 0.638,-0.66 0.407,-0.253 1.067,-0.253 0.66,0 1.045,0.22 0.385,0.22 0.583,0.594 0.198,0.374 0.242,0.88 0.044,0.506 0.044,1.078 l 0,6.446 3.124,0 0,-7.612 q 0,-1.1 -0.308,-1.881 -0.308,-0.781 -0.858,-1.265 -0.55,-0.484 -1.32,-0.704 -0.77,-0.22 -1.672,-0.22 -1.188,0 -2.057,0.572 -0.869,0.572 -1.375,1.32 -0.462,-1.056 -1.353,-1.474 -0.891,-0.418 -1.969,-0.418 -1.122,0 -1.991,0.484 -0.869,0.484 -1.485,1.364 l -0.044,0 0,-1.54 z m 25.586,9.328 q -0.748,0 -1.276,-0.308 -0.528,-0.308 -0.847,-0.803 -0.319,-0.495 -0.462,-1.155 -0.143,-0.66 -0.143,-1.342 0,-0.704 0.132,-1.364 0.132,-0.66 0.451,-1.166 0.319,-0.506 0.836,-0.825 0.517,-0.319 1.287,-0.319 0.748,0 1.265,0.319 0.517,0.319 0.847,0.836 0.33,0.517 0.473,1.177 0.143,0.66 0.143,1.342 0,0.682 -0.132,1.342 -0.132,0.66 -0.451,1.155 -0.319,0.495 -0.836,0.803 -0.517,0.308 -1.287,0.308 z m -5.742,-9.328 0,15.356 3.124,0 0,-5.39 0.044,0 q 0.572,0.836 1.463,1.265 0.891,0.429 1.947,0.429 1.254,0 2.189,-0.484 0.935,-0.484 1.562,-1.298 0.627,-0.814 0.935,-1.87 0.308,-1.056 0.308,-2.2 0,-1.21 -0.308,-2.321 -0.308,-1.111 -0.946,-1.947 -0.638,-0.836 -1.606,-1.342 -0.968,-0.506 -2.31,-0.506 -1.056,0 -1.936,0.418 -0.88,0.418 -1.452,1.342 l -0.044,0 0,-1.452 z m 13.53,-4.334 0,15.708 3.124,0 0,-15.708 z m 13.244,8.8 -5.082,0 q 0.022,-0.33 0.143,-0.748 0.121,-0.418 0.418,-0.792 0.297,-0.374 0.792,-0.627 0.495,-0.253 1.243,-0.253 1.144,0 1.705,0.616 0.561,0.616 0.781,1.804 z m -5.082,1.98 8.206,0 q 0.088,-1.32 -0.22,-2.53 -0.308,-1.21 -1.001,-2.156 -0.693,-0.946 -1.771,-1.507 -1.078,-0.561 -2.53,-0.561 -1.298,0 -2.365,0.462 -1.067,0.462 -1.837,1.265 -0.77,0.803 -1.188,1.903 -0.418,1.1 -0.418,2.376 0,1.32 0.407,2.42 0.407,1.1 1.155,1.892 0.748,0.792 1.826,1.221 1.078,0.429 2.42,0.429 1.936,0 3.3,-0.88 1.364,-0.88 2.024,-2.926 l -2.75,0 q -0.154,0.528 -0.836,1.001 -0.682,0.473 -1.628,0.473 -1.32,0 -2.024,-0.682 -0.704,-0.682 -0.77,-2.2 z"
       style="stroke:none" />
  </g>
  <g
     id="g18949"
     style="color-interpolation:linearRGB;stroke-linecap:butt;stroke-linejoin:bevel;stroke-miterlimit:7;stroke-dasharray:24,9,6,9;color-rendering:optimizeQuality;image-rendering:optimizeQuality;text-rendering:geometricPrecision;stroke-width:3;stroke-dashoffset:0">
    <line
       id="line18951"
       y1="120.0458"
       x2="511.0033"
       x1="481.00049"
       style="fill:none;stroke-width:3;stroke-miterlimit:7;stroke-dasharray:24,9,6,9;stroke-dashoffset:0"
       y2="120.0458" />
  </g>
  <g
     id="g18953"
     style="color-interpolation:linearRGB;fill:#262626;stroke:#262626;color-rendering:optimizeQuality;image-rendering:optimizeQuality;text-rendering:geometricPrecision">
    <path
       inkscape:connector-curvature="0"
       id="path18955"
       style="fill:none;fill-rule:evenodd"
       d="m 475,135 0,-89 220,0 0,89 -220,0" />
  </g>
</svg>
