<?xml version="1.0" encoding="UTF-8" standalone="no"?>
<!-- Created with Inkscape (http://www.inkscape.org/) -->

<svg
   xmlns:dc="http://purl.org/dc/elements/1.1/"
   xmlns:cc="http://creativecommons.org/ns#"
   xmlns:rdf="http://www.w3.org/1999/02/22-rdf-syntax-ns#"
   xmlns:svg="http://www.w3.org/2000/svg"
   xmlns="http://www.w3.org/2000/svg"
   xmlns:xlink="http://www.w3.org/1999/xlink"
   xmlns:sodipodi="http://sodipodi.sourceforge.net/DTD/sodipodi-0.dtd"
   xmlns:inkscape="http://www.inkscape.org/namespaces/inkscape"
   width="40mm"
   height="50mm"
   viewBox="0 0 141.73227 177.16536"
   id="svg2"
   version="1.1"
   inkscape:version="0.91 r13725"
   sodipodi:docname="reactor1.svg">
  <defs
     id="defs4">
    <linearGradient
       inkscape:collect="always"
       id="linearGradient4444">
      <stop
         style="stop-color:#656262;stop-opacity:1;"
         offset="0"
         id="stop4446" />
      <stop
         style="stop-color:#656262;stop-opacity:0;"
         offset="1"
         id="stop4448" />
    </linearGradient>
    <linearGradient
       inkscape:collect="always"
       id="linearGradient5019">
      <stop
         style="stop-color:#f9b864;stop-opacity:1;"
         offset="0"
         id="stop5021" />
      <stop
         style="stop-color:#f9b864;stop-opacity:0;"
         offset="1"
         id="stop5023" />
    </linearGradient>
    <inkscape:perspective
       sodipodi:type="inkscape:persp3d"
       inkscape:vp_x="0 : 526.18109 : 1"
       inkscape:vp_y="0 : 999.99998 : 0"
       inkscape:vp_z="744.09443 : 526.18109 : 1"
       inkscape:persp3d-origin="372.04717 : 350.7874 : 1"
       id="perspective4748" />
    <linearGradient
       inkscape:collect="always"
       xlink:href="#linearGradient5019"
       id="linearGradient5025"
       x1="70.787697"
       y1="151.25484"
       x2="196.14513"
       y2="151.25484"
       gradientUnits="userSpaceOnUse"
       gradientTransform="translate(-65,830.71429)" />
    <linearGradient
       inkscape:collect="always"
       xlink:href="#linearGradient5019"
       id="linearGradient5027"
       x1="70.663857"
       y1="170.64877"
       x2="77.299004"
       y2="170.64877"
       gradientUnits="userSpaceOnUse"
       gradientTransform="translate(-65,830.71429)" />
    <linearGradient
       inkscape:collect="always"
       xlink:href="#linearGradient5019"
       id="linearGradient5029"
       x1="70.663857"
       y1="170.64877"
       x2="77.299004"
       y2="170.64877"
       gradientUnits="userSpaceOnUse"
       gradientTransform="translate(-65,830.71429)" />
    <linearGradient
       inkscape:collect="always"
       xlink:href="#linearGradient5019"
       id="linearGradient5031"
       x1="70.787697"
       y1="165.01637"
       x2="196.14513"
       y2="165.01637"
       gradientUnits="userSpaceOnUse"
       gradientTransform="translate(-65,830.71429)" />
    <linearGradient
       inkscape:collect="always"
       xlink:href="#linearGradient5019"
       id="linearGradient5033"
       x1="70.535156"
       y1="137.36523"
       x2="195.89258"
       y2="137.36523"
       gradientUnits="userSpaceOnUse"
       gradientTransform="translate(-65,830.71429)" />
    <linearGradient
       inkscape:collect="always"
       xlink:href="#linearGradient5019"
       id="linearGradient5035"
       x1="70.787697"
       y1="109.25483"
       x2="196.14513"
       y2="109.25483"
       gradientUnits="userSpaceOnUse"
       gradientTransform="translate(-65,830.71429)" />
    <linearGradient
       inkscape:collect="always"
       xlink:href="#linearGradient5019"
       id="linearGradient5037"
       x1="70.663857"
       y1="128.64877"
       x2="77.299004"
       y2="128.64877"
       gradientUnits="userSpaceOnUse"
       gradientTransform="translate(-65,830.71429)" />
    <linearGradient
       inkscape:collect="always"
       xlink:href="#linearGradient5019"
       id="linearGradient5039"
       x1="70.663857"
       y1="128.64877"
       x2="77.299004"
       y2="128.64877"
       gradientUnits="userSpaceOnUse"
       gradientTransform="translate(-65,830.71429)" />
    <linearGradient
       inkscape:collect="always"
       xlink:href="#linearGradient5019"
       id="linearGradient5041"
       x1="70.787697"
       y1="123.01638"
       x2="196.14513"
       y2="123.01638"
       gradientUnits="userSpaceOnUse"
       gradientTransform="translate(-65,830.71429)" />
    <linearGradient
       inkscape:collect="always"
       xlink:href="#linearGradient5019"
       id="linearGradient5043"
       x1="70.535156"
       y1="95.365234"
       x2="195.89258"
       y2="95.365234"
       gradientUnits="userSpaceOnUse"
       gradientTransform="translate(-65,830.71429)" />
    <linearGradient
       inkscape:collect="always"
       xlink:href="#linearGradient4444"
       id="linearGradient4450"
       x1="100.36728"
       y1="140.02771"
       x2="169.68349"
       y2="140.02771"
       gradientUnits="userSpaceOnUse"
       gradientTransform="translate(-66.071429,837.85714)" />
  </defs>
  <sodipodi:namedview
     id="base"
     pagecolor="#ffffff"
     bordercolor="#666666"
     borderopacity="1.0"
     inkscape:pageopacity="0.0"
     inkscape:pageshadow="2"
     inkscape:zoom="2.8"
     inkscape:cx="84.394453"
     inkscape:cy="96.619926"
     inkscape:document-units="px"
     inkscape:current-layer="layer2"
     showgrid="false"
     inkscape:window-width="1440"
     inkscape:window-height="851"
     inkscape:window-x="0"
     inkscape:window-y="0"
     inkscape:window-maximized="1" />
  <metadata
     id="metadata7">
    <rdf:RDF>
      <cc:Work
         rdf:about="">
        <dc:format>image/svg+xml</dc:format>
        <dc:type
           rdf:resource="http://purl.org/dc/dcmitype/StillImage" />
        <dc:title />
      </cc:Work>
    </rdf:RDF>
  </metadata>
  <g
     inkscape:label="Layer 1"
     inkscape:groupmode="layer"
     id="layer1"
     style="display:none"
     transform="translate(0,-875.19685)" />
  <g
     inkscape:groupmode="layer"
     id="layer6"
     inkscape:label="Coil Bottom"
     style="display:inline"
     transform="translate(0,-875.19685)">
    <g
       inkscape:groupmode="layer"
       id="layer3"
       inkscape:label="Coil 1"
       style="display:inline">
      <path
         style="opacity:1;fill:#ad936f;fill-opacity:1;stroke:none;stroke-width:1;stroke-linecap:butt;stroke-miterlimit:10;stroke-dasharray:2, 1;stroke-dashoffset:0;stroke-opacity:1"
         d="m 68.21484,918.30999 a 62.67857,12.549644 0 0 0 -62.679684,12.54883 62.67857,12.549644 0 0 0 1.896485,2.99024 l 2.591797,0 A 58.482143,11.644 0 0 1 68.125,923.48382 a 58.482143,11.644 0 0 1 57.32227,9.39063 l 0,-0.7793 5.0625,0 a 62.67857,12.549644 0 0 0 0.38281,-1.23633 62.67857,12.549644 0 0 0 -62.67774,-12.54883 z"
         id="path4739"
         inkscape:connector-curvature="0" />
      <ellipse
         ry="3.2134352"
         rx="3.3175762"
         cy="931.18701"
         cx="127.8252"
         id="ellipse4746"
         style="opacity:1;fill:#f9b864;fill-opacity:1;stroke:none;stroke-width:1;stroke-linecap:butt;stroke-miterlimit:10;stroke-dasharray:2, 1;stroke-dashoffset:0;stroke-opacity:1" />
      <ellipse
         style="opacity:1;fill:#f9b864;fill-opacity:1;stroke:none;stroke-width:1;stroke-linecap:butt;stroke-miterlimit:10;stroke-dasharray:2, 1;stroke-dashoffset:0;stroke-opacity:1"
         id="ellipse4767"
         cx="8.7288895"
         cy="931.44403"
         rx="3.3175762"
         ry="3.2134352" />
    </g>
    <g
       inkscape:label="Coil 2"
       id="g4772"
       inkscape:groupmode="layer"
       style="display:inline">
      <path
         id="path4774"
         d="m 68.46738,945.96114 a 62.67857,12.549644 0 0 0 -62.679686,12.54883 62.67857,12.549644 0 0 0 1.896485,2.99024 l 2.591797,0 a 58.482143,11.644 0 0 1 58.101564,-10.36524 58.482143,11.644 0 0 1 57.32227,9.39063 l 0,-0.7793 5.0625,0 a 62.67857,12.549644 0 0 0 0.38281,-1.23633 62.67857,12.549644 0 0 0 -62.67774,-12.54883 z"
         style="opacity:1;fill:#ad936f;fill-opacity:1;stroke:none;stroke-width:1;stroke-linecap:butt;stroke-miterlimit:10;stroke-dasharray:2, 1;stroke-dashoffset:0;stroke-opacity:1"
         inkscape:connector-curvature="0" />
      <ellipse
         style="opacity:1;fill:#f9b864;fill-opacity:1;stroke:none;stroke-width:1;stroke-linecap:butt;stroke-miterlimit:10;stroke-dasharray:2, 1;stroke-dashoffset:0;stroke-opacity:1"
         id="ellipse4776"
         cx="128.07773"
         cy="958.8382"
         rx="3.3175762"
         ry="3.2134352" />
      <ellipse
         ry="3.2134352"
         rx="3.3175762"
         cy="959.36304"
         cx="8.9814301"
         id="ellipse4778"
         style="opacity:1;fill:#f9b864;fill-opacity:1;stroke:none;stroke-width:1;stroke-linecap:butt;stroke-miterlimit:10;stroke-dasharray:2, 1;stroke-dashoffset:0;stroke-opacity:1" />
      <ellipse
         ry="3.2134352"
         rx="3.3175762"
         cy="959.36304"
         cx="8.9814301"
         id="ellipse4792"
         style="opacity:1;fill:#f9b864;fill-opacity:1;stroke:none;stroke-width:1;stroke-linecap:butt;stroke-miterlimit:10;stroke-dasharray:2, 1;stroke-dashoffset:0;stroke-opacity:1" />
      <ellipse
         ry="3.2134352"
         rx="3.3175762"
         cy="959.09521"
         cx="8.8921432"
         id="ellipse4804"
         style="opacity:1;fill:#f9b864;fill-opacity:1;stroke:none;stroke-width:1;stroke-linecap:butt;stroke-miterlimit:10;stroke-dasharray:2, 1;stroke-dashoffset:0;stroke-opacity:1" />
    </g>
    <g
       inkscape:groupmode="layer"
       id="g4780"
       inkscape:label="Coil 3"
       style="display:inline">
      <path
         style="opacity:1;fill:#ad936f;fill-opacity:1;stroke:none;stroke-width:1;stroke-linecap:butt;stroke-miterlimit:10;stroke-dasharray:2, 1;stroke-dashoffset:0;stroke-opacity:1"
         d="m 68.46738,932.19959 a 62.67857,12.549644 0 0 0 -62.679686,12.54883 62.67857,12.549644 0 0 0 1.896485,2.99024 l 2.591797,0 a 58.482143,11.644 0 0 1 58.101564,-10.36524 58.482143,11.644 0 0 1 57.32227,9.39063 l 0,-0.7793 5.0625,0 a 62.67857,12.549644 0 0 0 0.38281,-1.23633 62.67857,12.549644 0 0 0 -62.67774,-12.54883 z"
         id="path4782"
         inkscape:connector-curvature="0" />
      <ellipse
         ry="3.2134352"
         rx="3.3175762"
         cy="945.0766"
         cx="128.07773"
         id="ellipse4784"
         style="opacity:1;fill:#f9b864;fill-opacity:1;stroke:none;stroke-width:1;stroke-linecap:butt;stroke-miterlimit:10;stroke-dasharray:2, 1;stroke-dashoffset:0;stroke-opacity:1" />
      <ellipse
         style="opacity:1;fill:#f9b864;fill-opacity:1;stroke:none;stroke-width:1;stroke-linecap:butt;stroke-miterlimit:10;stroke-dasharray:2, 1;stroke-dashoffset:0;stroke-opacity:1"
         id="ellipse4786"
         cx="8.9814301"
         cy="945.33362"
         rx="3.3175762"
         ry="3.2134352" />
    </g>
    <g
       inkscape:groupmode="layer"
       id="layer5"
       inkscape:label="Coil 4">
      <path
         inkscape:connector-curvature="0"
         id="path4841"
         d="m 68.21484,960.30999 a 62.67857,12.549644 0 0 0 -62.679684,12.54883 62.67857,12.549644 0 0 0 1.896485,2.99024 l 2.591797,0 A 58.482143,11.644 0 0 1 68.125,965.48382 a 58.482143,11.644 0 0 1 57.32227,9.39063 l 0,-0.7793 5.0625,0 a 62.67857,12.549644 0 0 0 0.38281,-1.23633 62.67857,12.549644 0 0 0 -62.67774,-12.54883 z"
         style="display:inline;opacity:1;fill:#ad936f;fill-opacity:1;stroke:none;stroke-width:1;stroke-linecap:butt;stroke-miterlimit:10;stroke-dasharray:2, 1;stroke-dashoffset:0;stroke-opacity:1" />
      <ellipse
         style="display:inline;opacity:1;fill:#f9b864;fill-opacity:1;stroke:none;stroke-width:1;stroke-linecap:butt;stroke-miterlimit:10;stroke-dasharray:2, 1;stroke-dashoffset:0;stroke-opacity:1"
         id="ellipse4843"
         cx="127.8252"
         cy="973.18701"
         rx="3.3175762"
         ry="3.2134352" />
      <ellipse
         ry="3.2134352"
         rx="3.3175762"
         cy="973.44403"
         cx="8.7288895"
         id="ellipse4845"
         style="display:inline;opacity:1;fill:#f9b864;fill-opacity:1;stroke:none;stroke-width:1;stroke-linecap:butt;stroke-miterlimit:10;stroke-dasharray:2, 1;stroke-dashoffset:0;stroke-opacity:1" />
      <path
         inkscape:connector-curvature="0"
         style="display:inline;opacity:1;fill:#ad936f;fill-opacity:1;stroke:none;stroke-width:1;stroke-linecap:butt;stroke-miterlimit:10;stroke-dasharray:2, 1;stroke-dashoffset:0;stroke-opacity:1"
         d="M 68.46738,987.96114 A 62.67857,12.549644 0 0 0 5.787694,1000.51 a 62.67857,12.549644 0 0 0 1.896485,2.9902 l 2.591797,0 a 58.482143,11.644 0 0 1 58.101564,-10.36523 58.482143,11.644 0 0 1 57.32227,9.39063 l 0,-0.7793 5.0625,0 a 62.67857,12.549644 0 0 0 0.38281,-1.2363 62.67857,12.549644 0 0 0 -62.67774,-12.54886 z"
         id="path4847" />
      <ellipse
         ry="3.2134352"
         rx="3.3175762"
         cy="1000.8382"
         cx="128.07773"
         id="ellipse4849"
         style="display:inline;opacity:1;fill:#f9b864;fill-opacity:1;stroke:none;stroke-width:1;stroke-linecap:butt;stroke-miterlimit:10;stroke-dasharray:2, 1;stroke-dashoffset:0;stroke-opacity:1" />
      <ellipse
         style="display:inline;opacity:1;fill:#f9b864;fill-opacity:1;stroke:none;stroke-width:1;stroke-linecap:butt;stroke-miterlimit:10;stroke-dasharray:2, 1;stroke-dashoffset:0;stroke-opacity:1"
         id="ellipse4851"
         cx="8.9814301"
         cy="1001.363"
         rx="3.3175762"
         ry="3.2134352" />
      <ellipse
         style="display:inline;opacity:1;fill:#f9b864;fill-opacity:1;stroke:none;stroke-width:1;stroke-linecap:butt;stroke-miterlimit:10;stroke-dasharray:2, 1;stroke-dashoffset:0;stroke-opacity:1"
         id="ellipse4853"
         cx="8.9814301"
         cy="1001.363"
         rx="3.3175762"
         ry="3.2134352" />
      <ellipse
         style="display:inline;opacity:1;fill:#f9b864;fill-opacity:1;stroke:none;stroke-width:1;stroke-linecap:butt;stroke-miterlimit:10;stroke-dasharray:2, 1;stroke-dashoffset:0;stroke-opacity:1"
         id="ellipse4855"
         cx="8.8921432"
         cy="1001.0952"
         rx="3.3175762"
         ry="3.2134352" />
      <path
         inkscape:connector-curvature="0"
         id="path4857"
         d="m 68.46738,974.19959 a 62.67857,12.549644 0 0 0 -62.679686,12.54883 62.67857,12.549644 0 0 0 1.896485,2.99024 l 2.591797,0 a 58.482143,11.644 0 0 1 58.101564,-10.36524 58.482143,11.644 0 0 1 57.32227,9.39063 l 0,-0.7793 5.0625,0 a 62.67857,12.549644 0 0 0 0.38281,-1.23633 62.67857,12.549644 0 0 0 -62.67774,-12.54883 z"
         style="display:inline;opacity:1;fill:#ad936f;fill-opacity:1;stroke:none;stroke-width:1;stroke-linecap:butt;stroke-miterlimit:10;stroke-dasharray:2, 1;stroke-dashoffset:0;stroke-opacity:1" />
      <ellipse
         style="display:inline;opacity:1;fill:#f9b864;fill-opacity:1;stroke:none;stroke-width:1;stroke-linecap:butt;stroke-miterlimit:10;stroke-dasharray:2, 1;stroke-dashoffset:0;stroke-opacity:1"
         id="ellipse4859"
         cx="128.07773"
         cy="987.0766"
         rx="3.3175762"
         ry="3.2134352" />
      <ellipse
         ry="3.2134352"
         rx="3.3175762"
         cy="987.33362"
         cx="8.9814301"
         id="ellipse4861"
         style="display:inline;opacity:1;fill:#f9b864;fill-opacity:1;stroke:none;stroke-width:1;stroke-linecap:butt;stroke-miterlimit:10;stroke-dasharray:2, 1;stroke-dashoffset:0;stroke-opacity:1" />
    </g>
  </g>
  <g
     inkscape:groupmode="layer"
     id="layer7"
     inkscape:label="Coil Top"
     style="display:inline"
     transform="translate(0,-875.19685)">
    <path
       inkscape:connector-curvature="0"
       id="path4903"
       d="m 68.21484,918.30999 a 62.67857,12.549644 0 0 0 -62.679684,12.54883 62.67857,12.549644 0 0 0 1.896485,2.99024 l 2.591797,0 A 58.482143,11.644 0 0 1 68.125,923.48382 a 58.482143,11.644 0 0 1 57.32227,9.39063 l 0,-0.7793 5.0625,0 a 62.67857,12.549644 0 0 0 0.38281,-1.23633 62.67857,12.549644 0 0 0 -62.67774,-12.54883 z"
       style="display:inline;opacity:1;fill:url(#linearGradient5043);fill-opacity:1;stroke:none;stroke-width:1;stroke-linecap:butt;stroke-miterlimit:10;stroke-dasharray:2, 1;stroke-dashoffset:0;stroke-opacity:1" />
    <ellipse
       style="display:inline;opacity:1;fill:#eacb9f;fill-opacity:1;stroke:none;stroke-width:1;stroke-linecap:butt;stroke-miterlimit:10;stroke-dasharray:2, 1;stroke-dashoffset:0;stroke-opacity:1"
       id="ellipse4905"
       cx="127.8252"
       cy="931.18701"
       rx="3.3175762"
       ry="3.2134352" />
    <ellipse
       ry="3.2134352"
       rx="3.3175762"
       cy="931.44403"
       cx="8.7288895"
       id="ellipse4907"
       style="display:inline;opacity:1;fill:#eacb9f;fill-opacity:1;stroke:none;stroke-width:1;stroke-linecap:butt;stroke-miterlimit:10;stroke-dasharray:2, 1;stroke-dashoffset:0;stroke-opacity:1" />
    <path
       inkscape:connector-curvature="0"
       style="display:inline;opacity:1;fill:url(#linearGradient5041);fill-opacity:1;stroke:none;stroke-width:1;stroke-linecap:butt;stroke-miterlimit:10;stroke-dasharray:2, 1;stroke-dashoffset:0;stroke-opacity:1"
       d="m 68.46738,945.96114 a 62.67857,12.549644 0 0 0 -62.679686,12.54883 62.67857,12.549644 0 0 0 1.896485,2.99024 l 2.591797,0 a 58.482143,11.644 0 0 1 58.101564,-10.36524 58.482143,11.644 0 0 1 57.32227,9.39063 l 0,-0.7793 5.0625,0 a 62.67857,12.549644 0 0 0 0.38281,-1.23633 62.67857,12.549644 0 0 0 -62.67774,-12.54883 z"
       id="path4909" />
    <ellipse
       ry="3.2134352"
       rx="3.3175762"
       cy="958.8382"
       cx="128.07773"
       id="ellipse4911"
       style="display:inline;opacity:1;fill:#eacb9f;fill-opacity:1;stroke:none;stroke-width:1;stroke-linecap:butt;stroke-miterlimit:10;stroke-dasharray:2, 1;stroke-dashoffset:0;stroke-opacity:1" />
    <ellipse
       style="display:inline;opacity:1;fill:url(#linearGradient5039);fill-opacity:1;stroke:none;stroke-width:1;stroke-linecap:butt;stroke-miterlimit:10;stroke-dasharray:2, 1;stroke-dashoffset:0;stroke-opacity:1"
       id="ellipse4913"
       cx="8.9814301"
       cy="959.36304"
       rx="3.3175762"
       ry="3.2134352" />
    <ellipse
       style="display:inline;opacity:1;fill:url(#linearGradient5037);fill-opacity:1;stroke:none;stroke-width:1;stroke-linecap:butt;stroke-miterlimit:10;stroke-dasharray:2, 1;stroke-dashoffset:0;stroke-opacity:1"
       id="ellipse4915"
       cx="8.9814301"
       cy="959.36304"
       rx="3.3175762"
       ry="3.2134352" />
    <ellipse
       style="display:inline;opacity:1;fill:#eacb9f;fill-opacity:1;stroke:none;stroke-width:1;stroke-linecap:butt;stroke-miterlimit:10;stroke-dasharray:2, 1;stroke-dashoffset:0;stroke-opacity:1"
       id="ellipse4917"
       cx="8.8921432"
       cy="959.09521"
       rx="3.3175762"
       ry="3.2134352" />
    <path
       inkscape:connector-curvature="0"
       id="path4919"
       d="m 68.46738,932.19959 a 62.67857,12.549644 0 0 0 -62.679686,12.54883 62.67857,12.549644 0 0 0 1.896485,2.99024 l 2.591797,0 a 58.482143,11.644 0 0 1 58.101564,-10.36524 58.482143,11.644 0 0 1 57.32227,9.39063 l 0,-0.7793 5.0625,0 a 62.67857,12.549644 0 0 0 0.38281,-1.23633 62.67857,12.549644 0 0 0 -62.67774,-12.54883 z"
       style="display:inline;opacity:1;fill:url(#linearGradient5035);fill-opacity:1;stroke:none;stroke-width:1;stroke-linecap:butt;stroke-miterlimit:10;stroke-dasharray:2, 1;stroke-dashoffset:0;stroke-opacity:1" />
    <ellipse
       style="display:inline;opacity:1;fill:#eacb9f;fill-opacity:1;stroke:none;stroke-width:1;stroke-linecap:butt;stroke-miterlimit:10;stroke-dasharray:2, 1;stroke-dashoffset:0;stroke-opacity:1"
       id="ellipse4921"
       cx="128.07773"
       cy="945.0766"
       rx="3.3175762"
       ry="3.2134352" />
    <ellipse
       ry="3.2134352"
       rx="3.3175762"
       cy="945.33362"
       cx="8.9814301"
       id="ellipse4923"
       style="display:inline;opacity:1;fill:#eacb9f;fill-opacity:1;stroke:none;stroke-width:1;stroke-linecap:butt;stroke-miterlimit:10;stroke-dasharray:2, 1;stroke-dashoffset:0;stroke-opacity:1" />
    <path
       style="display:inline;opacity:1;fill:url(#linearGradient5033);fill-opacity:1;stroke:none;stroke-width:1;stroke-linecap:butt;stroke-miterlimit:10;stroke-dasharray:2, 1;stroke-dashoffset:0;stroke-opacity:1"
       d="m 68.21484,960.30999 a 62.67857,12.549644 0 0 0 -62.679684,12.54883 62.67857,12.549644 0 0 0 1.896485,2.99024 l 2.591797,0 A 58.482143,11.644 0 0 1 68.125,965.48382 a 58.482143,11.644 0 0 1 57.32227,9.39063 l 0,-0.7793 5.0625,0 a 62.67857,12.549644 0 0 0 0.38281,-1.23633 62.67857,12.549644 0 0 0 -62.67774,-12.54883 z"
       id="path4925"
       inkscape:connector-curvature="0" />
    <ellipse
       ry="3.2134352"
       rx="3.3175762"
       cy="973.18701"
       cx="127.8252"
       id="ellipse4927"
       style="display:inline;opacity:1;fill:#eacb9f;fill-opacity:1;stroke:none;stroke-width:1;stroke-linecap:butt;stroke-miterlimit:10;stroke-dasharray:2, 1;stroke-dashoffset:0;stroke-opacity:1" />
    <ellipse
       style="display:inline;opacity:1;fill:#eacb9f;fill-opacity:1;stroke:none;stroke-width:1;stroke-linecap:butt;stroke-miterlimit:10;stroke-dasharray:2, 1;stroke-dashoffset:0;stroke-opacity:1"
       id="ellipse4929"
       cx="8.7288895"
       cy="973.44403"
       rx="3.3175762"
       ry="3.2134352" />
    <path
       id="path4931"
       d="M 68.46738,987.96114 A 62.67857,12.549644 0 0 0 5.787694,1000.51 a 62.67857,12.549644 0 0 0 1.896485,2.9902 l 2.591797,0 a 58.482143,11.644 0 0 1 58.101564,-10.36523 58.482143,11.644 0 0 1 57.32227,9.39063 l 0,-0.7793 5.0625,0 a 62.67857,12.549644 0 0 0 0.38281,-1.2363 62.67857,12.549644 0 0 0 -62.67774,-12.54886 z"
       style="display:inline;opacity:1;fill:url(#linearGradient5031);fill-opacity:1;stroke:none;stroke-width:1;stroke-linecap:butt;stroke-miterlimit:10;stroke-dasharray:2, 1;stroke-dashoffset:0;stroke-opacity:1"
       inkscape:connector-curvature="0" />
    <ellipse
       style="display:inline;opacity:1;fill:#eacb9f;fill-opacity:1;stroke:none;stroke-width:1;stroke-linecap:butt;stroke-miterlimit:10;stroke-dasharray:2, 1;stroke-dashoffset:0;stroke-opacity:1"
       id="ellipse4933"
       cx="128.07773"
       cy="1000.8382"
       rx="3.3175762"
       ry="3.2134352" />
    <ellipse
       ry="3.2134352"
       rx="3.3175762"
       cy="1001.363"
       cx="8.9814301"
       id="ellipse4935"
       style="display:inline;opacity:1;fill:url(#linearGradient5029);fill-opacity:1;stroke:none;stroke-width:1;stroke-linecap:butt;stroke-miterlimit:10;stroke-dasharray:2, 1;stroke-dashoffset:0;stroke-opacity:1" />
    <ellipse
       ry="3.2134352"
       rx="3.3175762"
       cy="1001.363"
       cx="8.9814301"
       id="ellipse4937"
       style="display:inline;opacity:1;fill:url(#linearGradient5027);fill-opacity:1;stroke:none;stroke-width:1;stroke-linecap:butt;stroke-miterlimit:10;stroke-dasharray:2, 1;stroke-dashoffset:0;stroke-opacity:1" />
    <ellipse
       ry="3.2134352"
       rx="3.3175762"
       cy="1001.0952"
       cx="8.8921432"
       id="ellipse4939"
       style="display:inline;opacity:1;fill:#eacb9f;fill-opacity:1;stroke:none;stroke-width:1;stroke-linecap:butt;stroke-miterlimit:10;stroke-dasharray:2, 1;stroke-dashoffset:0;stroke-opacity:1" />
    <path
       style="display:inline;opacity:1;fill:url(#linearGradient5025);fill-opacity:1;stroke:none;stroke-width:1;stroke-linecap:butt;stroke-miterlimit:10;stroke-dasharray:2, 1;stroke-dashoffset:0;stroke-opacity:1"
       d="m 68.46738,974.19959 a 62.67857,12.549644 0 0 0 -62.679686,12.54883 62.67857,12.549644 0 0 0 1.896485,2.99024 l 2.591797,0 a 58.482143,11.644 0 0 1 58.101564,-10.36524 58.482143,11.644 0 0 1 57.32227,9.39063 l 0,-0.7793 5.0625,0 a 62.67857,12.549644 0 0 0 0.38281,-1.23633 62.67857,12.549644 0 0 0 -62.67774,-12.54883 z"
       id="path4941"
       inkscape:connector-curvature="0" />
    <ellipse
       ry="3.2134352"
       rx="3.3175762"
       cy="987.0766"
       cx="128.07773"
       id="ellipse4943"
       style="display:inline;opacity:1;fill:#eacb9f;fill-opacity:1;stroke:none;stroke-width:1;stroke-linecap:butt;stroke-miterlimit:10;stroke-dasharray:2, 1;stroke-dashoffset:0;stroke-opacity:1" />
    <ellipse
       style="display:inline;opacity:1;fill:#eacb9f;fill-opacity:1;stroke:none;stroke-width:1;stroke-linecap:butt;stroke-miterlimit:10;stroke-dasharray:2, 1;stroke-dashoffset:0;stroke-opacity:1"
       id="ellipse4945"
       cx="8.9814301"
       cy="987.33362"
       rx="3.3175762"
       ry="3.2134352" />
  </g>
  <g
     inkscape:groupmode="layer"
     id="layer4"
     inkscape:label="Cylinder bottom"
     style="display:inline"
     transform="translate(0,-875.19685)">
    <ellipse
       cx="68.600433"
       cy="1030.1194"
       rx="56.07143"
       ry="12.857143"
       id="ellipse4716"
       style="display:inline;opacity:1;fill:#839ed6;fill-opacity:1;stroke:#000000;stroke-width:1;stroke-linecap:butt;stroke-miterlimit:10;stroke-dasharray:none;stroke-dashoffset:0;stroke-opacity:1" />
  </g>
  <g
     inkscape:groupmode="layer"
     id="layer8"
     inkscape:label="Cylinder Contours"
     style="display:inline"
     transform="translate(0,-875.19685)">
    <ellipse
       cx="68.600433"
       cy="905.21936"
       rx="56.07143"
       ry="12.857143"
       id="ellipse5050"
       style="display:inline;opacity:1;fill:none;fill-opacity:0.39215686;stroke:#000000;stroke-width:1;stroke-linecap:butt;stroke-miterlimit:10;stroke-dasharray:none;stroke-dashoffset:0;stroke-opacity:1" />
    <path
       style="fill:none;fill-rule:evenodd;stroke:#000000;stroke-width:1px;stroke-linecap:butt;stroke-linejoin:miter;stroke-opacity:1"
       d="m 124.65614,905.24883 0,125.51147"
       id="path4247"
       inkscape:connector-curvature="0" />
    <path
       style="fill:none;fill-rule:evenodd;stroke:#000000;stroke-width:1px;stroke-linecap:butt;stroke-linejoin:miter;stroke-opacity:1"
       d="m 12.276669,905.24883 0.252538,125.00637"
       id="path4249"
       inkscape:connector-curvature="0" />
  </g>
  <g
     inkscape:groupmode="layer"
     id="layer9"
     inkscape:label="Small Cylinder"
     style="display:inline"
     transform="translate(0,-875.19685)">
    <g
       inkscape:groupmode="layer"
       id="layer10"
       inkscape:label="Bottom"
       style="display:inline" />
    <g
       inkscape:groupmode="layer"
       id="layer11"
       inkscape:label="Side"
       style="display:inline">
      <path
         inkscape:connector-curvature="0"
         id="path4441"
         d="m 34.603961,935.20026 0,77.39954 0,0.2409 0.0371,0 a 34.350066,7.9694421 0 0 0 34.312299,7.7287 34.350066,7.9694421 0 0 0 34.35059,-7.9696 34.350066,7.9694421 0 0 0 -0.16393,-0.7118 l 0,-76.68774 -68.536049,0 z"
         style="display:inline;opacity:1;fill:#c6c3c3;fill-opacity:1;stroke:#000000;stroke-width:0.61621845;stroke-linecap:butt;stroke-linejoin:miter;stroke-miterlimit:10;stroke-dasharray:none;stroke-dashoffset:0;stroke-opacity:1" />
    </g>
    <g
       inkscape:groupmode="layer"
       id="layer12"
       inkscape:label="Top"
       style="display:inline" />
    <path
       style="display:inline;opacity:1;fill:url(#linearGradient4450);fill-opacity:1;stroke:#000000;stroke-width:0.61621845;stroke-linecap:butt;stroke-linejoin:miter;stroke-miterlimit:10;stroke-dasharray:none;stroke-dashoffset:0;stroke-opacity:1"
       d="m 34.603961,935.20026 0,77.39954 0,0.2409 0.0371,0 a 34.350066,7.9694421 0 0 0 34.312299,7.7287 34.350066,7.9694421 0 0 0 34.35059,-7.9696 34.350066,7.9694421 0 0 0 -0.16393,-0.7118 l 0,-76.68774 -68.536049,0 z"
       id="path4401"
       inkscape:connector-curvature="0" />
    <ellipse
       cx="68.953888"
       cy="935.96423"
       rx="34.350067"
       ry="7.9694424"
       id="ellipse4405"
       style="display:inline;opacity:1;fill:#9e9e9e;fill-opacity:1;stroke:#000000;stroke-width:0.61621845;stroke-linecap:butt;stroke-miterlimit:10;stroke-dasharray:none;stroke-dashoffset:0;stroke-opacity:1" />
  </g>
  <g
     inkscape:groupmode="layer"
     id="layer2"
     inkscape:label="Cylinder body and top"
     style="display:inline"
     transform="translate(0,-875.19685)">
    <ellipse
       style="opacity:1;fill:#c2d1f0;fill-opacity:1;stroke:none;stroke-width:1;stroke-linecap:butt;stroke-miterlimit:10;stroke-dasharray:2, 1;stroke-dashoffset:0;stroke-opacity:1"
       id="path4137"
       ry="12.857143"
       rx="56.07143"
       cy="905.21936"
       cx="68.600433" />
    <path
       style="display:inline;opacity:1;fill:#7897d5;fill-opacity:0.31847133;stroke:none;stroke-width:1;stroke-linecap:butt;stroke-miterlimit:10;stroke-dasharray:2, 1;stroke-dashoffset:0;stroke-opacity:1"
       d="m 68.59961,892.36272 a 56.07143,12.857143 0 0 0 -56.021485,12.63282 l -0.04883,0 0,0.2246 0,125.79296 112.142585,0 0,-125.79296 0,-0.2246 -0.0352,0 A 56.07143,12.857143 0 0 0 68.59961,892.36272 Z"
       id="rect4714"
       inkscape:connector-curvature="0" />
    <ellipse
       style="opacity:1;fill:#49546c;fill-opacity:1;stroke:#000000;stroke-width:1;stroke-linecap:butt;stroke-miterlimit:10;stroke-dasharray:none;stroke-dashoffset:0;stroke-opacity:1"
       id="path4217"
       cx="70.357132"
       cy="935.93365"
       rx="11.428572"
       ry="2.5" />
  </g>
</svg>
