<?xml version="1.0" encoding="UTF-8" standalone="no"?>
<!-- Created with Inkscape (http://www.inkscape.org/) -->

<svg
   xmlns:dc="http://purl.org/dc/elements/1.1/"
   xmlns:cc="http://creativecommons.org/ns#"
   xmlns:rdf="http://www.w3.org/1999/02/22-rdf-syntax-ns#"
   xmlns:svg="http://www.w3.org/2000/svg"
   xmlns="http://www.w3.org/2000/svg"
   xmlns:xlink="http://www.w3.org/1999/xlink"
   xmlns:sodipodi="http://sodipodi.sourceforge.net/DTD/sodipodi-0.dtd"
   xmlns:inkscape="http://www.inkscape.org/namespaces/inkscape"
   width="210mm"
   height="297mm"
   viewBox="0 0 744.09448819 1052.3622047"
   id="svg2"
   version="1.1"
   inkscape:version="0.91 r13725"
   sodipodi:docname="reactor2.svg">
  <defs
     id="defs4">
    <linearGradient
       inkscape:collect="always"
       id="linearGradient4444">
      <stop
         style="stop-color:#656262;stop-opacity:1;"
         offset="0"
         id="stop4446" />
      <stop
         style="stop-color:#656262;stop-opacity:0;"
         offset="1"
         id="stop4448" />
    </linearGradient>
    <linearGradient
       inkscape:collect="always"
       id="linearGradient4370">
      <stop
         style="stop-color:#7e7e7e;stop-opacity:1;"
         offset="0"
         id="stop4372" />
      <stop
         style="stop-color:#7e7e7e;stop-opacity:0;"
         offset="1"
         id="stop4374" />
    </linearGradient>
    <linearGradient
       inkscape:collect="always"
       id="linearGradient5019">
      <stop
         style="stop-color:#f9b864;stop-opacity:1;"
         offset="0"
         id="stop5021" />
      <stop
         style="stop-color:#f9b864;stop-opacity:0;"
         offset="1"
         id="stop5023" />
    </linearGradient>
    <inkscape:perspective
       sodipodi:type="inkscape:persp3d"
       inkscape:vp_x="0 : 526.1811 : 1"
       inkscape:vp_y="0 : 1000 : 0"
       inkscape:vp_z="744.09449 : 526.1811 : 1"
       inkscape:persp3d-origin="372.04724 : 350.7874 : 1"
       id="perspective4748" />
    <linearGradient
       inkscape:collect="always"
       xlink:href="#linearGradient5019"
       id="linearGradient5025"
       x1="70.787694"
       y1="151.25483"
       x2="196.14512"
       y2="151.25483"
       gradientUnits="userSpaceOnUse" />
    <linearGradient
       inkscape:collect="always"
       xlink:href="#linearGradient5019"
       id="linearGradient5027"
       x1="70.663854"
       y1="170.64877"
       x2="77.299006"
       y2="170.64877"
       gradientUnits="userSpaceOnUse" />
    <linearGradient
       inkscape:collect="always"
       xlink:href="#linearGradient5019"
       id="linearGradient5029"
       x1="70.663854"
       y1="170.64877"
       x2="77.299006"
       y2="170.64877"
       gradientUnits="userSpaceOnUse" />
    <linearGradient
       inkscape:collect="always"
       xlink:href="#linearGradient5019"
       id="linearGradient5031"
       x1="70.787694"
       y1="165.01638"
       x2="196.14512"
       y2="165.01638"
       gradientUnits="userSpaceOnUse" />
    <linearGradient
       inkscape:collect="always"
       xlink:href="#linearGradient5019"
       id="linearGradient5033"
       x1="70.535156"
       y1="137.36523"
       x2="195.89258"
       y2="137.36523"
       gradientUnits="userSpaceOnUse" />
    <linearGradient
       inkscape:collect="always"
       xlink:href="#linearGradient5019"
       id="linearGradient5035"
       x1="70.787694"
       y1="109.25483"
       x2="196.14512"
       y2="109.25483"
       gradientUnits="userSpaceOnUse" />
    <linearGradient
       inkscape:collect="always"
       xlink:href="#linearGradient5019"
       id="linearGradient5037"
       x1="70.663854"
       y1="128.64877"
       x2="77.299006"
       y2="128.64877"
       gradientUnits="userSpaceOnUse" />
    <linearGradient
       inkscape:collect="always"
       xlink:href="#linearGradient5019"
       id="linearGradient5039"
       x1="70.663854"
       y1="128.64877"
       x2="77.299006"
       y2="128.64877"
       gradientUnits="userSpaceOnUse" />
    <linearGradient
       inkscape:collect="always"
       xlink:href="#linearGradient5019"
       id="linearGradient5041"
       x1="70.787694"
       y1="123.01638"
       x2="196.14512"
       y2="123.01638"
       gradientUnits="userSpaceOnUse" />
    <linearGradient
       inkscape:collect="always"
       xlink:href="#linearGradient5019"
       id="linearGradient5043"
       x1="70.535156"
       y1="95.365236"
       x2="195.89258"
       y2="95.365236"
       gradientUnits="userSpaceOnUse" />
    <linearGradient
       inkscape:collect="always"
       xlink:href="#linearGradient4370"
       id="linearGradient4413"
       gradientUnits="userSpaceOnUse"
       gradientTransform="matrix(0.43252677,0,0,0.47745085,377.06096,66.930949)"
       x1="77.029297"
       y1="142.38828"
       x2="190.17189"
       y2="142.38828" />
    <linearGradient
       inkscape:collect="always"
       xlink:href="#linearGradient4444"
       id="linearGradient4450"
       x1="100.36728"
       y1="140.02771"
       x2="169.68349"
       y2="140.02771"
       gradientUnits="userSpaceOnUse"
       gradientTransform="translate(-1.0714286,7.1428571)" />
  </defs>
  <sodipodi:namedview
     id="base"
     pagecolor="#ffffff"
     bordercolor="#666666"
     borderopacity="1.0"
     inkscape:pageopacity="0.0"
     inkscape:pageshadow="2"
     inkscape:zoom="2.8"
     inkscape:cx="312.25159"
     inkscape:cy="898.11162"
     inkscape:document-units="px"
     inkscape:current-layer="layer9"
     showgrid="false"
     inkscape:window-width="1440"
     inkscape:window-height="851"
     inkscape:window-x="0"
     inkscape:window-y="0"
     inkscape:window-maximized="1" />
  <metadata
     id="metadata7">
    <rdf:RDF>
      <cc:Work
         rdf:about="">
        <dc:format>image/svg+xml</dc:format>
        <dc:type
           rdf:resource="http://purl.org/dc/dcmitype/StillImage" />
        <dc:title></dc:title>
      </cc:Work>
    </rdf:RDF>
  </metadata>
  <g
     inkscape:label="Layer 1"
     inkscape:groupmode="layer"
     id="layer1"
     style="display:none" />
  <g
     inkscape:groupmode="layer"
     id="layer6"
     inkscape:label="Coil Bottom"
     style="display:inline">
    <g
       inkscape:groupmode="layer"
       id="layer3"
       inkscape:label="Coil 1"
       style="display:inline">
      <path
         style="opacity:1;fill:#ad936f;fill-opacity:1;stroke:none;stroke-width:1;stroke-linecap:butt;stroke-miterlimit:10;stroke-dasharray:2, 1;stroke-dashoffset:0;stroke-opacity:1"
         d="m 133.21484,87.595703 a 62.67857,12.549644 0 0 0 -62.679684,12.548827 62.67857,12.549644 0 0 0 1.896485,2.99024 l 2.591797,0 A 58.482143,11.644 0 0 1 133.125,92.769531 a 58.482143,11.644 0 0 1 57.32227,9.390629 l 0,-0.7793 5.0625,0 a 62.67857,12.549644 0 0 0 0.38281,-1.23633 62.67857,12.549644 0 0 0 -62.67774,-12.548827 z"
         id="path4739"
         inkscape:connector-curvature="0" />
      <ellipse
         ry="3.2134352"
         rx="3.3175762"
         cy="100.47274"
         cx="192.8252"
         id="ellipse4746"
         style="opacity:1;fill:#f9b864;fill-opacity:1;stroke:none;stroke-width:1;stroke-linecap:butt;stroke-miterlimit:10;stroke-dasharray:2, 1;stroke-dashoffset:0;stroke-opacity:1" />
      <ellipse
         style="opacity:1;fill:#f9b864;fill-opacity:1;stroke:none;stroke-width:1;stroke-linecap:butt;stroke-miterlimit:10;stroke-dasharray:2, 1;stroke-dashoffset:0;stroke-opacity:1"
         id="ellipse4767"
         cx="73.728889"
         cy="100.72976"
         rx="3.3175762"
         ry="3.2134352" />
    </g>
    <g
       inkscape:label="Coil 2"
       id="g4772"
       inkscape:groupmode="layer"
       style="display:inline">
      <path
         id="path4774"
         d="m 133.46738,115.24685 a 62.67857,12.549644 0 0 0 -62.679686,12.54883 62.67857,12.549644 0 0 0 1.896485,2.99024 l 2.591797,0 a 58.482143,11.644 0 0 1 58.101564,-10.36524 58.482143,11.644 0 0 1 57.32227,9.39063 l 0,-0.7793 5.0625,0 a 62.67857,12.549644 0 0 0 0.38281,-1.23633 62.67857,12.549644 0 0 0 -62.67774,-12.54883 z"
         style="opacity:1;fill:#ad936f;fill-opacity:1;stroke:none;stroke-width:1;stroke-linecap:butt;stroke-miterlimit:10;stroke-dasharray:2, 1;stroke-dashoffset:0;stroke-opacity:1"
         inkscape:connector-curvature="0" />
      <ellipse
         style="opacity:1;fill:#f9b864;fill-opacity:1;stroke:none;stroke-width:1;stroke-linecap:butt;stroke-miterlimit:10;stroke-dasharray:2, 1;stroke-dashoffset:0;stroke-opacity:1"
         id="ellipse4776"
         cx="193.07773"
         cy="128.12389"
         rx="3.3175762"
         ry="3.2134352" />
      <ellipse
         ry="3.2134352"
         rx="3.3175762"
         cy="128.64877"
         cx="73.98143"
         id="ellipse4778"
         style="opacity:1;fill:#f9b864;fill-opacity:1;stroke:none;stroke-width:1;stroke-linecap:butt;stroke-miterlimit:10;stroke-dasharray:2, 1;stroke-dashoffset:0;stroke-opacity:1" />
      <ellipse
         ry="3.2134352"
         rx="3.3175762"
         cy="128.64877"
         cx="73.98143"
         id="ellipse4792"
         style="opacity:1;fill:#f9b864;fill-opacity:1;stroke:none;stroke-width:1;stroke-linecap:butt;stroke-miterlimit:10;stroke-dasharray:2, 1;stroke-dashoffset:0;stroke-opacity:1" />
      <ellipse
         ry="3.2134352"
         rx="3.3175762"
         cy="128.38091"
         cx="73.892143"
         id="ellipse4804"
         style="opacity:1;fill:#f9b864;fill-opacity:1;stroke:none;stroke-width:1;stroke-linecap:butt;stroke-miterlimit:10;stroke-dasharray:2, 1;stroke-dashoffset:0;stroke-opacity:1" />
    </g>
    <g
       inkscape:groupmode="layer"
       id="g4780"
       inkscape:label="Coil 3"
       style="display:inline">
      <path
         style="opacity:1;fill:#ad936f;fill-opacity:1;stroke:none;stroke-width:1;stroke-linecap:butt;stroke-miterlimit:10;stroke-dasharray:2, 1;stroke-dashoffset:0;stroke-opacity:1"
         d="m 133.46738,101.4853 a 62.67857,12.549644 0 0 0 -62.679686,12.54883 62.67857,12.549644 0 0 0 1.896485,2.99024 l 2.591797,0 a 58.482143,11.644 0 0 1 58.101564,-10.36524 58.482143,11.644 0 0 1 57.32227,9.39063 l 0,-0.7793 5.0625,0 a 62.67857,12.549644 0 0 0 0.38281,-1.23633 62.67857,12.549644 0 0 0 -62.67774,-12.54883 z"
         id="path4782"
         inkscape:connector-curvature="0" />
      <ellipse
         ry="3.2134352"
         rx="3.3175762"
         cy="114.36234"
         cx="193.07773"
         id="ellipse4784"
         style="opacity:1;fill:#f9b864;fill-opacity:1;stroke:none;stroke-width:1;stroke-linecap:butt;stroke-miterlimit:10;stroke-dasharray:2, 1;stroke-dashoffset:0;stroke-opacity:1" />
      <ellipse
         style="opacity:1;fill:#f9b864;fill-opacity:1;stroke:none;stroke-width:1;stroke-linecap:butt;stroke-miterlimit:10;stroke-dasharray:2, 1;stroke-dashoffset:0;stroke-opacity:1"
         id="ellipse4786"
         cx="73.98143"
         cy="114.61935"
         rx="3.3175762"
         ry="3.2134352" />
    </g>
    <g
       inkscape:groupmode="layer"
       id="layer5"
       inkscape:label="Coil 4">
      <path
         inkscape:connector-curvature="0"
         id="path4841"
         d="m 133.21484,129.5957 a 62.67857,12.549644 0 0 0 -62.679684,12.54883 62.67857,12.549644 0 0 0 1.896485,2.99024 l 2.591797,0 a 58.482143,11.644 0 0 1 58.101562,-10.36524 58.482143,11.644 0 0 1 57.32227,9.39063 l 0,-0.7793 5.0625,0 a 62.67857,12.549644 0 0 0 0.38281,-1.23633 62.67857,12.549644 0 0 0 -62.67774,-12.54883 z"
         style="display:inline;opacity:1;fill:#ad936f;fill-opacity:1;stroke:none;stroke-width:1;stroke-linecap:butt;stroke-miterlimit:10;stroke-dasharray:2, 1;stroke-dashoffset:0;stroke-opacity:1" />
      <ellipse
         style="display:inline;opacity:1;fill:#f9b864;fill-opacity:1;stroke:none;stroke-width:1;stroke-linecap:butt;stroke-miterlimit:10;stroke-dasharray:2, 1;stroke-dashoffset:0;stroke-opacity:1"
         id="ellipse4843"
         cx="192.8252"
         cy="142.47273"
         rx="3.3175762"
         ry="3.2134352" />
      <ellipse
         ry="3.2134352"
         rx="3.3175762"
         cy="142.72975"
         cx="73.728889"
         id="ellipse4845"
         style="display:inline;opacity:1;fill:#f9b864;fill-opacity:1;stroke:none;stroke-width:1;stroke-linecap:butt;stroke-miterlimit:10;stroke-dasharray:2, 1;stroke-dashoffset:0;stroke-opacity:1" />
      <path
         inkscape:connector-curvature="0"
         style="display:inline;opacity:1;fill:#ad936f;fill-opacity:1;stroke:none;stroke-width:1;stroke-linecap:butt;stroke-miterlimit:10;stroke-dasharray:2, 1;stroke-dashoffset:0;stroke-opacity:1"
         d="m 133.46738,157.24685 a 62.67857,12.549644 0 0 0 -62.679686,12.54883 62.67857,12.549644 0 0 0 1.896485,2.99024 l 2.591797,0 a 58.482143,11.644 0 0 1 58.101564,-10.36524 58.482143,11.644 0 0 1 57.32227,9.39063 l 0,-0.7793 5.0625,0 a 62.67857,12.549644 0 0 0 0.38281,-1.23633 62.67857,12.549644 0 0 0 -62.67774,-12.54883 z"
         id="path4847" />
      <ellipse
         ry="3.2134352"
         rx="3.3175762"
         cy="170.12389"
         cx="193.07773"
         id="ellipse4849"
         style="display:inline;opacity:1;fill:#f9b864;fill-opacity:1;stroke:none;stroke-width:1;stroke-linecap:butt;stroke-miterlimit:10;stroke-dasharray:2, 1;stroke-dashoffset:0;stroke-opacity:1" />
      <ellipse
         style="display:inline;opacity:1;fill:#f9b864;fill-opacity:1;stroke:none;stroke-width:1;stroke-linecap:butt;stroke-miterlimit:10;stroke-dasharray:2, 1;stroke-dashoffset:0;stroke-opacity:1"
         id="ellipse4851"
         cx="73.98143"
         cy="170.64877"
         rx="3.3175762"
         ry="3.2134352" />
      <ellipse
         style="display:inline;opacity:1;fill:#f9b864;fill-opacity:1;stroke:none;stroke-width:1;stroke-linecap:butt;stroke-miterlimit:10;stroke-dasharray:2, 1;stroke-dashoffset:0;stroke-opacity:1"
         id="ellipse4853"
         cx="73.98143"
         cy="170.64877"
         rx="3.3175762"
         ry="3.2134352" />
      <ellipse
         style="display:inline;opacity:1;fill:#f9b864;fill-opacity:1;stroke:none;stroke-width:1;stroke-linecap:butt;stroke-miterlimit:10;stroke-dasharray:2, 1;stroke-dashoffset:0;stroke-opacity:1"
         id="ellipse4855"
         cx="73.892143"
         cy="170.38091"
         rx="3.3175762"
         ry="3.2134352" />
      <path
         inkscape:connector-curvature="0"
         id="path4857"
         d="m 133.46738,143.4853 a 62.67857,12.549644 0 0 0 -62.679686,12.54883 62.67857,12.549644 0 0 0 1.896485,2.99024 l 2.591797,0 a 58.482143,11.644 0 0 1 58.101564,-10.36524 58.482143,11.644 0 0 1 57.32227,9.39063 l 0,-0.7793 5.0625,0 a 62.67857,12.549644 0 0 0 0.38281,-1.23633 62.67857,12.549644 0 0 0 -62.67774,-12.54883 z"
         style="display:inline;opacity:1;fill:#ad936f;fill-opacity:1;stroke:none;stroke-width:1;stroke-linecap:butt;stroke-miterlimit:10;stroke-dasharray:2, 1;stroke-dashoffset:0;stroke-opacity:1" />
      <ellipse
         style="display:inline;opacity:1;fill:#f9b864;fill-opacity:1;stroke:none;stroke-width:1;stroke-linecap:butt;stroke-miterlimit:10;stroke-dasharray:2, 1;stroke-dashoffset:0;stroke-opacity:1"
         id="ellipse4859"
         cx="193.07773"
         cy="156.36234"
         rx="3.3175762"
         ry="3.2134352" />
      <ellipse
         ry="3.2134352"
         rx="3.3175762"
         cy="156.61934"
         cx="73.98143"
         id="ellipse4861"
         style="display:inline;opacity:1;fill:#f9b864;fill-opacity:1;stroke:none;stroke-width:1;stroke-linecap:butt;stroke-miterlimit:10;stroke-dasharray:2, 1;stroke-dashoffset:0;stroke-opacity:1" />
    </g>
  </g>
  <g
     inkscape:groupmode="layer"
     id="layer7"
     inkscape:label="Coil Top"
     style="display:inline">
    <path
       inkscape:connector-curvature="0"
       id="path4903"
       d="m 133.21484,87.595703 a 62.67857,12.549644 0 0 0 -62.679684,12.548827 62.67857,12.549644 0 0 0 1.896485,2.99024 l 2.591797,0 A 58.482143,11.644 0 0 1 133.125,92.769531 a 58.482143,11.644 0 0 1 57.32227,9.390629 l 0,-0.7793 5.0625,0 a 62.67857,12.549644 0 0 0 0.38281,-1.23633 62.67857,12.549644 0 0 0 -62.67774,-12.548827 z"
       style="display:inline;opacity:1;fill:url(#linearGradient5043);fill-opacity:1;stroke:none;stroke-width:1;stroke-linecap:butt;stroke-miterlimit:10;stroke-dasharray:2, 1;stroke-dashoffset:0;stroke-opacity:1" />
    <ellipse
       style="display:inline;opacity:1;fill:#eacb9f;fill-opacity:1;stroke:none;stroke-width:1;stroke-linecap:butt;stroke-miterlimit:10;stroke-dasharray:2, 1;stroke-dashoffset:0;stroke-opacity:1"
       id="ellipse4905"
       cx="192.8252"
       cy="100.47274"
       rx="3.3175762"
       ry="3.2134352" />
    <ellipse
       ry="3.2134352"
       rx="3.3175762"
       cy="100.72976"
       cx="73.728889"
       id="ellipse4907"
       style="display:inline;opacity:1;fill:#eacb9f;fill-opacity:1;stroke:none;stroke-width:1;stroke-linecap:butt;stroke-miterlimit:10;stroke-dasharray:2, 1;stroke-dashoffset:0;stroke-opacity:1" />
    <path
       inkscape:connector-curvature="0"
       style="display:inline;opacity:1;fill:url(#linearGradient5041);fill-opacity:1;stroke:none;stroke-width:1;stroke-linecap:butt;stroke-miterlimit:10;stroke-dasharray:2, 1;stroke-dashoffset:0;stroke-opacity:1"
       d="m 133.46738,115.24685 a 62.67857,12.549644 0 0 0 -62.679686,12.54883 62.67857,12.549644 0 0 0 1.896485,2.99024 l 2.591797,0 a 58.482143,11.644 0 0 1 58.101564,-10.36524 58.482143,11.644 0 0 1 57.32227,9.39063 l 0,-0.7793 5.0625,0 a 62.67857,12.549644 0 0 0 0.38281,-1.23633 62.67857,12.549644 0 0 0 -62.67774,-12.54883 z"
       id="path4909" />
    <ellipse
       ry="3.2134352"
       rx="3.3175762"
       cy="128.12389"
       cx="193.07773"
       id="ellipse4911"
       style="display:inline;opacity:1;fill:#eacb9f;fill-opacity:1;stroke:none;stroke-width:1;stroke-linecap:butt;stroke-miterlimit:10;stroke-dasharray:2, 1;stroke-dashoffset:0;stroke-opacity:1" />
    <ellipse
       style="display:inline;opacity:1;fill:url(#linearGradient5039);fill-opacity:1;stroke:none;stroke-width:1;stroke-linecap:butt;stroke-miterlimit:10;stroke-dasharray:2, 1;stroke-dashoffset:0;stroke-opacity:1"
       id="ellipse4913"
       cx="73.98143"
       cy="128.64877"
       rx="3.3175762"
       ry="3.2134352" />
    <ellipse
       style="display:inline;opacity:1;fill:url(#linearGradient5037);fill-opacity:1;stroke:none;stroke-width:1;stroke-linecap:butt;stroke-miterlimit:10;stroke-dasharray:2, 1;stroke-dashoffset:0;stroke-opacity:1"
       id="ellipse4915"
       cx="73.98143"
       cy="128.64877"
       rx="3.3175762"
       ry="3.2134352" />
    <ellipse
       style="display:inline;opacity:1;fill:#eacb9f;fill-opacity:1;stroke:none;stroke-width:1;stroke-linecap:butt;stroke-miterlimit:10;stroke-dasharray:2, 1;stroke-dashoffset:0;stroke-opacity:1"
       id="ellipse4917"
       cx="73.892143"
       cy="128.38091"
       rx="3.3175762"
       ry="3.2134352" />
    <path
       inkscape:connector-curvature="0"
       id="path4919"
       d="m 133.46738,101.4853 a 62.67857,12.549644 0 0 0 -62.679686,12.54883 62.67857,12.549644 0 0 0 1.896485,2.99024 l 2.591797,0 a 58.482143,11.644 0 0 1 58.101564,-10.36524 58.482143,11.644 0 0 1 57.32227,9.39063 l 0,-0.7793 5.0625,0 a 62.67857,12.549644 0 0 0 0.38281,-1.23633 62.67857,12.549644 0 0 0 -62.67774,-12.54883 z"
       style="display:inline;opacity:1;fill:url(#linearGradient5035);fill-opacity:1;stroke:none;stroke-width:1;stroke-linecap:butt;stroke-miterlimit:10;stroke-dasharray:2, 1;stroke-dashoffset:0;stroke-opacity:1" />
    <ellipse
       style="display:inline;opacity:1;fill:#eacb9f;fill-opacity:1;stroke:none;stroke-width:1;stroke-linecap:butt;stroke-miterlimit:10;stroke-dasharray:2, 1;stroke-dashoffset:0;stroke-opacity:1"
       id="ellipse4921"
       cx="193.07773"
       cy="114.36234"
       rx="3.3175762"
       ry="3.2134352" />
    <ellipse
       ry="3.2134352"
       rx="3.3175762"
       cy="114.61935"
       cx="73.98143"
       id="ellipse4923"
       style="display:inline;opacity:1;fill:#eacb9f;fill-opacity:1;stroke:none;stroke-width:1;stroke-linecap:butt;stroke-miterlimit:10;stroke-dasharray:2, 1;stroke-dashoffset:0;stroke-opacity:1" />
    <path
       style="display:inline;opacity:1;fill:url(#linearGradient5033);fill-opacity:1;stroke:none;stroke-width:1;stroke-linecap:butt;stroke-miterlimit:10;stroke-dasharray:2, 1;stroke-dashoffset:0;stroke-opacity:1"
       d="m 133.21484,129.5957 a 62.67857,12.549644 0 0 0 -62.679684,12.54883 62.67857,12.549644 0 0 0 1.896485,2.99024 l 2.591797,0 a 58.482143,11.644 0 0 1 58.101562,-10.36524 58.482143,11.644 0 0 1 57.32227,9.39063 l 0,-0.7793 5.0625,0 a 62.67857,12.549644 0 0 0 0.38281,-1.23633 62.67857,12.549644 0 0 0 -62.67774,-12.54883 z"
       id="path4925"
       inkscape:connector-curvature="0" />
    <ellipse
       ry="3.2134352"
       rx="3.3175762"
       cy="142.47273"
       cx="192.8252"
       id="ellipse4927"
       style="display:inline;opacity:1;fill:#eacb9f;fill-opacity:1;stroke:none;stroke-width:1;stroke-linecap:butt;stroke-miterlimit:10;stroke-dasharray:2, 1;stroke-dashoffset:0;stroke-opacity:1" />
    <ellipse
       style="display:inline;opacity:1;fill:#eacb9f;fill-opacity:1;stroke:none;stroke-width:1;stroke-linecap:butt;stroke-miterlimit:10;stroke-dasharray:2, 1;stroke-dashoffset:0;stroke-opacity:1"
       id="ellipse4929"
       cx="73.728889"
       cy="142.72975"
       rx="3.3175762"
       ry="3.2134352" />
    <path
       id="path4931"
       d="m 133.46738,157.24685 a 62.67857,12.549644 0 0 0 -62.679686,12.54883 62.67857,12.549644 0 0 0 1.896485,2.99024 l 2.591797,0 a 58.482143,11.644 0 0 1 58.101564,-10.36524 58.482143,11.644 0 0 1 57.32227,9.39063 l 0,-0.7793 5.0625,0 a 62.67857,12.549644 0 0 0 0.38281,-1.23633 62.67857,12.549644 0 0 0 -62.67774,-12.54883 z"
       style="display:inline;opacity:1;fill:url(#linearGradient5031);fill-opacity:1;stroke:none;stroke-width:1;stroke-linecap:butt;stroke-miterlimit:10;stroke-dasharray:2, 1;stroke-dashoffset:0;stroke-opacity:1"
       inkscape:connector-curvature="0" />
    <ellipse
       style="display:inline;opacity:1;fill:#eacb9f;fill-opacity:1;stroke:none;stroke-width:1;stroke-linecap:butt;stroke-miterlimit:10;stroke-dasharray:2, 1;stroke-dashoffset:0;stroke-opacity:1"
       id="ellipse4933"
       cx="193.07773"
       cy="170.12389"
       rx="3.3175762"
       ry="3.2134352" />
    <ellipse
       ry="3.2134352"
       rx="3.3175762"
       cy="170.64877"
       cx="73.98143"
       id="ellipse4935"
       style="display:inline;opacity:1;fill:url(#linearGradient5029);fill-opacity:1;stroke:none;stroke-width:1;stroke-linecap:butt;stroke-miterlimit:10;stroke-dasharray:2, 1;stroke-dashoffset:0;stroke-opacity:1" />
    <ellipse
       ry="3.2134352"
       rx="3.3175762"
       cy="170.64877"
       cx="73.98143"
       id="ellipse4937"
       style="display:inline;opacity:1;fill:url(#linearGradient5027);fill-opacity:1;stroke:none;stroke-width:1;stroke-linecap:butt;stroke-miterlimit:10;stroke-dasharray:2, 1;stroke-dashoffset:0;stroke-opacity:1" />
    <ellipse
       ry="3.2134352"
       rx="3.3175762"
       cy="170.38091"
       cx="73.892143"
       id="ellipse4939"
       style="display:inline;opacity:1;fill:#eacb9f;fill-opacity:1;stroke:none;stroke-width:1;stroke-linecap:butt;stroke-miterlimit:10;stroke-dasharray:2, 1;stroke-dashoffset:0;stroke-opacity:1" />
    <path
       style="display:inline;opacity:1;fill:url(#linearGradient5025);fill-opacity:1;stroke:none;stroke-width:1;stroke-linecap:butt;stroke-miterlimit:10;stroke-dasharray:2, 1;stroke-dashoffset:0;stroke-opacity:1"
       d="m 133.46738,143.4853 a 62.67857,12.549644 0 0 0 -62.679686,12.54883 62.67857,12.549644 0 0 0 1.896485,2.99024 l 2.591797,0 a 58.482143,11.644 0 0 1 58.101564,-10.36524 58.482143,11.644 0 0 1 57.32227,9.39063 l 0,-0.7793 5.0625,0 a 62.67857,12.549644 0 0 0 0.38281,-1.23633 62.67857,12.549644 0 0 0 -62.67774,-12.54883 z"
       id="path4941"
       inkscape:connector-curvature="0" />
    <ellipse
       ry="3.2134352"
       rx="3.3175762"
       cy="156.36234"
       cx="193.07773"
       id="ellipse4943"
       style="display:inline;opacity:1;fill:#eacb9f;fill-opacity:1;stroke:none;stroke-width:1;stroke-linecap:butt;stroke-miterlimit:10;stroke-dasharray:2, 1;stroke-dashoffset:0;stroke-opacity:1" />
    <ellipse
       style="display:inline;opacity:1;fill:#eacb9f;fill-opacity:1;stroke:none;stroke-width:1;stroke-linecap:butt;stroke-miterlimit:10;stroke-dasharray:2, 1;stroke-dashoffset:0;stroke-opacity:1"
       id="ellipse4945"
       cx="73.98143"
       cy="156.61934"
       rx="3.3175762"
       ry="3.2134352" />
  </g>
  <g
     inkscape:groupmode="layer"
     id="layer4"
     inkscape:label="Cylinder bottom"
     style="display:inline">
    <ellipse
       cx="133.60043"
       cy="199.40506"
       rx="56.07143"
       ry="12.857143"
       id="ellipse4716"
       style="display:inline;opacity:1;fill:#839ed6;fill-opacity:1;stroke:#000000;stroke-width:1;stroke-linecap:butt;stroke-miterlimit:10;stroke-dasharray:none;stroke-dashoffset:0;stroke-opacity:1" />
  </g>
  <g
     inkscape:groupmode="layer"
     id="layer8"
     inkscape:label="Cylinder Contours"
     style="display:inline">
    <ellipse
       cx="133.60043"
       cy="74.505058"
       rx="56.07143"
       ry="12.857143"
       id="ellipse5050"
       style="display:inline;opacity:1;fill:none;fill-opacity:0.39215686;stroke:#000000;stroke-width:1;stroke-linecap:butt;stroke-miterlimit:10;stroke-dasharray:none;stroke-dashoffset:0;stroke-opacity:1" />
    <path
       style="fill:none;fill-rule:evenodd;stroke:#000000;stroke-width:1px;stroke-linecap:butt;stroke-linejoin:miter;stroke-opacity:1"
       d="m 189.65614,74.534548 0,125.511452"
       id="path4247"
       inkscape:connector-curvature="0" />
    <path
       style="fill:none;fill-rule:evenodd;stroke:#000000;stroke-width:1px;stroke-linecap:butt;stroke-linejoin:miter;stroke-opacity:1"
       d="M 77.276669,74.534548 77.529207,199.54092"
       id="path4249"
       inkscape:connector-curvature="0" />
  </g>
  <g
     inkscape:groupmode="layer"
     id="layer9"
     inkscape:label="Small Cylinder"
     style="display:inline">
    <g
       inkscape:groupmode="layer"
       id="layer10"
       inkscape:label="Bottom"
       style="display:inline" />
    <g
       inkscape:groupmode="layer"
       id="layer11"
       inkscape:label="Side"
       style="display:inline">
      <path
         inkscape:connector-curvature="0"
         id="path4441"
         d="m 99.603961,104.48597 0,77.39959 0,0.2409 0.0371,0 a 34.350066,7.9694421 0 0 0 34.312299,7.7287 34.350066,7.9694421 0 0 0 34.35059,-7.9696 34.350066,7.9694421 0 0 0 -0.16393,-0.71187 l 0,-76.68772 -68.536049,0 z"
         style="display:inline;opacity:1;fill:#c6c3c3;fill-opacity:1;stroke:#000000;stroke-width:0.61621845;stroke-linecap:butt;stroke-linejoin:miter;stroke-miterlimit:10;stroke-dasharray:none;stroke-dashoffset:0;stroke-opacity:1" />
    </g>
    <g
       inkscape:groupmode="layer"
       id="layer12"
       inkscape:label="Top"
       style="display:inline" />
    <path
       style="display:inline;opacity:1;fill:url(#linearGradient4450);fill-opacity:1;stroke:#000000;stroke-width:0.61621845;stroke-linecap:butt;stroke-linejoin:miter;stroke-miterlimit:10;stroke-dasharray:none;stroke-dashoffset:0;stroke-opacity:1"
       d="m 99.603961,104.48597 0,77.39959 0,0.2409 0.0371,0 a 34.350066,7.9694421 0 0 0 34.312299,7.7287 34.350066,7.9694421 0 0 0 34.35059,-7.9696 34.350066,7.9694421 0 0 0 -0.16393,-0.71187 l 0,-76.68772 -68.536049,0 z"
       id="path4401"
       inkscape:connector-curvature="0" />
    <ellipse
       cx="133.95389"
       cy="105.24998"
       rx="34.350067"
       ry="7.9694424"
       id="ellipse4405"
       style="display:inline;opacity:1;fill:#9e9e9e;fill-opacity:1;stroke:#000000;stroke-width:0.61621845;stroke-linecap:butt;stroke-miterlimit:10;stroke-dasharray:none;stroke-dashoffset:0;stroke-opacity:1" />
    <ellipse
       style="opacity:1;fill:#3a3a3a;fill-opacity:1;stroke:#000000;stroke-width:0.5;stroke-linecap:butt;stroke-linejoin:miter;stroke-miterlimit:10;stroke-dasharray:none;stroke-dashoffset:0;stroke-opacity:1"
       id="path4473"
       cx="134.73215"
       cy="104.9515"
       rx="6.5178571"
       ry="2.2321429" />
  </g>
  <g
     style="display:none"
     inkscape:label="Small Cylinder copy"
     id="g4385"
     inkscape:groupmode="layer">
    <g
       style="display:inline"
       inkscape:label="Bottom"
       id="g4387"
       inkscape:groupmode="layer" />
    <g
       style="display:inline"
       inkscape:label="Side"
       id="g4389"
       inkscape:groupmode="layer">
      <path
         inkscape:connector-curvature="0"
         id="path4391"
         d="m 410.59445,102.03553 0,59.61888 0,0.18556 0.0262,0 a 24.252395,6.138654 0 0 0 24.22573,5.95322 24.252395,6.138654 0 0 0 24.25276,-6.13878 24.252395,6.138654 0 0 0 -0.11574,-0.54833 l 0,-59.07055 -48.38894,0 z"
         style="display:inline;opacity:1;fill:#c6c3c3;fill-opacity:1;stroke:#000000;stroke-width:0.45443404;stroke-linecap:butt;stroke-linejoin:miter;stroke-miterlimit:10;stroke-dasharray:none;stroke-dashoffset:0;stroke-opacity:1" />
      <path
         style="display:inline;opacity:1;fill:url(#linearGradient4413);fill-opacity:1;stroke:#000000;stroke-width:0.45443404;stroke-linecap:butt;stroke-linejoin:miter;stroke-miterlimit:10;stroke-dasharray:none;stroke-dashoffset:0;stroke-opacity:1"
         d="m 410.59445,102.03553 0,59.61888 0,0.18556 0.0262,0 a 24.252395,6.138654 0 0 0 24.22573,5.95322 24.252395,6.138654 0 0 0 24.25276,-6.13878 24.252395,6.138654 0 0 0 -0.11574,-0.54833 l 0,-59.07055 -48.38894,0 z"
         id="path4393"
         inkscape:connector-curvature="0" />
    </g>
    <g
       inkscape:label="Top"
       id="g4395"
       inkscape:groupmode="layer">
      <ellipse
         style="display:inline;opacity:1;fill:#bdbdbd;fill-opacity:1;stroke:#000000;stroke-width:0.45443404;stroke-linecap:butt;stroke-miterlimit:10;stroke-dasharray:none;stroke-dashoffset:0;stroke-opacity:1"
         id="ellipse4397"
         ry="6.1386542"
         rx="24.252396"
         cy="102.62402"
         cx="434.84674" />
      <path
         sodipodi:open="true"
         d="m 458.93563,130.95903 a 24.17083,6.1390486 0 0 1 -12.08541,5.31657 24.17083,6.1390486 0 0 1 -24.17083,0 24.17083,6.1390486 0 0 1 -12.08542,-5.31657"
         sodipodi:end="3.1415927"
         sodipodi:start="0"
         sodipodi:ry="6.1390486"
         sodipodi:rx="24.17083"
         sodipodi:cy="130.95903"
         sodipodi:cx="434.7648"
         sodipodi:type="arc"
         id="path4399"
         style="display:inline;opacity:1;fill:none;fill-opacity:1;stroke:#000000;stroke-width:0.22721702;stroke-linecap:butt;stroke-miterlimit:10;stroke-dasharray:none;stroke-dashoffset:0;stroke-opacity:1" />
    </g>
  </g>
  <g
     inkscape:groupmode="layer"
     id="layer2"
     inkscape:label="Cylinder body and top"
     style="display:inline">
    <ellipse
       style="opacity:1;fill:#c2d1f0;fill-opacity:1;stroke:none;stroke-width:1;stroke-linecap:butt;stroke-miterlimit:10;stroke-dasharray:2, 1;stroke-dashoffset:0;stroke-opacity:1"
       id="path4137"
       ry="12.857143"
       rx="56.07143"
       cy="74.505058"
       cx="133.60043" />
    <path
       style="display:inline;opacity:1;fill:#7897d5;fill-opacity:0.31847133;stroke:none;stroke-width:1;stroke-linecap:butt;stroke-miterlimit:10;stroke-dasharray:2, 1;stroke-dashoffset:0;stroke-opacity:1"
       d="M 133.59961,61.648438 A 56.07143,12.857143 0 0 0 77.578125,74.28125 l -0.04883,0 0,0.224609 0,125.792971 112.142585,0 0,-125.792971 0,-0.224609 -0.0352,0 A 56.07143,12.857143 0 0 0 133.59961,61.648438 Z"
       id="rect4714"
       inkscape:connector-curvature="0" />
  </g>
</svg>
